<?xml version="1.0" encoding="utf-8"?>
<!-- Generator: Adobe Illustrator 17.1.0, SVG Export Plug-In . SVG Version: 6.00 Build 0)  -->
<!DOCTYPE svg PUBLIC "-//W3C//DTD SVG 1.1//EN" "http://www.w3.org/Graphics/SVG/1.1/DTD/svg11.dtd">
<svg version="1.1" id="Layer_1" xmlns="http://www.w3.org/2000/svg" xmlns:xlink="http://www.w3.org/1999/xlink" x="0px" y="0px"
	 width="145px" height="145px" viewBox="0 0 145 145" enable-background="new 0 0 145 145" xml:space="preserve">
<linearGradient id="SVGID_1_" gradientUnits="userSpaceOnUse" x1="3.051758e-005" y1="72.5" x2="145" y2="72.5">
	<stop  offset="0" style="stop-color:#FF4070"/>
	<stop  offset="1" style="stop-color:#FFBB77"/>
</linearGradient>
<path fill="url(#SVGID_1_)" d="M90.5,70.2h15.1l-27.3,42.3V78.3c0-1.7-1.3-3-3-3H60.9l26.6-42.5v34.4C87.5,68.9,88.8,70.2,90.5,70.2
	z M145,72.5c0,40-32.5,72.5-72.5,72.5C32.5,145,0,112.5,0,72.5S32.5,0,72.5,0C112.5,0,145,32.5,145,72.5z M54.9,45.3
	c0,0.8,0.7,1.5,1.5,1.5h10.8c0.8,0,1.5-0.7,1.5-1.5s-0.7-1.5-1.5-1.5H56.4C55.6,43.8,54.9,44.5,54.9,45.3z M43.5,56.2
	c0,0.8,0.7,1.5,1.5,1.5h15.1c0.8,0,1.5-0.7,1.5-1.5s-0.7-1.5-1.5-1.5H45C44.2,54.7,43.5,55.4,43.5,56.2z M53.1,65.6H39
	c-0.8,0-1.5,0.7-1.5,1.5s0.7,1.5,1.5,1.5h14.1c0.8,0,1.5-0.7,1.5-1.5S53.9,65.6,53.1,65.6z M25.8,56.2c0,0.8,0.7,1.5,1.5,1.5H39
	c0.8,0,1.5-0.7,1.5-1.5s-0.7-1.5-1.5-1.5H27.3C26.4,54.7,25.8,55.4,25.8,56.2z M22.6,79.6h23.5c0.8,0,1.5-0.7,1.5-1.5
	s-0.7-1.5-1.5-1.5H22.6c-0.8,0-1.5,0.7-1.5,1.5S21.8,79.6,22.6,79.6z M48,99.9c0-0.8-0.7-1.5-1.5-1.5h-4.1c-0.8,0-1.5,0.7-1.5,1.5
	s0.7,1.5,1.5,1.5h4.1C47.3,101.4,48,100.8,48,99.9z M67,110.9c0-0.8-0.7-1.5-1.5-1.5h-6.3c-0.8,0-1.5,0.7-1.5,1.5s0.7,1.5,1.5,1.5
	h6.3C66.4,112.4,67,111.7,67,110.9z M67,99.9c0-0.8-0.7-1.5-1.5-1.5H53c-0.8,0-1.5,0.7-1.5,1.5s0.7,1.5,1.5,1.5h12.6
	C66.4,101.4,67,100.8,67,99.9z M67,89c0-0.8-0.7-1.5-1.5-1.5H42c-0.8,0-1.5,0.7-1.5,1.5s0.7,1.5,1.5,1.5h23.5
	C66.4,90.5,67,89.8,67,89z M113.7,65.8c-0.5-1-1.5-1.6-2.6-1.6H93.5V22.4c0-1.3-0.9-2.5-2.2-2.9c-1.3-0.4-2.7,0.2-3.4,1.3l-35,56
	c-0.6,0.9-0.6,2.1-0.1,3s1.5,1.5,2.6,1.5h16.7v41.3c0,1.3,0.9,2.5,2.2,2.9c0.3,0.1,0.6,0.1,0.8,0.1c1,0,2-0.5,2.5-1.4l35.8-55.4
	C114.2,67.9,114.3,66.7,113.7,65.8z"/>
</svg>
