<?xml version="1.0" encoding="utf-8"?>
<!-- Generator: Adobe Illustrator 17.1.0, SVG Export Plug-In . SVG Version: 6.00 Build 0)  -->
<!DOCTYPE svg PUBLIC "-//W3C//DTD SVG 1.1//EN" "http://www.w3.org/Graphics/SVG/1.1/DTD/svg11.dtd">
<svg version="1.1" id="Layer_1" xmlns="http://www.w3.org/2000/svg" xmlns:xlink="http://www.w3.org/1999/xlink" x="0px" y="0px"
	 width="145px" height="145px" viewBox="0 0 145 145" enable-background="new 0 0 145 145" xml:space="preserve">
<linearGradient id="SVGID_1_" gradientUnits="userSpaceOnUse" x1="0" y1="72.5" x2="145" y2="72.5">
	<stop  offset="0" style="stop-color:#7039FF"/>
	<stop  offset="1" style="stop-color:#FFBB77"/>
</linearGradient>
<path fill="url(#SVGID_1_)" d="M72.3,47.8c-13.6,0-24.7,11.1-24.7,24.7s11.1,24.7,24.7,24.7S97,86.1,97,72.5S85.9,47.8,72.3,47.8z
	 M88.3,66.5l-13.4,18c-0.6,0.8-1.5,1.3-2.5,1.4c-0.1,0-0.2,0-0.3,0c-0.9,0-1.8-0.4-2.5-1l-9.8-9.8c-1.4-1.4-1.4-3.6,0-4.9
	c1.4-1.4,3.6-1.4,4.9,0l6.9,6.9l7.9-10.6l3.1-4.2c1.2-1.5,3.3-1.9,4.9-0.7C89.2,62.8,89.5,65,88.3,66.5z M72.5,0
	C32.5,0,0,32.5,0,72.5S32.5,145,72.5,145S145,112.5,145,72.5S112.5,0,72.5,0z M32.7,79.6c0.6,0.6,0.6,1.5,0,2.1
	c-0.3,0.3-0.7,0.4-1.1,0.4c-0.4,0-0.8-0.1-1.1-0.4l-6.7-6.7l-6.7,6.7c-0.3,0.3-0.7,0.4-1.1,0.4c-0.4,0-0.8-0.1-1.1-0.4
	c-0.6-0.6-0.6-1.5,0-2.1l6.7-6.7l-6.7-6.7c-0.6-0.6-0.6-1.5,0-2.1c0.6-0.6,1.5-0.6,2.1,0l6.7,6.7l6.7-6.7c0.6-0.6,1.5-0.6,2.1,0
	c0.6,0.6,0.6,1.5,0,2.1L26,72.9L32.7,79.6z M72.3,103.2c-16.9,0-30.7-13.8-30.7-30.7s13.8-30.7,30.7-30.7S103,55.6,103,72.5
	S89.3,103.2,72.3,103.2z M130.9,81.7c-0.3,0.3-0.7,0.4-1.1,0.4c-0.4,0-0.8-0.1-1.1-0.4l-6.7-6.7l-6.7,6.7c-0.3,0.3-0.7,0.4-1.1,0.4
	c-0.4,0-0.8-0.1-1.1-0.4c-0.6-0.6-0.6-1.5,0-2.1l6.7-6.7l-6.7-6.7c-0.6-0.6-0.6-1.5,0-2.1c0.6-0.6,1.5-0.6,2.1,0l6.7,6.7l6.7-6.7
	c0.6-0.6,1.5-0.6,2.1,0c0.6,0.6,0.6,1.5,0,2.1l-6.7,6.7l6.7,6.7C131.5,80.2,131.5,81.1,130.9,81.7z"/>
</svg>
