<?xml version="1.0" encoding="utf-8"?>
<!-- Generator: Adobe Illustrator 17.1.0, SVG Export Plug-In . SVG Version: 6.00 Build 0)  -->
<!DOCTYPE svg PUBLIC "-//W3C//DTD SVG 1.1//EN" "http://www.w3.org/Graphics/SVG/1.1/DTD/svg11.dtd">
<svg version="1.1" id="Layer_1" xmlns="http://www.w3.org/2000/svg" xmlns:xlink="http://www.w3.org/1999/xlink" x="0px" y="0px"
	 width="145px" height="145px" viewBox="0 0 145 145" enable-background="new 0 0 145 145" xml:space="preserve">
<linearGradient id="SVGID_1_" gradientUnits="userSpaceOnUse" x1="0" y1="72.5" x2="145" y2="72.5">
	<stop  offset="0" style="stop-color:#FF4070"/>
	<stop  offset="1" style="stop-color:#FFBB77"/>
</linearGradient>
<path fill="url(#SVGID_1_)" d="M128.7,26.7c-5.9,15.1-17.7,27.5-32.9,33.9l4.7,5.1c0.9,1,1.1,2.4,0.4,3.6L88.8,89.8v11.5h2.1
	c2.1,0,3.8,1.7,3.8,3.8v15.1c0,2.1-1.7,3.8-3.8,3.8H53c-2.1,0-3.8-1.7-3.8-3.8V105c0-2.1,1.7-3.8,3.8-3.8h2.3V89.8L43.2,69.3
	c-0.7-1.1-0.5-2.6,0.4-3.6l6.1-6.6c-3-1.2-5.8-2.7-8.5-4.4c-0.7-0.4-0.9-1.4-0.5-2.1c0.4-0.7,1.4-0.9,2.1-0.5
	c2.9,1.8,5.9,3.4,9.1,4.6l18-19.4c1.1-1.2,3.3-1.2,4.4,0l17.1,18.5c15.7-5.8,27.7-18.6,32.8-34.3C111,8.3,92.7,0,72.5,0
	C51.7,0,32.9,8.8,19.7,22.8c0.5,1.6,1.1,3.1,1.8,4.6c0.3,0.8,0,1.6-0.8,2c-0.2,0.1-0.4,0.1-0.6,0.1c-0.6,0-1.1-0.3-1.4-0.9
	c-0.5-1.1-0.9-2.2-1.3-3.2C6.6,38.1,0,54.5,0,72.5c0,40,32.5,72.5,72.5,72.5S145,112.5,145,72.5C145,55.1,138.9,39.2,128.7,26.7z
	 M34.4,47.7c-0.3,0.3-0.7,0.5-1.1,0.5c-0.4,0-0.7-0.1-1-0.4c-3-2.8-5.7-5.9-8-9.3c-0.5-0.7-0.3-1.6,0.4-2.1c0.7-0.5,1.6-0.3,2.1,0.4
	c2.2,3.2,4.8,6.2,7.6,8.8C34.9,46.2,34.9,47.1,34.4,47.7z M72,64.6c3.7,0,6.7,3,6.7,6.7c0,3.7-3,6.7-6.7,6.7c-3.7,0-6.7-3-6.7-6.7
	C65.3,67.6,68.3,64.6,72,64.6z M61.3,101.2V89c0-0.5-0.1-1.1-0.4-1.5L49.5,68.1l21-22.7v16.2c-4.6,0.7-8.2,4.7-8.2,9.6
	c0,5.3,4.3,9.7,9.7,9.7c5.3,0,9.7-4.3,9.7-9.7c0-4.8-3.6-8.8-8.2-9.6V45.5l21,22.7L83.2,87.4c-0.3,0.5-0.4,1-0.4,1.5v12.3H61.3z"/>
</svg>
