<?xml version="1.0" encoding="utf-8"?>
<!-- Generator: Adobe Illustrator 17.1.0, SVG Export Plug-In . SVG Version: 6.00 Build 0)  -->
<!DOCTYPE svg PUBLIC "-//W3C//DTD SVG 1.1//EN" "http://www.w3.org/Graphics/SVG/1.1/DTD/svg11.dtd">
<svg version="1.1" id="Layer_1" xmlns="http://www.w3.org/2000/svg" xmlns:xlink="http://www.w3.org/1999/xlink" x="0px" y="0px"
	 width="145px" height="145px" viewBox="0 0 145 145" enable-background="new 0 0 145 145" xml:space="preserve">
<linearGradient id="SVGID_1_" gradientUnits="userSpaceOnUse" x1="3.051758e-005" y1="72.5" x2="145" y2="72.5">
	<stop  offset="0" style="stop-color:#7039FF"/>
	<stop  offset="1" style="stop-color:#FFBB77"/>
</linearGradient>
<path fill="url(#SVGID_1_)" d="M59.7,92.2h5.4l-5.3,13.7h-5.4l-5.3-13.7h5.4L57,100L59.7,92.2z M79.7,99.5v1h-9.3
	c0.3,0.9,1.3,1.7,2.9,1.7c0.8,0,2.5-0.4,3.1-1l2.1,3.1c-1.4,1.2-3.8,1.7-5.8,1.7c-4.3,0-7.6-2.7-7.6-7.2c0-4,3-7.2,7.4-7.2
	C76.6,91.8,79.7,94.7,79.7,99.5z M74.8,97.4c-0.1-0.6-0.6-1.6-2.3-1.6c-1.5,0-2.1,1-2.2,1.6H74.8z M88.4,96.3c1.1,0,1.9,0.5,2.3,1.2
	l3.3-3.1c-0.8-1.2-2.7-2.6-5.8-2.6c-4.3,0-7.7,2.8-7.7,7.2c0,4.4,3.3,7.2,7.7,7.2c3.1,0,5.1-1.4,5.8-2.6l-3.3-3.1
	c-0.4,0.6-1.2,1.2-2.3,1.2c-1.4,0-2.7-0.9-2.7-2.7C85.7,97.2,86.9,96.3,88.4,96.3z M145,72.5c0,40-32.5,72.5-72.5,72.5
	C32.5,145,0,112.5,0,72.5C0,32.5,32.5,0,72.5,0C112.5,0,145,32.5,145,72.5z M112.3,87c0-1.9-1.5-3.4-3.4-3.4h-4.5V50.4
	c0-1.9-0.8-3.8-2.1-5.1L90,33c-1.3-1.4-3.2-2.1-5.1-2.1h-37c-4,0-7.3,3.3-7.3,7.3v45.5h-4.5c-1.9,0-3.4,1.5-3.4,3.4v22.3
	c0,1.9,1.5,3.4,3.4,3.4h72.7c1.9,0,3.4-1.5,3.4-3.4V87z M98,49.5c0.3,0.2,0.4,0.6,0.4,0.9v33.2H46.6V38.1c0-0.7,0.6-1.3,1.3-1.3h37
	c0.3,0,0.7,0.1,0.9,0.4L98,49.5z M90.6,72.6c0-0.8-0.7-1.5-1.5-1.5H55.9c-0.8,0-1.5,0.7-1.5,1.5s0.7,1.5,1.5,1.5h33.2
	C89.9,74.1,90.6,73.4,90.6,72.6z M90.6,61.2c0-0.8-0.7-1.5-1.5-1.5H55.9c-0.8,0-1.5,0.7-1.5,1.5s0.7,1.5,1.5,1.5h33.2
	C89.9,62.7,90.6,62.1,90.6,61.2z"/>
</svg>
