<svg xmlns="http://www.w3.org/2000/svg" xmlns:xlink="http://www.w3.org/1999/xlink" viewBox="0 0 452.15 86.08"><defs><style>.cls-1{fill:#713aff;}.cls-2{fill:url(#Безымянный_градиент_7);}</style><linearGradient id="Безымянный_градиент_7" x1="281.01" y1="43.34" x2="452.15" y2="43.34" gradientUnits="userSpaceOnUse"><stop offset="0" stop-color="#ff3d70"/><stop offset="0.2" stop-color="#ff5271"/><stop offset="0.62" stop-color="#ff8974"/><stop offset="1" stop-color="#ffc077"/></linearGradient></defs><title>logo</title><g id="Слой_2" data-name="Слой 2"><g id="Layer_1" data-name="Layer 1"><path class="cls-1" d="M0,60.72V.6H43.86V12.9H13.42V27.18H42v12H13.42V60.72ZM65.19,7c0,9.29-14.1,9.29-14.1,0S65.19-2.32,65.19,7ZM51.94,18.15V60.72H64.33V18.15Zm53.49,42.57V38.27c0-6.54-2.84-9.89-8.77-9.89C90.9,28.29,87,33.28,87,38.79V60.72H74.82V18.23H86l.43,5.42a16,16,0,0,1,13.76-6.45c9.55,0,17.72,4.47,17.72,21V60.72Zm55.21-42.48h11.61V60.72H161.08l-.69-5.33c-2.84,4.47-8.94,6.19-13.07,6.28-12.73.09-21.93-8.17-21.93-22.19s9.72-22.36,22.27-22.19c5.33,0,10.32,2.06,12.56,5.85ZM137.77,39.47c0,7.05,5,11.18,11.18,11.18A10.92,10.92,0,0,0,160.22,39.9c0-6.11-3.87-11.7-11.27-11.7C142.76,28.21,137.77,32.42,137.77,39.47ZM195.22.6V60.72h-12.3V.6Zm23.13,0V60.72h-12.3V.6Zm54.26,17.63L246.56,79.81h-13.5l8.77-20.38L224,18.23H238L248.54,45l10.41-26.75Z"/><path class="cls-2" d="M293.31.6V41.28H281V.6Zm8.17,39c0-12.81,9.12-22.27,23.22-22.27S348,26.75,348,39.56s-8.86,22.1-23.31,22.1S301.48,52.37,301.48,39.56Zm34,0c0-5.33-3.27-11.18-10.75-11.18S314,34.23,314,39.56s3.18,11.09,10.66,11.09S335.45,45.15,335.45,39.56Zm30.27,27c.43,6.54,5,8.6,10.66,8.6,5.5,0,10.49-2.58,10.49-7.83,0-4.13-2.67-7.31-10.32-7.31-13.93,0-23-8.26-23-21.41,0-14.45,11.09-21.67,23-21.67,3,0,7.22.43,10,2.32l4.64-6,8.94,6.88-5.42,6.45a18.14,18.14,0,0,1,4.39,12.21c-.17,6-2.92,11.7-9.12,14.88,9.46,4.21,9.46,11.18,9.46,13.67,0,12.64-11.35,18.75-23,18.75-14.71,0-22.36-7.31-22.19-19.52Zm-.17-27.95c0,6.11,4.73,10.15,11,10.15,5.59,0,10.66-3.35,10.66-10.15a10.45,10.45,0,0,0-10.66-10.66C370.28,27.95,365.55,31.73,365.55,38.61Zm40.08.95c0-12.81,9.12-22.27,23.22-22.27s23.31,9.46,23.31,22.27-8.86,22.1-23.31,22.1S405.63,52.37,405.63,39.56Zm34,0c0-5.33-3.27-11.18-10.75-11.18s-10.66,5.85-10.66,11.18,3.18,11.09,10.66,11.09S439.59,45.15,439.59,39.56ZM293.31,48.28V60.72H281V48.28Zm8.17-8.72c0-12.81,9.12-22.27,23.22-22.27S348,26.75,348,39.56s-8.86,22.1-23.31,22.1S301.48,52.37,301.48,39.56Zm34,0c0-5.33-3.27-11.18-10.75-11.18S314,34.23,314,39.56s3.18,11.09,10.66,11.09S335.45,45.15,335.45,39.56Zm30.27,27c.43,6.54,5,8.6,10.66,8.6,5.5,0,10.49-2.58,10.49-7.83,0-4.13-2.67-7.31-10.32-7.31-13.93,0-23-8.26-23-21.41,0-14.45,11.09-21.67,23-21.67,3,0,7.22.43,10,2.32l4.64-6,8.94,6.88-5.42,6.45a18.14,18.14,0,0,1,4.39,12.21c-.17,6-2.92,11.7-9.12,14.88,9.46,4.21,9.46,11.18,9.46,13.67,0,12.64-11.35,18.75-23,18.75-14.71,0-22.36-7.31-22.19-19.52Zm-.17-27.95c0,6.11,4.73,10.15,11,10.15,5.59,0,10.66-3.35,10.66-10.15a10.45,10.45,0,0,0-10.66-10.66C370.28,27.95,365.55,31.73,365.55,38.61Zm40.08.95c0-12.81,9.12-22.27,23.22-22.27s23.31,9.46,23.31,22.27-8.86,22.1-23.31,22.1S405.63,52.37,405.63,39.56Zm34,0c0-5.33-3.27-11.18-10.75-11.18s-10.66,5.85-10.66,11.18,3.18,11.09,10.66,11.09S439.59,45.15,439.59,39.56Z"/></g></g></svg>