<?xml version="1.0" encoding="utf-8"?>
<!-- Generator: Adobe Illustrator 17.1.0, SVG Export Plug-In . SVG Version: 6.00 Build 0)  -->
<!DOCTYPE svg PUBLIC "-//W3C//DTD SVG 1.1//EN" "http://www.w3.org/Graphics/SVG/1.1/DTD/svg11.dtd">
<svg version="1.1" id="Layer_1" xmlns="http://www.w3.org/2000/svg" xmlns:xlink="http://www.w3.org/1999/xlink" x="0px" y="0px"
	 width="27.3px" height="18.7px" viewBox="0 0 27.3 18.7" enable-background="new 0 0 27.3 18.7" xml:space="preserve">
<g>
	<g>
		<path fill="#FFFFFF" d="M22.1,18.7h-17c-2.8,0-5.1-2.3-5.1-5.1c0-2.3,1.5-4.3,3.7-4.9C4.2,7.3,5.4,6.3,6.9,6c0.4-3.4,3.3-6,6.8-6
			C16.5,0,19,1.7,20,4.3c3,0.2,5.4,2.6,5.6,5.5c1.1,1,1.7,2.3,1.7,3.8C27.2,16.4,24.9,18.7,22.1,18.7z M7.6,7.7
			c-1.2,0-2.2,0.8-2.5,2L5,10.2l-0.6,0.1c-1.6,0.3-2.8,1.7-2.8,3.3C1.6,15.5,3.1,17,5,17h17c1.9,0,3.4-1.5,3.4-3.4
			c0-1.1-0.5-2-1.4-2.7l-0.3-0.3v-0.4c0-2.3-1.9-4.2-4.3-4.2h-0.9l-0.2-0.6c-0.6-2.1-2.6-3.7-4.9-3.7c-2.8,0-5.1,2.3-5.1,5.1v0.9
			H7.6z"/>
	</g>
	<g>
		<rect x="12.7" y="8" fill="#FFFFFF" width="1.7" height="7.3"/>
	</g>
	<g>
		<polygon fill="#FFFFFF" points="16.4,11.7 13.6,8.9 10.8,11.7 9.6,10.5 13.6,6.5 17.6,10.5 		"/>
	</g>
</g>
</svg>
