<svg version="1.1" id="Layer_1" xmlns="http://www.w3.org/2000/svg" xmlns:xlink="http://www.w3.org/1999/xlink" x="0px" y="0px"
	 width="131.7px" height="18.7px" viewBox="-38.3 -4.1 131.7 18.7" enable-background="new -38.3 -4.1 131.7 18.7"
	 xml:space="preserve">
	<g>
	<g>
		<path width="29px" fill="red" d="M-16.2,14.6h-17c-2.8,0-5.1-2.3-5.1-5.1c0-2.3,1.5-4.3,3.7-4.9c0.5-1.4,1.7-2.4,3.2-2.7
			c0.4-3.4,3.3-6,6.8-6c2.8,0,5.3,1.7,6.3,4.3c3,0.2,5.4,2.6,5.6,5.5c1.1,1,1.7,2.3,1.7,3.8C-11.1,12.3-13.4,14.6-16.2,14.6z
			 M-30.7,3.6c-1.2,0-2.2,0.8-2.5,2l-0.1,0.5l-0.6,0.1c-1.6,0.3-2.8,1.7-2.8,3.3c0,1.9,1.5,3.4,3.4,3.4h17c1.9,0,3.4-1.5,3.4-3.4
			c0-1.1-0.5-2-1.4-2.7l-0.3-0.3V6.1c0-2.3-1.9-4.2-4.3-4.2l-0.9,0l-0.2-0.6c-0.6-2.1-2.6-3.7-4.9-3.7c-2.8,0-5.1,2.3-5.1,5.1v0.9
			L-30.7,3.6z"/>
	</g>
	<g>
		<rect x="-25.6" y="3.9" fill="red" width="1.7" height="7.3"/>
	</g>
	<g>
		<polygon fill="red" points="-21.9,7.6 -24.7,4.8 -27.5,7.6 -28.7,6.4 -24.7,2.4 -20.7,6.4 		"/>
	</g>
</g>
</svg>
