<?xml version="1.0" encoding="utf-8"?>
<!-- Generator: Adobe Illustrator 17.1.0, SVG Export Plug-In . SVG Version: 6.00 Build 0)  -->
<!DOCTYPE svg PUBLIC "-//W3C//DTD SVG 1.1//EN" "http://www.w3.org/Graphics/SVG/1.1/DTD/svg11.dtd">
<svg version="1.1" id="Layer_1" xmlns="http://www.w3.org/2000/svg" xmlns:xlink="http://www.w3.org/1999/xlink" x="0px" y="0px"
	 width="1000px" height="1000px" viewBox="0 0 1000 1000" enable-background="new 0 0 1000 1000" xml:space="preserve">
<rect x="-4.4" fill="#64B800" width="1008.8" height="1000"/>
<g>
	<g>
		<path fill-rule="evenodd" clip-rule="evenodd" fill="#FFFFFF" d="M680.8,552.3c4.3-15.4,8.3-31,12.9-46.3
			c6.1-20.2,13.5-40,25.3-57.7c5.6-8.4,12-15.9,21.5-20.3c6.3-2.9,13.2-3.3,19.4-1c-1.8,0.7-3.3,1.2-4.7,1.9
			c-10,4.5-17.3,12.2-23.7,20.8c-14.2,19-23.1,40.7-30.6,63c-6.3,18.8-10.9,38-13.4,57.8c-0.4,3.4-0.5,6.8-0.9,10.3
			c-0.4,4.2-1.4,5.1-5.5,4.9c-2.3-0.1-4.7-0.2-7-0.8c-4.6-1-6.7-3.7-6.8-8.5c-0.2-26.5-0.4-53.1-0.6-79.6c0-1,0-1.9-0.7-3
			c-1.5,5.6-3.4,11.1-4.4,16.8c-4.2,23.3-8.2,46.6-12.2,69.9c-0.9,5.1-0.7,5.2-5.8,4.8c-2.1-0.2-4.2-0.6-6.2-1.3
			c-4.2-1.5-5.5-3.4-5.4-8c0.3-15.8,0.9-31.6,1-47.3c0.1-17.4-0.2-34.8-3.8-51.9c-1.3-6.2-3.5-12.4-6.4-18
			c-3.8-7.3-10.1-8.8-17.5-5.2c-6.6,3.2-11.3,8.5-15.2,14.5c-7.8,11.8-12.2,24.7-11.7,39c0.2,6.6,1.7,12.9,5.2,18.6
			c0.3,0.4,0.4,0.9,0.6,1.3c-0.2,0.2-0.4,0.4-0.6,0.6c-0.9-0.7-1.9-1.3-2.6-2.1c-4.8-6-7-13.1-7.1-20.6c-0.2-20,6.9-37.1,21.1-51
			c3.1-3.1,7.2-5.5,11.2-7.3c9.3-4.2,17.8-1.8,23.9,6.3c6.9,9.1,10,19.8,12.6,30.7c4.1,17.5,5.6,35.4,6.3,53.3
			c0,0.9,0.1,1.8,0.7,2.8c2-8.1,3.9-16.1,5.9-24.2c3.6-14.1,7.5-28.1,10.9-42.2c1.4-5.6,4.7-8.7,9.7-10.9c5.9-2.5,6.1-2.4,6,3.9
			c-0.7,27.3-1.3,54.5-2,81.8c0,1.5,0,2.9,0,4.4C680.4,552.3,680.6,552.3,680.8,552.3z"/>
		<path fill-rule="evenodd" clip-rule="evenodd" fill="#FFFFFF" d="M891.2,504.2c-0.5,4.1-1,8.3-1.7,12.4c-1.7,10.5,1,20.4,3.5,30.4
			c2,7.7,3.8,15.4,5.2,23.2c1.6,8.9-2.4,15.6-9.8,17.9c-4.8,1.5-10.1-0.1-12.8-3.7c-2.9-4-3.1-11-0.3-14.8c0.3-0.5,0.9-0.8,1.5-1.4
			c0.4,2.3,0.6,4.3,1.2,6.1c0.8,2.5,2.5,4,5.3,3.8c2.8-0.1,4.3-2,4.3-4.4c0.1-5.1,0.2-10.3-0.7-15.3c-1.4-8.3-3.6-16.4-6.2-24.7
			c-2.2,6-4.3,12-6.5,17.9c-2.7,7.4-6.3,14.3-11.4,20.4c-10.5,12.5-26.7,7.6-32.3-3.2c-0.5-0.9-1-1.8-1.7-3
			c-2.2,6.1-5.8,10.6-11.6,13c-5.3,2.2-10.5,1-13.1-4c-2.3-4.5-4.1-9.5-4.6-14.5c-0.8-7.9-0.3-15.8-0.4-23.8c0-2.6,0-5.3-0.4-8
			c-5.4,8.2-10.7,16.5-12.4,26.2c-1.7,9.6-2.2,19.4-3.2,29.6c-3.3-2.1-6.7-4.1-9.9-6.3c-0.5-0.3-0.8-1.3-0.7-1.9
			c0.8-12.2,1.7-24.4,2.6-36.6c1-12.8,2-25.7,3-38.5c1.3-17.2,2.7-34.4,4-51.6c5.1,1,10.7,8.1,10.2,12.8
			c-1.6,15.5-3.4,30.9-4.9,46.4c-1,11.1-1.7,22.3-2.4,33.4c0,0.7,0.1,1.4,0.7,2.3c1.1-2.1,2.2-4.2,3.4-6.3
			c3.4-5.8,6.8-11.7,10.4-17.4c1.1-1.7,2.8-3.9,4.3-4c2.8-0.1,5.9,0.9,8.3,2.3c1,0.6,1.3,3.4,1.2,5.1c-0.7,11.1-1.7,22.2-2.2,33.4
			c-0.2,3.6,0.5,7.3,1.5,10.8c1.1,4,4.2,4.9,7,2c2.8-2.8,4.9-6.4,7.2-9.7c0.3-0.5,0.1-1.5,0-2.2c-1.8-12.4,0-24.1,6.1-35.1
			c2.7-4.9,6.3-9,11.6-11.2c4.4-1.8,8.8-2.4,12.9,0.7c4.1,3.1,4.9,7.7,4.2,12.5c-1.4,10.3-7.6,17.7-15.2,24.1
			c-1.6,1.3-3.2,2.7-5,3.5c-2.5,1.2-3.2,3-2.5,5.4c1,3.5,1.9,7.1,3.6,10.2c2.6,4.7,7.7,6.1,12.2,3.3c3.3-2.1,6.5-5.1,8.6-8.4
			c7.2-11,10.9-23.4,14.1-36c1.4-5.5,2.3-11.1,3.3-16.7C881.2,506.6,887.4,502.7,891.2,504.2z M838.1,547.6
			c6.2-3.2,15.2-19,14.5-25.2c-0.2-2.2-1.7-3.5-3.8-2.3c-1.7,0.9-3.5,2.3-4.5,3.9C839.8,531.1,838.7,539.2,838.1,547.6z"/>
		<path fill-rule="evenodd" clip-rule="evenodd" fill="#FFFFFF" d="M759.2,504c-0.6,4.8-1.2,9.4-1.8,13.9
			c-1.2,9.9,1.3,19.3,3.6,28.8c2.2,8.9,4.2,17.9,5.4,27c0.9,6.5-2,12.1-8,15.3c-6.1,3.2-12.4,3-18.3-0.7c-4.6-2.9-6.5-8.9-4.6-13.9
			c1-2.7,1.9-3.3,5.3-3.1c0,1.3,0,2.7,0,4c0.2,4,2.8,7,6.5,7.6c3.7,0.5,7.6-1.6,8.2-5.6c0.6-4.2,0.5-8.6-0.2-12.7
			c-1.6-10.2-3.7-20.4-6.4-30.8c-0.4,1-0.8,2-1.2,2.9c-3.2,8.2-5.9,16.6-9.8,24.4c-3,5.9-6.9,11.6-11.4,16.5
			c-5.8,6.3-12.1,4.9-15.2-3.1c-1.5-3.9-2.4-8.3-2.7-12.5c-1-13.8,0.5-27.4,3.1-41c0.5-2.4,1.5-3.8,4.3-3.7c2.1,0.1,4.3-0.4,6.4-0.7
			c2.2-0.3,3.1,0.2,2.7,2.7c-1.9,10.4-3.9,20.9-5.2,31.4c-0.8,6.3-0.4,12.8-0.3,19.3c0,1.5,1.4,2.9,2.1,4.4c1.3-0.7,3-1.2,3.9-2.3
			c2-2.4,3.8-4.9,5.3-7.7c9.2-16.7,15.3-34.4,17.6-53.3C749,506.8,754.5,503.1,759.2,504z"/>
		<path fill-rule="evenodd" clip-rule="evenodd" fill="#FFFFFF" d="M716.2,486.6c0-4.5,3.7-9.5,8.9-10.6c4.3-0.9,7.7,1.7,7.9,6
			c0.3,4.3-1.2,8-4,11.2c-2.5,2.9-5.6,3.7-8.6,2.5C717.1,494.3,716.1,491.5,716.2,486.6z"/>
	</g>
	<g>
		<path fill-rule="evenodd" clip-rule="evenodd" fill="#FFFFFF" d="M407,544.7c2.7,1.3,2.1,2.8,1.1,4.2c-1.2,1.5-1.7,2.8,0.1,4.4
			c0.5,0.4,0.3,2.2-0.1,3.1c-4.2,8.4-11,14.4-18.8,19.2c-14.3,8.8-30,12.6-46.7,10.8c-23.4-2.6-39.2-17.1-45.4-40.1
			c-5.8-21.4-0.2-40.1,13.3-56.9c13.7-17.2,31.3-28.1,53.1-31.8c13.8-2.4,27-0.9,38.7,7.6c8.5,6.2,9.6,13.4,3.2,21.8
			c-3.7,4.8-7.6,9.5-11.4,14.2c-2.4,3-4.5,3-6.4-0.4c-1.9-3.5-3.6-7.2-4.6-11.1c-1-3.9,1.5-6.9,4-9.7c2.1-2.3,4.2-4.5,6.7-7.2
			c-6.7-1.9-12.9-1.8-19-0.9c-22.3,3.2-41.5,13-57,29.4c-7.8,8.2-13.2,17.8-13.9,29.5c-0.9,14.5,5.8,24.9,18,31.8
			c28.3,16,63.7,8.9,84-16.5C406.4,545.8,406.7,545.2,407,544.7z"/>
		<path fill-rule="evenodd" clip-rule="evenodd" fill="#FFFFFF" d="M513.3,518.2c7.1,6.6,15.1,6.3,23.1,5.7c4.3-0.3,8.7-0.7,13-1
			c2.5-0.2,4.4,1,4.8,3.2c0.3,1.6-0.5,3.8-1.5,5c-1.2,1.4-3.3,2.1-4.9,3.1c-3.5,2.2-7.2,4.2-10.3,6.8c-8.5,7.1-15.7,15.4-22,24.5
			c-1,1.4-1.7,2.9-2.6,4.4c8.8-1,17.5-2,26.2-3c6.6-0.7,9.1,0.7,11.8,6.8c0.6,1.3,1.8,2.3,2.9,3.7c-3.7,0.4-7.2,0.7-10.7,1.2
			c-8.5,1-17.1,1.9-25.5,3.3c-4.2,0.7-7.2-0.5-9.4-4.1c-10.4,9.4-18.5,2.9-21-6.9c-0.5-1.8-0.9-3.7-1.3-5.7
			c-1.4,2.8-2.7,5.4-4.1,7.9c-0.8,1.4-1.7,2.7-2.7,4c-6.9,9.5-16.2,4.6-19.4-2c-1-2.1-1.7-4.3-2.3-6.1c-2,3-3.8,6.5-6.4,9.4
			c-1.6,1.8-4.2,3.4-6.6,4c-6.8,1.7-11.3-2.5-12.4-10.8c-1.3-9.8,0.6-19.3,2.6-28.8c0.1-0.5,0.2-0.9,0.3-1.4
			c-3.6,0.5-6.9,0.9-9.7,1.3c-2.8,8.6-5.4,17.2-8.5,25.5c-1.8,4.9-4.5,9.4-7,14c-0.5,0.9-1.9,1.7-3.1,1.9c-0.9,0.2-2.1-0.5-3.1-0.9
			c0.3-1,0.5-2.1,1.1-2.9c7.7-11.8,12.4-24.6,14.6-38.4c0.2-1.1-0.2-2.6-0.8-3.5c-3.7-5.6-4.3-11.6-2.6-18c0.3-0.9,0.8-1.8,1.4-2.7
			c1.4-2.2,3.5-3.1,6-2.5c2.7,0.6,3.9,2.6,3.8,5.1c0,3.5-0.4,7.1-0.5,10.6c0,1.1,0.5,2.3,0.7,3.4c1.2-0.3,2.6-0.4,3.6-1.1
			c3.7-2.9,7.3-6.1,11-9.1c1.4-1.1,2.5-3.7,5-1.6c2.6,2.1,3.3,4.6,2.3,7.4c-2.2,6.3-4.6,12.5-6.4,18.9c-1.6,5.5-2.4,11.3-0.9,17
			c0.2,1,0.6,1.9,1,2.8c2,3.9,5,4.5,7.9,1.3c3.3-3.6,5.6-7.7,5.8-12.9c0.5-10.9,2.9-21.4,9.6-30.4c1.9-2.5,4.4-4.8,7.1-6.4
			c7.4-4.3,15.6-0.8,18,7.4c0.5,1.9,1.2,3,3.2,3.4c3,0.7,3.9,2.5,3.7,5.8c-0.8,10-1.2,19.9-1.6,29.9c-0.1,1.1,0.3,2.2,0.5,3.3
			c0.4,2.3,1.1,4.4,3.8,4.9c2.2,0.4,5.2-2,6.5-4c4.1-6.1,8.2-12.2,12.9-17.8c5.6-6.7,11.7-12.8,17.6-19.2c0.3,0.1,0.5,0.3,0.8,0.4
			c-2.2,0.5-4.5,1.2-6.7,1.4c-5,0.6-10,1.5-15,1.5c-6.3,0-9-3.9-7.1-9.9C510.6,524.5,512,521.6,513.3,518.2z M464.7,565.9
			c0.3,1.4,0.5,3.7,1.2,5.9c1.1,3.4,3.3,4.6,6.2,2.6c2.5-1.7,5-4.2,6.4-6.9c5.1-9.8,6.7-20.6,8.1-31.4c0.1-0.9-0.3-2-0.9-2.7
			c-3.5-4.3-7.9-4.3-11.5,0c-1.1,1.3-2,2.8-2.8,4.3C467.1,546.3,465.5,555.5,464.7,565.9z"/>
		<path fill-rule="evenodd" clip-rule="evenodd" fill="#FFFFFF" d="M533,616.9c2.4,5.5,5.7,10,10.8,13c12.9,7.6,27.3,2.8,34.5-11.4
			c4.4-8.7,6.2-18.1,7.3-27.6c0.9-7.7,1.6-15.5,2.4-24.1c-1,1.5-1.5,2.5-2.1,3.2c-3.2,3.7-6.1,7.9-9.9,10.8
			c-5.6,4.3-11.8,1.8-14.1-4.9c-2.9-8.4-2-17-1.4-25.5c0.4-6.2,1.1-12.4,1.7-18.5c-0.3-0.1-0.6-0.3-0.9-0.4c-1,1.1-2.2,2.1-3,3.4
			c-2.3,3.6-4.3,7.3-6.6,10.9c-0.5,0.8-1.6,1.1-2.5,1.7c0-0.9-0.4-2-0.1-2.8c2.2-4.8,4.3-9.6,6.8-14.1c1.7-3.1,4.4-5.3,8.2-5.6
			c3.4-0.3,5.7,1.3,6.2,5.2c0.7,4.9,1.1,9.8,1,14.7c-0.1,6.8-0.9,13.5-1.2,20.3c-0.1,2.6,0,5.3,0.4,7.8c0.6,4,3.4,5,6.4,2.2
			c5.9-5.4,9.8-12.4,10.9-20.1c1.4-9.6,1.4-19.3,1.9-29c0.2-4.1,0.3-4.4,4.4-4c2.6,0.2,5.1,0.7,7.9,1.1c-3.5,16.3-2.5,32.6-3.7,48.7
			c-1.2,16-3.3,31.9-10.3,46.7c-3.9,8.3-9.1,15.6-18,19.2c-12.9,5.3-29.2,0.7-36-9.9c-0.7-1.1-1.2-2.3-1.8-3.5
			C531,621.7,530.5,619.4,533,616.9z"/>
	</g>
	<radialGradient id="SVGID_1_" cx="200.4913" cy="460.9234" r="77.4646" gradientUnits="userSpaceOnUse">
		<stop  offset="0" style="stop-color:#FFFFFF"/>
		<stop  offset="1" style="stop-color:#FFD000"/>
	</radialGradient>
	<circle fill="url(#SVGID_1_)" cx="216.8" cy="475.7" r="59.7"/>
	<g>
		<path fill="#FFFFFF" d="M249.1,521.3c0,0,0.5-0.4,1.4-1.2c0.9-0.8,2.2-2,3.8-3.7c1.6-1.7,3.4-3.9,5.3-6.7
			c1.9-2.8,3.8-6.1,5.5-10.1c1.6-4,3-8.5,3.5-13.6c0.6-5.1,0.3-10.6-0.9-16.4c-0.4-1.4-0.6-2.9-1.1-4.3l-0.3-1.1l-0.2-0.6l-0.1-0.3
			c0,0-0.1-0.2,0,0l-0.1-0.1c-0.3-0.8-0.6-1.5-0.8-2.3c-0.6-1.5-1.1-3.1-1.8-4.6c-0.7-1.4-1.4-2.9-2.1-4.3
			c-3-5.8-7.1-11.5-12.3-16.3c-5.2-4.8-11.6-8.7-18.8-11c-3.6-1.2-7.4-1.8-11.3-2.2c-1-0.1-2,0-2.9-0.1c-1,0-2-0.1-3,0
			c-2,0.2-4,0.2-5.9,0.6c-15.9,2.1-31,13.3-39.7,28.5c-4.2,7.6-6.7,16.4-6.2,25.1c0,1.1,0.2,2.2,0.3,3.3c0.2,1.1,0.3,2.2,0.6,3.2
			l0.4,1.6l0,0.2c-0.1-0.2,0,0.1,0,0.1l0.1,0.4l0.3,0.9l1,3.5c0.4,1.1,0.8,2.1,1.1,3.2l0.6,1.6l0.7,1.6c0.5,1,0.9,2.1,1.4,3.2l1.6,3
			c2.3,4,5,7.6,8.3,10.8c3.2,3.2,7,5.9,11,8.1c4.1,2.2,8.5,4,13.1,5.4c1.1,0.4,2.3,0.7,3.5,1l1.8,0.5l0.4,0.1l0.4,0.1l0.9,0.2
			c1.3,0.3,2.3,0.5,3.5,0.8c1.2,0.2,2.4,0.5,3.6,0.7c9.6,1.7,19.5,2.3,29.6,3.1c2.5,0.2,5.1,0.4,7.7,0.8c1.3,0.2,2.7,0.4,4.2,0.8
			c0.4,0.1,0.8,0.2,1.2,0.4l0.6,0.2c0.2,0.1,0.5,0.2,0.7,0.3c0.2,0.1,0.5,0.2,0.8,0.5c0.3,0.2,0.6,0.4,0.9,0.7
			c0.4,0.4,0.7,0.7,1,1.3c0.2,0.3,0.3,0.6,0.4,0.9c0-0.5,0.4,1.9,0.3,1.7c0,0.1,0.1-0.1-0.1,1c-0.1,0.8-0.7,1.8-0.7,1.8
			c-0.2,0.3-0.4,0.6-0.6,0.8c-0.2,0.2-0.3,0.3-0.5,0.4c-0.6,0.5-1,0.8-1.5,1c-0.8,0.5-1.5,0.8-2.2,1c-1.3,0.5-2.6,1-3.8,1.4
			c-2.5,0.8-4.9,1.5-7.4,2.1c-9.7,2.6-19.3,4.7-28.6,7.2c-2.3,0.6-4.6,1.3-6.8,2c-2.2,0.7-4.4,1.4-6.4,2.3c-0.9,0.4-1.9,0.9-2.1,1.1
			c0,0,0,0,0,0c0.1-0.1,0.1-0.1,0.2-0.3c0.1-0.1,0.1-0.2,0.1-0.4c0-0.1,0.1-0.4,0.1-0.5c0-0.2,0-0.4,0-0.6c-0.1-0.4,0.1,0-0.3-1.1
			l0.1,0.2c0.1,0.2-0.1-0.3-0.3-0.5c-0.1-0.2-0.4-0.5-0.4-0.5c-0.1,0-0.1-0.1-0.2-0.1c-0.1-0.1-0.1-0.1-0.2-0.1c0,0,0,0,0,0
			c0.4,0.1,1.4,0.3,2.4,0.4c1,0.1,2.1,0.1,3.2,0.1c4.5-0.1,9.1-0.5,13.7-1c4.6-0.5,9.1-1,13.6-1.5c4.5-0.5,9-1,13.5-1.4
			c2.3-0.2,4.5-0.4,6.8-0.4c1.2,0,2.3,0,3.6,0.1c0.6,0,1.3,0.1,2,0.2c0.4,0.1,0.8,0.2,1.2,0.3c0.5,0.2,1.1,0.4,1.8,1
			c0.4,0.4,0.8,0.8,1.1,1.6c0.2,0.3,0.3,1.7,0.2,1.2c0,0.1,0-0.1,0,0.6c0,0.4-0.2,0.9-0.3,1.3c-0.1,0.2-0.2,0.4-0.3,0.5
			c-0.2,0.4-0.4,0.5-0.6,0.8c-0.8,0.8-1.3,1.1-1.9,1.5c-1.1,0.7-2.2,1.2-3.2,1.7c-2.1,0.9-4.1,1.7-6.1,2.5c-4,1.5-8,2.8-11.9,4.1
			c-7.8,2.5-15.3,4.9-22.3,7.4c-3.5,1.3-7,2.6-9.9,4.1c-0.7,0.4-1.4,0.8-1.8,1.2c-0.2,0.1-0.3,0.4-0.1,0c0.1-0.2,0.1-0.7-0.1-1
			c0,0,0.1,0.1,0.1,0.1c0-0.1-0.1-0.2-0.2-0.3c-0.1-0.1-0.2-0.2-0.2-0.2c0,0,0,0,0,0c-0.1,0,0.2,0.1,0.5,0.2c0.3,0.1,0.6,0.1,1,0.2
			c0.7,0.1,1.6,0.1,2.4,0.1c3.3,0,6.6-0.3,9.8-0.6c3.2-0.3,6.3-0.7,9.4-1.1c12.2-1.5,22.8-3.1,31.7-3.5c2.3,0,4.4-0.1,6.6,0.4
			c0.6,0.2,1.2,0.3,1.8,1.1c0.2,0.2,0.3,0.4,0.4,0.7c0,0.1,0.1,0.3,0.1,0.2l0,0.1l0,0.2c0,0.2,0,0.6,0,0.9c-0.1,1.3-0.7,2.2-1.3,2.9
			c-1.3,1.5-2.7,2.4-3.9,3.1c-1.3,0.8-2.5,1.4-3.6,1.8c-2.2,1-3.9,1.6-5.1,2c-1.2,0.4-1.8,0.6-1.8,0.6l-0.4-1.1c0,0,0.6-0.2,1.7-0.6
			c1.1-0.5,2.8-1.1,4.9-2.2c1-0.5,2.2-1.2,3.3-1.9c1.2-0.8,2.4-1.7,3.3-2.9c0.4-0.6,0.8-1.3,0.8-1.8c0-0.1-0.1-0.9-0.1-0.6
			c0,0,0,0-0.1,0c0,0-0.1-0.1-0.2-0.1c-0.1-0.1-0.3-0.1-0.5-0.2c-1.6-0.3-3.7-0.2-5.9-0.1c-8.7,0.7-19.2,2.7-31.3,4.7
			c-3,0.5-6.2,1-9.4,1.4c-3.3,0.4-6.6,0.9-10.2,1c-0.9,0-1.8,0-2.8,0c-0.5,0-1-0.1-1.6-0.2c-0.6-0.1-1.2-0.3-2-0.8l-0.3-0.2
			c-0.1,0-0.3-0.3-0.4-0.4c-0.2-0.2-0.3-0.4-0.4-0.6l-0.1-0.2c-0.1-0.2,0.1,0.3-0.2-0.6c0-0.2-0.1-0.4-0.1-0.6c0-0.4,0-0.7,0.1-1.1
			c0.4-1.3,1-1.7,1.4-2.2c0.9-0.8,1.8-1.4,2.6-1.9c3.4-1.9,6.9-3.3,10.4-4.8c7.1-2.8,14.6-5.3,22.2-8.1c3.8-1.4,7.7-2.8,11.5-4.3
			c1.9-0.8,3.8-1.6,5.6-2.4c0.9-0.4,1.8-0.9,2.5-1.3c0.1-0.1,0.3-0.2,0.4-0.3c0.1-0.1,0.2-0.2,0.2-0.2c0,0,0,0-0.1,0.1
			c0,0.1-0.1,0.1-0.1,0.2c-0.1,0.3-0.2,0.6-0.2,0.9c0,0.5,0,0.2,0,0.2c-0.1-0.7,0.1,0.6,0.2,0.8c0.2,0.5,0.4,0.8,0.7,1
			c0.3,0.3,0.4,0.3,0.4,0.3l-0.3-0.1c-0.4,0-0.8-0.1-1.2-0.1c-0.9,0-1.9,0-3,0c-2.1,0.1-4.2,0.3-6.4,0.5c-4.3,0.5-8.8,1-13.3,1.6
			c-4.5,0.6-9.1,1.2-13.7,1.8c-4.7,0.5-9.3,1.1-14.3,1.3c-1.2,0-2.5,0.1-3.8,0c-1.4-0.1-2.7-0.1-4.6-0.7c-0.3-0.1-0.5-0.2-0.8-0.3
			c-0.3-0.2-0.6-0.3-0.9-0.5c-0.2-0.1-0.4-0.3-0.5-0.4c-0.1-0.1-0.5-0.5-0.7-0.8c-0.2-0.2-0.6-0.9-0.5-0.8l-0.1-0.2
			c-0.5-1.2-0.3-0.9-0.4-1.5c0-0.4,0-0.7,0-1.1c0-0.3,0.1-0.7,0.2-1c0.1-0.3,0.2-0.5,0.3-0.8c0.2-0.5,0.5-0.7,0.7-1.1
			c0.2-0.2,0.4-0.5,0.7-0.7c1.6-1.4,2.8-1.9,4.1-2.5c4.9-2.2,9.5-3.5,14.3-4.9c9.5-2.7,19.1-4.9,28.5-7.6c2.4-0.7,4.7-1.3,6.9-2.1
			c1.1-0.4,2.2-0.8,3.2-1.2c0.5-0.2,0.9-0.4,1.2-0.6c0.1-0.1,0.2-0.1,0.1,0c0,0-0.1,0.1-0.1,0.1c-0.1,0.1-0.2,0.2-0.3,0.4
			c0,0-0.5,0.8-0.5,1.4c-0.1,1,0,0.6,0,0.6c0-0.4,0.2,1.9,0.2,1.2c0.1,0.2,0.2,0.4,0.3,0.5c0.2,0.3,0.2,0.4,0.4,0.5
			c0.2,0.1,0.1,0.1,0.2,0.2c0.1,0,0,0,0,0c0,0,0,0-0.1,0l-0.2-0.1c-0.1-0.1-0.4-0.1-0.6-0.2c-0.9-0.2-2-0.4-3.2-0.6
			c-2.3-0.3-4.8-0.5-7.2-0.6c-9.9-0.6-20.2-1.2-30.4-3c-1.3-0.2-2.6-0.5-3.8-0.7c-1.3-0.3-2.7-0.6-3.8-0.8l-0.9-0.2l-1-0.3l-1.9-0.5
			c-1.3-0.3-2.5-0.7-3.8-1.1c-5-1.6-10-3.5-14.7-6c-4.7-2.6-9.2-5.8-13.1-9.6c-3.9-3.8-7.2-8.2-9.9-12.8l-1.9-3.5
			c-0.6-1.2-1.1-2.4-1.6-3.6l-0.8-1.8l-0.7-1.9c-0.4-1.2-0.9-2.5-1.3-3.7l-1-3.5l-0.3-0.9l-0.1-0.4l-0.1-0.4l-0.1-0.2l-0.4-2
			c-0.3-1.3-0.5-2.6-0.7-4c-0.1-1.3-0.3-2.7-0.3-4c-0.6-10.7,2.5-21.2,7.5-30c5-8.8,12-16.2,19.9-21.8c4-2.8,8.2-5.1,12.7-6.9
			c1.1-0.4,2.4-0.9,3.4-1.2l0.8-0.2l0.4-0.1l0.2-0.1c0,0,0.3-0.1,0.3-0.1l1.7-0.4c1.1-0.3,2.3-0.5,3.4-0.8c1.2-0.2,2.3-0.3,3.5-0.5
			c2.3-0.4,4.6-0.4,6.9-0.6c1.1-0.1,2.3,0,3.4,0.1c1.1,0.1,2.3,0.1,3.4,0.2c4.5,0.6,8.9,1.4,12.9,2.9c8.2,2.9,15.4,7.6,21.1,13.2
			c5.7,5.7,9.8,12.2,12.9,18.7c0.7,1.7,1.4,3.3,2.1,5c0.6,1.6,1.1,3.2,1.6,4.7c0.3,0.8,0.5,1.5,0.8,2.3l0,0.1c0.1,0.3,0,0.2,0.1,0.3
			l0.1,0.3l0.2,0.6l0.3,1.2c0.4,1.6,0.7,3.2,1,4.8c1,6.3,0.9,12.4,0,17.8c-0.9,5.5-2.7,10.3-4.6,14.3c-4.1,8.2-9,13.4-12.4,16.7
			c-1.8,1.6-3.2,2.8-4.2,3.5c-1,0.7-1.5,1.1-1.5,1.1L249.1,521.3z"/>
	</g>
	<path fill="#FFFFFF" d="M108.5,453.3l27.1,9.1c1.7,0.6,2.6,2.4,2,4.1c-0.4,1.3-1.7,2.2-3,2.2l-28.6,0.7c-4.6,0.1-8.3-3.5-8.4-8
		c-0.1-4.6,3.5-8.3,8-8.4C106.6,452.9,107.6,453,108.5,453.3z"/>
	<path fill="#FFFFFF" d="M156.7,384.3l13.8,21.9c1.2,1.9,0.6,4.5-1.3,5.7c-1.6,1-3.5,0.8-4.9-0.3L144.5,395c-3.5-2.9-4-8.1-1.1-11.6
		c2.9-3.5,8.1-4,11.6-1.1C155.7,382.9,156.3,383.6,156.7,384.3z"/>
	<path fill="#FFFFFF" d="M234.2,376.1l-7.8,21.3c-0.8,2.2-3.3,3.3-5.5,2.5c-1.7-0.6-2.8-2.3-2.8-4l0.1-22.7c0-4.6,3.7-8.2,8.3-8.2
		c4.6,0,8.2,3.7,8.2,8.3C234.7,374.2,234.5,375.2,234.2,376.1z"/>
	<path fill="#FFFFFF" d="M306.8,421.5l-26.5,11.1c-1.8,0.7-3.8-0.1-4.5-1.9c-0.6-1.4-0.2-3,0.9-3.9l21.5-19.1
		c3.4-3,8.6-2.7,11.6,0.7c3,3.4,2.7,8.6-0.7,11.6C308.5,420.7,307.7,421.2,306.8,421.5z"/>
</g>
</svg>
