<?xml version="1.0" encoding="utf-8"?>
<!-- Generator: Adobe Illustrator 17.1.0, SVG Export Plug-In . SVG Version: 6.00 Build 0)  -->
<!DOCTYPE svg PUBLIC "-//W3C//DTD SVG 1.1//EN" "http://www.w3.org/Graphics/SVG/1.1/DTD/svg11.dtd">
<svg version="1.1" id="Layer_1" xmlns="http://www.w3.org/2000/svg" xmlns:xlink="http://www.w3.org/1999/xlink" x="0px" y="0px"
	 width="1000px" height="1000px" viewBox="0 0 1000 1000" enable-background="new 0 0 1000 1000" xml:space="preserve">
<linearGradient id="SVGID_1_" gradientUnits="userSpaceOnUse" x1="124.2628" y1="137.7855" x2="902.2628" y2="887.7855" gradientTransform="matrix(1 0 0 -1 0 1000)">
	<stop  offset="0" style="stop-color:#5EB030"/>
	<stop  offset="1" style="stop-color:#AFCB41"/>
</linearGradient>
<rect y="0.8" fill="url(#SVGID_1_)" width="1000" height="998.4"/>
<g>
	<g>
		<path fill="#FFFFFF" d="M391.3,659.9v4.1c0,4.9-2.5,7.7-7.2,7.7s-7.2-2.8-7.2-7.7v-16c0-4.9,2.5-7.7,7.2-7.7s7.2,2.8,7.2,7.7v3
			h-4.6v-3.3c0-2.2-1-3-2.5-3s-2.5,0.8-2.5,3v16.6c0,2.2,1,3,2.5,3s2.5-0.8,2.5-3v-4.4L391.3,659.9L391.3,659.9z"/>
		<path fill="#FFFFFF" d="M418.7,671.3h-4.9l-0.8-5.6h-6l-0.8,5.6h-4.4l4.9-30.8h7.1L418.7,671.3z M407.6,661.6h4.7L410,646
			L407.6,661.6z"/>
		<path fill="#FFFFFF" d="M428.3,667c2.2,0,2.9-0.3,3-3.2l0.8-23.3h13.7v30.8h-4.9V645h-4.2l-0.5,18.6c-0.2,5.6-2.2,7.8-7,7.8h-0.7
			V667H428.3z"/>
		<path fill="#FFFFFF" d="M457.9,647.9c0-4.9,2.6-7.7,7.3-7.7c4.8,0,7.3,2.8,7.3,7.7v16c0,4.9-2.6,7.7-7.3,7.7
			c-4.8,0-7.3-2.8-7.3-7.7V647.9z M462.7,664.3c0,2.2,1,3,2.5,3s2.5-0.8,2.5-3v-16.6c0-2.2-1-3-2.5-3s-2.5,0.8-2.5,3V664.3z"/>
		<path fill="#FFFFFF" d="M489.3,671.3h-4.8v-30.8h4.8v13.2h5.5v-13.2h4.9v30.8h-4.9v-13.2h-5.5V671.3z"/>
		<path fill="#FFFFFF" d="M527.7,640.6h4.8V667h5.5v-26.4h4.9V667h2.1v8.4h-4.7v-4.1h-12.7v-30.7H527.7z"/>
		<path fill="#FFFFFF" d="M570.9,647.6v1.1c0,3.2-1,5.2-3.1,6.2c2.6,1,3.6,3.3,3.6,6.6v2.5c0,4.8-2.5,7.3-7.3,7.3h-7.6v-30.8h7.3
			C568.8,640.6,570.9,642.9,570.9,647.6z M561.3,645v8.1h1.9c1.8,0,2.9-0.8,2.9-3.3v-1.7c0-2.2-0.7-3.2-2.5-3.2h-2.3V645z
			 M561.3,657.5v9.5h2.8c1.6,0,2.5-0.7,2.5-3v-2.7c0-2.9-0.9-3.7-3.1-3.7L561.3,657.5L561.3,657.5z"/>
		<path fill="#FFFFFF" d="M587.9,653.5h6.6v4.4h-6.6v9h8.4v4.4h-13.2v-30.8h13.2v4.4h-8.4V653.5z"/>
		<path fill="#FFFFFF" d="M606.7,640.6h15v4.4h-5.1v26.4h-4.8V645h-5.1L606.7,640.6L606.7,640.6z"/>
		<path fill="#FFFFFF" d="M632.1,647.9c0-4.9,2.6-7.7,7.3-7.7s7.3,2.8,7.3,7.7v16c0,4.9-2.6,7.7-7.3,7.7s-7.3-2.8-7.3-7.7V647.9z
			 M637,664.3c0,2.2,1,3,2.5,3s2.5-0.8,2.5-3v-16.6c0-2.2-1-3-2.5-3s-2.5,0.8-2.5,3V664.3z"/>
		<path fill="#FFFFFF" d="M673.2,647.6v1.1c0,3.2-1,5.2-3.1,6.2c2.6,1,3.6,3.3,3.6,6.6v2.5c0,4.8-2.5,7.3-7.3,7.3h-7.6v-30.8h7.3
			C671,640.6,673.2,642.9,673.2,647.6z M663.6,645v8.1h1.9c1.8,0,2.9-0.8,2.9-3.3v-1.7c0-2.2-0.7-3.2-2.5-3.2h-2.3V645z
			 M663.6,657.5v9.5h2.8c1.6,0,2.5-0.7,2.5-3v-2.7c0-2.9-0.9-3.7-3.1-3.7L663.6,657.5L663.6,657.5z"/>
	</g>
	<path fill="#FFFFFF" d="M745.6,392.6l-11.2,54l-5.6,27l-1.4,6.7c-0.3,1.9-0.6,3.9-0.7,5.9c-0.3,3.9,0,7.9,0.9,11.4
		c0.8,3.5,2.4,6.4,4.2,7.8c1.8,1.5,4.1,2.2,7.3,2c0.7-0.2,2.3-0.5,3.8-1.3c1.6-0.7,3.1-1.8,4.6-2.7c1.4-1.3,3-2.3,4.2-3.8l2-2.1
		c0.6-0.7,1.2-1.6,1.8-2.3c4.7-6.3,7.8-14,9.9-22c0.7-4.2,1.8-8.2,1.9-12.5c0.2-2.1,0.4-4.2,0.5-6.4v-6.5
		c-0.2-17.3-3.7-35.1-8.4-52.1c-4.9-16.8-12.6-32.8-22.1-47.6l-3.7-5.5c-1.2-1.8-2.4-3.7-3.8-5.4c-2.7-3.5-5.4-7-8.2-10.4l-8.9-9.8
		c-3-3.2-6.4-6.1-9.5-9.2c-1.6-1.5-3.1-3.1-4.9-4.5l-5.1-4.2c-3.5-2.8-6.7-5.7-10.5-8.1l-10.9-7.6l-11.5-6.8
		c-1.9-1.1-3.8-2.3-5.8-3.3l-6-2.9c-4-1.9-8-4-12-5.8l-12.4-4.9c-2.1-0.8-4.1-1.7-6.2-2.4l-6.4-2l-12.8-4c-4.3-1.2-8.7-2.1-13-3.2
		l-6.5-1.5c-2.2-0.5-4.3-1.1-6.6-1.4l-13.3-2.1c-35.2-5.8-71.4-4.1-105.8,4.6c-34.4,8.8-67,24.7-95.1,46.4
		c-28.1,21.8-51.7,49.2-68.9,80.2c-17.2,31-27.9,65.6-31.4,101s0.3,71.4,11.2,105.2c10.8,33.9,28.7,65.4,52.1,92.2
		s52.3,48.8,84.5,64.1c64.3,30.8,141.3,33.6,208.2,8c16.7-6.4,32.8-14.5,48.1-23.9c15.2-9.5,29.5-20.6,42.8-32.9
		c6.5-6.3,13-12.6,18.8-19.6c6.1-6.7,11.7-13.9,17.1-21.3c10.6-14.8,19.9-30.7,27.7-47.4c-5.8,17.5-13.5,34.5-23.1,50.5
		c-4.9,7.9-10,15.7-15.7,23.2c-5.6,7.5-11.8,14.5-18.1,21.4c-12.8,13.7-27.3,25.9-42.7,36.7c-15.5,10.7-32.2,19.7-49.7,27
		c-34.9,14.6-73.1,21.3-111,20.3c-37.9-1.1-75.7-10-110.1-26.2c-34.4-16.1-65.5-39.4-90.6-67.9c-25.2-28.5-44.6-62.1-56.3-98.4
		c-11.8-36.2-15.9-74.9-12.2-112.8c3.6-37.9,15-75.1,33.5-108.5c18.4-33.4,43.8-62.9,74-86.1s65.2-40.2,102.2-49.4
		c36.9-9.3,75.9-10.9,113.2-4.6l14,2.3c2.3,0.3,4.6,0.9,6.9,1.5l6.9,1.6c4.6,1.1,9.2,2.1,13.8,3.4l13.6,4.3l6.8,2.1
		c2.2,0.8,4.4,1.7,6.6,2.6l13.2,5.3c4.3,1.9,8.6,4.1,12.8,6.2l6.4,3.1c2.1,1.1,4.1,2.4,6.2,3.6c4.1,2.4,8.2,4.8,12.3,7.3l11.7,8.2
		c4,2.6,7.6,5.8,11.3,8.8l5.5,4.6c1.9,1.5,3.5,3.3,5.3,4.9c3.4,3.4,7,6.5,10.3,10l9.6,10.7c3,3.7,5.9,7.6,8.8,11.4
		c1.5,1.9,2.8,3.9,4.1,5.9l3.9,6c10.2,16.2,18.4,33.8,23.7,52.4c4.9,18.4,8.4,37.1,8.5,56.7l-0.1,7.3c-0.1,2.4-0.4,4.9-0.7,7.4
		c-0.3,4.9-1.5,9.8-2.5,14.7c-2.6,9.7-6.5,19.4-13,27.8c-0.8,1-1.6,2.1-2.5,3.1l-2.8,2.9c-1.8,2-4.1,3.6-6.1,5.3
		c-2.3,1.5-4.6,3.1-7.3,4.2c-1.2,0.7-2.7,1.2-4.2,1.6c-1.3,0.5-3.3,0.8-5.1,1.1c-1.6,0-3.1,0-4.6,0c-1.6-0.3-3.2-0.5-4.8-0.9
		c-3.2-1-6.4-2.5-8.9-4.8c-2.6-2.2-4.5-4.9-6-7.6c-1.4-2.7-2.4-5.5-3-8.2c-1.3-5.5-1.5-10.8-1.1-16.1c0.2-2.6,0.6-5.2,1.1-7.8
		l1.5-6.7l6.1-27l12.1-53.9c0.8-3.6,4.4-5.9,8.1-5.1C744.1,385.4,746.3,389,745.6,392.6L745.6,392.6z"/>
	
		<linearGradient id="SVGID_2_" gradientUnits="userSpaceOnUse" x1="264.9844" y1="554.757" x2="282.3766" y2="614.4958" gradientTransform="matrix(1 0 0 -1 0 1000)">
		<stop  offset="0.2961" style="stop-color:#1D1D1B"/>
		<stop  offset="1" style="stop-color:#1D1D1B;stop-opacity:0"/>
	</linearGradient>
	<path opacity="0.25" fill="url(#SVGID_2_)" enable-background="new    " d="M303.7,319.9c-11.8,13.9-22.2,28.9-31,44.9
		c-3.6,6.2-6.6,12.7-9.7,19.1c-2.8,6.6-5.7,13.1-8.1,19.9c-1.5,4-2.8,8-4.1,12.1l19.2,2.7c0.9-2.8,1.9-5.5,2.9-8.2
		c2.2-6.3,4.9-12.4,7.5-18.5c2.9-6,5.7-12,9.1-17.8c9-16.3,19.9-31.6,32.2-45.6C314.4,328.3,307.6,325.5,303.7,319.9z"/>
	
		<linearGradient id="SVGID_3_" gradientUnits="userSpaceOnUse" x1="269.161" y1="601.0762" x2="253.1445" y2="541.8337" gradientTransform="matrix(1 0 0 -1 0 1000)">
		<stop  offset="0" style="stop-color:#1D1D1B"/>
		<stop  offset="1" style="stop-color:#1D1D1B;stop-opacity:0"/>
	</linearGradient>
	<path opacity="0.25" fill="url(#SVGID_3_)" enable-background="new    " d="M243.4,445l-1.1,5.2l-0.8,5.3l-0.8,5.3l-0.4,2.6
		l-0.2,1.6l-0.1,1.3l-1,10.2c-0.4,3.4-0.4,7.1-0.7,10.7l-0.3,5.4c0,0.8,0,1.6,0,2.5c1.9-0.9,4-1.5,6.3-1.8c4.1-0.5,8.7,0.5,12.6,2.7
		c0-0.9,0-1.9,0-2.8l0.3-4.9c0.2-3.3,0.2-6.4,0.6-9.8l1.1-10.2l0.1-1.3l0.2-1l0.4-2.5l0.8-4.9l0.8-4.9l1-4.9c2-10.2,4.7-20.2,8-30.1
		L251,416C247.8,425.5,245.2,435.2,243.4,445z"/>
	<g>
		<path fill="#FFFFFF" d="M439.6,596.9c-13.1,0-22.8-3.7-29.1-11c-7.2-8.4-9.2-20.8-6-37c2.4-12.2,6.5-31.9,10.8-52.8
			c3.5-17,7.2-34.6,10.1-49.1c6-29.8,6.9-50.1,5.6-59.2c-0.9-6.6-4.8-17.5-20.8-17.5c-0.1,0-0.3,0-0.4,0
			c-14.4,0.2-30.5,14.9-46.5,42.6c-4.3,7.5-10.9,19.8-18.2,33.7c-5.2,27.9-10,54-11.9,65.2c-5.3,31.2-14.2,66.6-36.1,64.4
			c-7.7-0.8-11.5-5-13.3-8.4c-6.8-12.6,2.1-35.5,10.8-52.5l5.1-10c7.9-15.5,20.9-41,32.5-63.2c3-16.2,6.1-32.8,8.9-47.5
			c1-5.2,1.9-10.1,2.7-14.6c-23.1,21-61,49.6-86.4,46.2c-16.9-2.3-29.9-10.4-36.5-22.9c-5.5-10.4-9-29,5.6-58.2
			c1.7-3.3,5.7-4.7,9.1-3c3.3,1.7,4.7,5.7,3,9.1c-9.5,19-11.5,34.9-5.7,45.8c6.1,11.5,19.1,14.8,26.3,15.8
			c21.5,2.9,66.2-31.3,90.2-57.1l15.8-17l-4.2,22.9c-1.4,7.5-3.8,20.3-6.7,35.6c-0.4,2.1-0.8,4.2-1.2,6.3
			c18.3-30.7,37.2-46.3,56.4-46.5c22.7-0.2,32.8,14.9,34.8,29.2c0.7,5,2.2,24.2-5.8,63.7c-2.9,14.5-6.6,32.2-10.1,49.2
			c-4.3,20.9-8.4,40.6-10.8,52.7c-1.6,8.2-2.4,19.3,3,25.6c3.9,4.6,11.1,6.7,21.3,6.3c18.6-0.8,36.5-11.7,36.7-11.8
			c3.2-2,7.3-1,9.3,2.2s1,7.3-2.2,9.3c-0.8,0.5-21,12.9-43.2,13.8C441.6,596.9,440.6,596.9,439.6,596.9z M323.8,488
			c-4.5,8.9-8.7,17-11.9,23.3l-5.1,10.1c-10.9,21.3-13.3,35.6-11,39.9c0.2,0.4,0.6,1.2,2.8,1.4c2.8,0.3,12.8-2.7,21.4-53.2
			C320.7,504.6,322.1,497.1,323.8,488z"/>
	</g>
	
		<linearGradient id="SVGID_4_" gradientUnits="userSpaceOnUse" x1="-65.5144" y1="-829.4318" x2="-78.359" y2="-818.6152" gradientTransform="matrix(0.9918 0.1276 0.1276 -0.9918 523.7964 -400.7586)">
		<stop  offset="0.2961" style="stop-color:#1D1D1B"/>
		<stop  offset="1" style="stop-color:#1D1D1B;stop-opacity:0"/>
	</linearGradient>
	<path opacity="0.25" fill="url(#SVGID_4_)" enable-background="new    " d="M344.5,377c-0.2,1.1-0.5,2.2-0.8,3.1
		c0.1-0.1,0.1-0.1,0.2-0.2c-3.9,20.7-7.7,41.3-11.6,62c2.4-4.5,4.7-9,7.1-13.5c4.5-8.4,9-17.1,13.9-25.5c2.1-11.1,4.1-22.1,6.2-33.2
		C355.8,374.5,350.4,377.6,344.5,377z"/>
	
		<linearGradient id="SVGID_5_" gradientUnits="userSpaceOnUse" x1="-89.9321" y1="-902.5014" x2="-74.6087" y2="-911.5152" gradientTransform="matrix(0.9918 0.1276 0.1276 -0.9918 523.7964 -400.7586)">
		<stop  offset="0" style="stop-color:#1D1D1B"/>
		<stop  offset="1" style="stop-color:#1D1D1B;stop-opacity:0"/>
	</linearGradient>
	<path opacity="0.25" fill="url(#SVGID_5_)" enable-background="new    " d="M329.8,531c1.5-7.1,2.6-14.3,3.8-21
		c2.5-14.6,5.2-29.1,7.9-43.7c1.2-6.7,2.5-13.3,3.7-20c-7.2,13.8-14.3,27.6-21.4,41.5c-0.7,3.8-1.4,7.7-2.1,11.5
		c-1.9,10.4-3.6,20.8-6,31.1c-0.4,1.7-0.8,3.4-1.3,5.1C319.4,533.5,324.6,532.1,329.8,531z"/>
	<g>
		<path fill="#FFFFFF" d="M531.2,541.3c-4.1,0-8.1-1.2-11.7-3.5c-15.8-10.2-12.5-44.4-11.7-51.2c0.4-3.7,3.8-6.3,7.5-5.9
			s6.4,3.8,5.9,7.5c-1.5,13-0.8,34.1,5.6,38.2c2.2,1.4,4.4,1.7,6.8,1c6.1-1.9,12.5-10.2,17.7-22.7c1.4-3.5,5.4-5.1,8.8-3.7
			c3.5,1.4,5.1,5.4,3.7,8.8c-8.7,21.1-19,28.2-26.1,30.4C535.5,540.9,533.3,541.3,531.2,541.3z"/>
	</g>
	
		<linearGradient id="SVGID_6_" gradientUnits="userSpaceOnUse" x1="516.0343" y1="493.2448" x2="531.1324" y2="482.879" gradientTransform="matrix(1 0 0 -1 0 1000)">
		<stop  offset="0" style="stop-color:#1D1D1B"/>
		<stop  offset="1" style="stop-color:#1D1D1B;stop-opacity:0"/>
	</linearGradient>
	<path opacity="0.25" fill="url(#SVGID_6_)" enable-background="new    " d="M545.9,520.7c-0.3-1.3-0.5-2.7-0.8-4
		c-3.7,5.7-7.7,9.5-11.5,10.7c-2.4,0.8-4.6,0.4-6.8-1c-6.2-4-7.1-23.8-5.8-36.8c0.8-6-0.3-10.7-1.6-7.6c-2.4,5.5-7.1,27.9-9.5,33.4
		c-0.4,0.9-0.9,1.8-1.4,2.6c1.6,8.2,4.9,15.8,11,19.8c3.6,2.3,7.6,3.5,11.7,3.5c2.2,0,4.3-0.3,6.5-1c3.7-1.2,8.3-3.7,13-8.8
		C548.1,528.5,546.8,524.9,545.9,520.7z"/>
	<g>
		<path fill="#FFFFFF" d="M471.5,553.4c-1.3,0-2.5-0.1-3.7-0.3c-7-1.1-12.7-4.6-16.6-10.2c-5.9-8.4-7.6-21.1-4.7-36
			c3.5-18.1,18.6-79.4,19.2-82c0.9-3.6,4.6-5.8,8.2-4.9s5.8,4.6,4.9,8.2c-0.2,0.6-15.7,63.5-19.1,81.3c-2.1,10.9-1.1,20.4,2.5,25.6
			c1.8,2.6,4.3,4.1,7.6,4.6c11,1.7,27.6-13.8,33.5-37.1c6.4-25.4,20.5-87.3,20.6-88c0.8-3.6,4.4-5.9,8.1-5.1
			c3.6,0.8,5.9,4.4,5.1,8.1c-0.1,0.6-14.3,62.7-20.7,88.3C509.6,533.2,490,553.4,471.5,553.4z"/>
	</g>
	
		<linearGradient id="SVGID_7_" gradientUnits="userSpaceOnUse" x1="550.6514" y1="498.4734" x2="533.0745" y2="491.037" gradientTransform="matrix(1 0 0 -1 0 1000)">
		<stop  offset="0" style="stop-color:#1D1D1B"/>
		<stop  offset="1" style="stop-color:#1D1D1B;stop-opacity:0"/>
	</linearGradient>
	<path opacity="0.25" fill="url(#SVGID_7_)" enable-background="new    " d="M560.1,501c-3.4-1.4-7.4,0.2-8.8,3.7
		c-5.2,12.5-11.6,20.8-17.7,22.7c-2.4,0.8-4.6,0.4-6.8-1c-6.2-4-7.1-23.8-5.8-36.8c0.8-6-0.3-10.7-1.6-7.6
		c-2.4,5.5-7.1,27.9-9.5,33.4c-0.4,0.9-0.9,1.8-1.4,2.6c1.6,8.2,4.9,15.8,11,19.8c3.6,2.3,7.6,3.5,11.7,3.5c2.2,0,4.3-0.3,6.5-1
		c7.1-2.2,17.4-9.3,26.1-30.5C565.2,506.4,563.6,502.4,560.1,501z"/>
	<g>
		<path fill="#FFFFFF" d="M578.5,539c-0.9,0-1.9-0.1-2.8-0.2c-6.9-0.8-12.9-4.3-17.2-10c-4.4-5.7-9.2-16.3-6.7-34.4
			c4.9-36.7,16.1-63.8,33.3-80.5c9.3-9.1,21.5-12.1,32.5-8.2c10.6,3.8,18.1,13.4,19.4,25.1c2.4,21.6-5.4,50.6-13.7,68.4
			C615.5,515.8,597.6,539,578.5,539z M607.8,417.6c-4.6,0-9.3,2.1-13.3,6l0,0c-15,14.6-24.8,39-29.3,72.6c-1.4,10.5,0,19.1,4,24.3
			c2.2,2.8,4.9,4.4,8.2,4.8c9.4,1.2,25.1-13.7,33.6-31.8c7.7-16.6,14.5-43,12.5-61.2c-0.7-6.5-4.7-11.8-10.5-13.9
			C611.3,417.9,609.5,417.6,607.8,417.6z M589.7,418.8L589.7,418.8L589.7,418.8z"/>
	</g>
	<g>
		<path fill="#FFFFFF" d="M633.3,521.2c-1.5,0-3-0.1-4.5-0.3c-12.8-1.8-23.1-11.4-26.2-24.5c-0.9-3.6,1.4-7.3,5-8.1
			c3.6-0.9,7.3,1.4,8.1,5c1.9,7.8,7.6,13.2,15,14.3c9.5,1.3,19.3-5,26.1-17.1c1.8-3.2,6-4.4,9.2-2.6s4.4,6,2.6,9.2
			C659.9,512.4,646.9,521.2,633.3,521.2z"/>
	</g>
	<g>
		<path fill="#FFFFFF" d="M658.9,467.9c-3.3,0-6.3-2.5-6.7-5.9c-0.5-3.7,2.1-7.1,5.8-7.6l78-10.1c3.7-0.5,7.1,2.1,7.6,5.8
			c0.5,3.7-2.1,7.1-5.8,7.6l-78,10.1C659.5,467.9,659.2,467.9,658.9,467.9z"/>
	</g>
	
		<linearGradient id="SVGID_8_" gradientUnits="userSpaceOnUse" x1="665.7239" y1="539.1697" x2="658.9636" y2="540.3528" gradientTransform="matrix(1 0 0 -1 0 1000)">
		<stop  offset="0" style="stop-color:#1D1D1B"/>
		<stop  offset="1" style="stop-color:#1D1D1B;stop-opacity:0"/>
	</linearGradient>
	<path opacity="0.25" fill="url(#SVGID_8_)" enable-background="new    " d="M668.8,453l-10.8,1.4c-3.7,0.5-6.3,3.9-5.8,7.6
		c0.4,3.4,3.3,5.9,6.7,5.9c0.3,0,0.6,0,0.9-0.1l8.6-1.1C667.2,462.3,667.3,457.4,668.8,453z"/>
	
		<linearGradient id="SVGID_9_" gradientUnits="userSpaceOnUse" x1="725.7892" y1="547.6401" x2="730.9721" y2="572.2028" gradientTransform="matrix(1 0 0 -1 0 1000)">
		<stop  offset="0" style="stop-color:#1D1D1B"/>
		<stop  offset="1" style="stop-color:#1D1D1B;stop-opacity:0"/>
	</linearGradient>
	<path opacity="0.25" fill="url(#SVGID_9_)" enable-background="new    " d="M745.6,392.6c0.7-3.6-1.5-7.2-5.1-8s-7.3,1.5-8.1,5.1
		v0.1c0,0-5,22.2-13.8,61.5l15.1-1.3C741.3,413.2,745.6,392.6,745.6,392.6z"/>
	
		<linearGradient id="SVGID_10_" gradientUnits="userSpaceOnUse" x1="732.5878" y1="543.7822" x2="727.1795" y2="516.9661" gradientTransform="matrix(1 0 0 -1 0 1000)">
		<stop  offset="0" style="stop-color:#1D1D1B"/>
		<stop  offset="1" style="stop-color:#1D1D1B;stop-opacity:0"/>
	</linearGradient>
	<path opacity="0.25" fill="url(#SVGID_10_)" enable-background="new    " d="M735.8,507.2c-0.3,0-0.6-0.1-0.8-0.1
		c-0.2-0.1-0.5-0.2-0.7-0.3l-0.7-0.2c-0.2-0.1-0.4-0.3-0.6-0.4c-1.6-0.9-3-2.5-4.1-4.8c-2.2-4.6-2.6-11-2.1-16.5
		c0.1-0.7,0.1-1.2,0.2-2c0.1-0.8,0.3-1.6,0.4-2.4c0.3-1.5,0.6-3,0.9-4.5c0.6-3.1,1.3-6.1,1.9-9.1c1.2-6,2.4-11.6,3.5-17l-15.1,1.3
		c-0.9,4-1.8,8.2-2.8,12.6c-0.7,2.9-1.3,6-2,9.1c-0.4,1.6-0.7,3.3-1.1,5c-0.1,0.8-0.3,1.6-0.4,2.4c-0.1,0.8-0.3,1.9-0.4,2.9
		c-0.7,7.7-0.6,15.8,3.2,24.5c1.9,4.3,5.2,8.8,10.2,11.7l0.1,0.1c4.7-3.7,8.9-7.5,12.4-12.2h-0.1
		C736.9,507.4,736.3,507.3,735.8,507.2z"/>
	<path fill="#FFFFFF" d="M743.6,450.2c-0.5-3.7-3.9-6.3-7.6-5.8l-23.8,3.1c0.9,2.8,1.2,5.8,0.7,9.1c-0.2,1.6-0.7,3.1-1.3,4.6
		l26.1-3.4C741.5,457.3,744.1,453.9,743.6,450.2z"/>
	<g>
		<path fill="#FFFFFF" d="M655.6,533.7c-0.5,0-0.9,0-1.4-0.2c-3.7-0.8-6-4.4-5.2-8l27.6-129c0.8-3.7,4.4-6,8-5.2
			c3.7,0.8,6,4.4,5.2,8l-27.6,129C661.5,531.6,658.7,533.7,655.6,533.7z"/>
	</g>
	
		<linearGradient id="SVGID_11_" gradientUnits="userSpaceOnUse" x1="613.1053" y1="500.735" x2="599.5846" y2="479.5525" gradientTransform="matrix(1 0 0 -1 0 1000)">
		<stop  offset="0" style="stop-color:#1D1D1B"/>
		<stop  offset="1" style="stop-color:#1D1D1B;stop-opacity:0"/>
	</linearGradient>
	<path opacity="0.25" fill="url(#SVGID_11_)" enable-background="new    " d="M607.5,500c-5.7,9.7-13.2,18-20.1,22.3
		c2.8,2.8,4.7,6.5,5.2,11.2c0.1,0.4,0.1,0.9,0.1,1.3c9.1-5.1,17.7-14.2,24.3-24.4C612.9,508.1,609.4,504.4,607.5,500z"/>
	
		<linearGradient id="SVGID_12_" gradientUnits="userSpaceOnUse" x1="614.7699" y1="498.4197" x2="620.6288" y2="513.7431" gradientTransform="matrix(1 0 0 -1 0 1000)">
		<stop  offset="0" style="stop-color:#1D1D1B"/>
		<stop  offset="1" style="stop-color:#1D1D1B;stop-opacity:0"/>
	</linearGradient>
	<path opacity="0.25" fill="url(#SVGID_12_)" enable-background="new    " d="M625.9,470.5c-2.3-0.3-4.4-1-6.3-1.9
		c-2.3,9.2-5.4,17.9-8.7,25c-0.6,1.3-1.3,2.6-2,3.8c1.6,0.7,3.1,1.5,4.4,2.6c2.5,2,4.4,4.4,5.7,7.1c1.5-2.6,2.9-5.2,4.1-7.8
		c3.7-8,7.4-18.4,10-29.3C630.8,470.6,628.3,470.8,625.9,470.5z"/>
	
		<linearGradient id="SVGID_13_" gradientUnits="userSpaceOnUse" x1="661.2767" y1="502.6453" x2="657.2205" y2="478.4771" gradientTransform="matrix(1 0 0 -1 0 1000)">
		<stop  offset="0" style="stop-color:#1D1D1B"/>
		<stop  offset="1" style="stop-color:#1D1D1B;stop-opacity:0"/>
	</linearGradient>
	<path opacity="0.25" fill="url(#SVGID_13_)" enable-background="new    " d="M666.8,491.1c-3.5,0.8-7.1,0.7-10.5-0.1l-7.4,34.6
		c-0.8,3.7,1.5,7.2,5.2,8c0.5,0.1,1,0.2,1.4,0.2c3.1,0,5.9-2.2,6.6-5.3l7.3-34C668.5,493.4,667.6,492.3,666.8,491.1z"/>
	
		<linearGradient id="SVGID_14_" gradientUnits="userSpaceOnUse" x1="663.2322" y1="509.082" x2="665.2603" y2="518.4338" gradientTransform="matrix(1 0 0 -1 0 1000)">
		<stop  offset="0" style="stop-color:#1D1D1B"/>
		<stop  offset="1" style="stop-color:#1D1D1B;stop-opacity:0"/>
	</linearGradient>
	<path opacity="0.25" fill="url(#SVGID_14_)" enable-background="new    " d="M660.1,473.2l-5.4,25.4c4.5-1.6,10.1-5.1,14.6-3.5
		l4.4-20.3C669.5,475.7,660.5,473.4,660.1,473.2z"/>
	<path fill="#FFFFFF" d="M633.3,521.2c-1.5,0-3-0.1-4.5-0.3c-12.8-1.8-23.1-11.4-26.2-24.5c-0.9-3.6,1.4-7.3,5-8.1
		c3.6-0.9,7.3,1.4,8.1,5c1.9,7.8,7.6,13.2,15,14.3c9.6,1.4,19.3-5,26.1-17.1c1.8-3.3,6-4.4,9.2-2.6c3.3,1.8,4.4,6,2.6,9.2
		C659.9,512.4,646.9,521.2,633.3,521.2z"/>
</g>
</svg>
