<?xml version="1.0" encoding="utf-8"?>
<!-- Generator: Adobe Illustrator 17.1.0, SVG Export Plug-In . SVG Version: 6.00 Build 0)  -->
<!DOCTYPE svg PUBLIC "-//W3C//DTD SVG 1.1//EN" "http://www.w3.org/Graphics/SVG/1.1/DTD/svg11.dtd">
<svg version="1.1" id="Layer_1" xmlns="http://www.w3.org/2000/svg" xmlns:xlink="http://www.w3.org/1999/xlink" x="0px" y="0px"
	 width="1000px" height="1000px" viewBox="0 0 1000 1000" enable-background="new 0 0 1000 1000" xml:space="preserve">
<rect fill="#FFCB00" width="1000" height="1000"/>
<g>
	<g>
		<path fill="#1D1D1B" d="M683.7,517.4c-0.2,0.3-0.4,0.7-0.5,1.4s-0.1,1.4,0,2.1c0.1,0.7,0.2,1.1,0.5,1.4c1.1,0,3.2-0.1,6.2-0.3
			c3-0.1,6.7-0.2,11.1-0.3c3.3,0,6,0.1,8.3,0.1c2.3,0.1,4.2,0.1,5.6,0.2c1.5,0.1,2.7,0.1,3.5,0.1c0.2-0.3,0.4-0.8,0.5-1.5
			s0.2-1.3,0.2-2c0-0.6-0.1-1.1-0.2-1.4c-1.4-0.2-2.8-0.3-4.1-0.5s-2.4-0.5-3.4-0.8c-1.2-0.3-2.1-0.8-2.6-1.6s-0.8-2.2-0.8-4
			c-0.1-2-0.1-4.3-0.2-7.2c-0.1-2.8-0.1-5.9-0.1-9.2c0-3.3,0-6.6,0-10c0-3.3,0-6.5,0-9.5c0-1.7,0.2-3,0.5-4c0.3-0.9,0.8-1.6,1.3-2.1
			c2.1-1.7,4.4-3,7-3.9s5.2-1.4,7.8-1.4s4.8,0.4,6.5,1.1c1.8,0.7,3.3,1.6,4.5,2.7c1.1,0.9,2,2,2.7,3.2s1.2,2.4,1.6,3.6
			c0.4,1.2,0.6,2.2,0.7,3.2c0.2,1.3,0.3,2.9,0.4,4.9c0.1,2,0.2,4.2,0.2,6.6s0.1,4.9,0.1,7.4s0,5-0.1,7.3c0,2.4-0.1,4.5-0.1,6.4
			c-0.1,2.1-0.3,3.7-0.7,4.7s-1.2,1.7-2.5,2.1c-0.6,0.2-1.5,0.4-2.8,0.6c-1.3,0.2-2.8,0.4-4.5,0.6c-0.2,0.3-0.4,0.7-0.4,1.4
			s0,1.4,0.1,2.1c0.1,0.7,0.2,1.1,0.4,1.4c2.1-0.1,4.5-0.2,7.4-0.3c2.8-0.1,6.2-0.2,10.3-0.2c4.6,0,8.3,0.1,11.1,0.3
			c2.8,0.1,4.8,0.2,6,0.3c0.3-0.3,0.5-0.8,0.7-1.4c0.1-0.6,0.2-1.3,0.2-2s-0.1-1.1-0.3-1.4c-1.8-0.2-3.3-0.5-4.7-0.8
			s-2.8-0.8-4.2-1.4c-0.6-0.3-1.1-0.7-1.4-1.3c-0.3-0.6-0.4-1.2-0.4-1.9c-0.1-1.5-0.1-3.5-0.2-5.9c-0.1-2.4-0.1-5.1-0.1-7.9
			c0-2.9-0.1-5.7-0.1-8.6s0-5.5,0-7.9c0-4-0.3-7.7-1-11s-1.9-6.2-3.6-8.7c-2-2.8-4.3-4.9-7.2-6.4c-2.8-1.5-6.1-2.3-10-2.3
			c-3.2,0-6.8,0.9-11,2.7c-4.2,1.8-8.6,4.5-13.3,8.1c-0.2,0.1-0.4,0.1-0.6,0c-0.2-0.1-0.3-0.2-0.3-0.4c0-1,0-2.1,0.1-3.3
			c0-1.3,0.1-2.4,0.1-3.6c0.1-1.1,0.1-2,0.2-2.6c0-0.3-0.1-0.5-0.3-0.7s-0.3-0.4-0.4-0.4c-1.1,0.6-2.6,1.2-4.3,1.9
			c-1.7,0.6-3.6,1.3-5.6,1.8c-2.1,0.6-4.1,1.1-6.2,1.6c-2.1,0.4-4,0.8-5.8,0.9c-0.2,0.2-0.4,0.5-0.6,1c-0.2,0.5-0.3,1-0.4,1.5
			c-0.1,0.5,0,1,0.1,1.3c2.2,0.8,3.9,1.5,5.2,2.2s2.3,1.3,2.9,2c0.6,0.7,1,1.4,1.2,2.2c0.1,1.3,0.2,3,0.2,5.2
			c0.1,2.2,0.1,4.9,0.1,8.2c0,2.6,0,5.3,0,8s0,5.2,0,7.7s-0.1,4.7-0.1,6.7c-0.1,2-0.1,3.7-0.2,5c-0.1,1.4-0.4,2.7-1,3.7
			c-0.6,1.1-1.5,1.8-2.7,2.1c-1,0.3-2.1,0.5-3.1,0.6C686,517,684.9,517.2,683.7,517.4 M404.6,517.4c-0.3,0.2-0.5,0.6-0.6,1.3
			s-0.1,1.4,0,2.1c0.1,0.7,0.3,1.2,0.6,1.4c1.5,0,2.9-0.1,4.5-0.1c1.5-0.1,3.3-0.1,5.4-0.2c2.1-0.1,4.6-0.1,7.7-0.1
			c3.7,0,7,0.1,10,0.3c2.9,0.1,5.5,0.2,7.5,0.3c0.2-0.3,0.4-0.7,0.6-1.4c0.1-0.7,0.2-1.4,0.2-2.1c0-0.7-0.1-1.1-0.4-1.4
			c-1.4-0.3-2.7-0.5-3.9-0.6c-1.2-0.2-2.1-0.4-2.9-0.5c-1.5-0.4-2.5-1-3-1.9s-0.8-1.9-0.7-3c-0.1-1.6-0.1-3.6-0.1-6s-0.1-5.1-0.1-8
			s0-5.9,0-8.9s0-5.9,0-8.7c0-2.8,0-5.3,0-7.5c0-0.8,0.2-1.6,0.7-2.3c0.4-0.7,1-1.3,1.6-1.8c1.6-1.2,3.3-2.1,5-2.9s3.4-1.3,5-1.7
			c1.6-0.4,3.1-0.6,4.4-0.6c2.6,0,4.8,0.4,6.6,1.2c1.8,0.8,3.3,1.8,4.4,3c1.2,1.3,2,2.6,2.6,4s1.1,2.8,1.3,4.1
			c0.2,1,0.4,2.6,0.5,4.8c0.1,2.2,0.2,4.6,0.2,7.4s0.1,5.6,0,8.5c0,2.9-0.1,5.6-0.1,8.1c-0.1,2.5-0.1,4.5-0.3,6.2
			c-0.1,1.8-0.3,3.1-0.8,4c-0.5,0.8-1.3,1.4-2.4,1.7c-1,0.3-2.1,0.6-3.2,0.7c-1.1,0.2-2.4,0.4-3.9,0.6c-0.2,0.3-0.4,0.8-0.5,1.4
			c-0.1,0.7-0.1,1.4,0,2.1c0.1,0.7,0.2,1.1,0.5,1.3c1.1,0,2.6-0.1,4.5-0.1c1.9-0.1,3.9-0.1,6.1-0.2c2.2-0.1,4.2-0.1,6-0.1
			c3.8,0,7.1,0.1,10,0.2c2.9,0.1,5.6,0.2,8,0.3c0.2-0.2,0.4-0.6,0.6-1.3c0.1-0.7,0.2-1.4,0.2-2.1c0-0.7-0.1-1.2-0.3-1.4
			c-1.7-0.3-3.2-0.5-4.3-0.7c-1.1-0.2-2.3-0.5-3.4-0.8c-0.8-0.3-1.5-0.8-2-1.4c-0.5-0.6-0.8-1.5-0.8-2.6c-0.1-1.8-0.1-3.9-0.2-6.3
			c0-2.4-0.1-4.9,0-7.6c0-2.7,0-5.4,0-8s0-5.1,0-7.4c0-2.5-0.1-4.7-0.1-6.7c-0.1-2-0.3-3.7-0.6-5.3c0-0.2,0-0.4,0.1-0.6
			c0-0.3,0.1-0.4,0.3-0.5c2.7-2.1,5.4-3.6,8.1-4.6s5.2-1.5,7.6-1.4c2.8,0,5.1,0.4,7,1.2c1.9,0.8,3.5,1.8,4.7,3.2
			c1.2,1.3,2.2,2.7,2.8,4.2c0.7,1.5,1.1,3,1.3,4.3c0.2,1,0.4,2.5,0.5,4.3c0.1,1.9,0.2,4,0.2,6.3c0,2.4,0,4.8,0,7.3s-0.1,4.9-0.1,7.3
			c0,2.3-0.1,4.4-0.1,6.2c0,2.6-0.3,4.6-0.7,5.8c-0.4,1.2-1.2,2-2.6,2.4c-0.9,0.3-1.9,0.6-2.9,0.8s-2.3,0.4-3.9,0.7
			c-0.2,0.2-0.4,0.7-0.4,1.4s0,1.4,0.1,2.1c0.1,0.7,0.2,1.1,0.4,1.4c1.5-0.1,3-0.2,4.7-0.3s3.6-0.1,5.7-0.2c2.1,0,4.7-0.1,7.6-0.1
			c3.7,0,6.9,0.1,9.8,0.3c2.8,0.1,5,0.2,6.7,0.3c0.2-0.2,0.4-0.6,0.6-1.3c0.2-0.7,0.3-1.4,0.4-2.1c0.1-0.7,0-1.2-0.1-1.5
			c-2.3-0.3-4.2-0.6-5.6-0.9c-1.5-0.3-2.8-0.7-3.8-1.3c-0.6-0.4-1.1-0.9-1.4-1.6c-0.3-0.7-0.4-1.3-0.4-2c0-1.8,0-3.9,0-6.5
			s0-5.4,0-8.4s0-5.9,0-8.8s-0.1-5.5-0.1-7.8c0-5.8-0.9-10.6-2.7-14.6s-4.3-7.1-7.6-9.1c-3.3-2.1-7.2-3.1-11.8-3.1
			c-3.4,0-7.3,1.1-11.6,3c-4.3,2-8.8,4.7-13.5,8.2c-0.2,0.1-0.4,0.1-0.6,0.2c-0.2,0-0.4-0.1-0.6-0.3c-1.2-2.1-2.7-4-4.4-5.7
			c-1.8-1.6-3.8-3-6.1-3.9c-2.3-0.9-4.8-1.4-7.6-1.4c-2.7,0-6.2,0.8-10.3,2.5c-4.2,1.7-8.8,4.4-13.9,8.2c-0.2,0.1-0.4,0.2-0.7,0.1
			c-0.2-0.1-0.4-0.3-0.4-0.4c0-0.6,0-1.5,0-2.4s0-1.9,0.1-2.9c0-1,0-1.9,0.1-2.7c0-0.8,0-1.3,0-1.6l-0.5-0.8
			c-1.6,0.8-3.7,1.7-6.1,2.5s-5.1,1.6-7.9,2.2s-5.6,1.1-8.4,1.4c-0.2,0.1-0.4,0.5-0.6,1c-0.2,0.6-0.3,1.1-0.3,1.7s0,1,0.2,1.3
			c1.7,0.5,3.3,1,4.7,1.6c1.5,0.6,2.7,1.3,3.7,2.1c0.5,0.4,0.9,1,1.1,1.6s0.4,1.2,0.4,1.7c0.1,0.6,0.1,1,0.1,1.4c0,2.8,0,5.9,0,9.3
			s0,6.8-0.1,10.3c0,3.5-0.1,6.8-0.2,9.9s-0.1,5.9-0.3,8.2c0,1.8-0.3,3.3-0.8,4.3c-0.5,1.1-1.5,1.8-2.9,2.2
			c-0.9,0.3-1.8,0.5-2.9,0.7C407.5,516.9,406.2,517.1,404.6,517.4z M370.3,459.6c2.4,0,4.6,0.6,6.5,1.6c1.9,1.1,3.6,2.5,5,4.2
			c1.4,1.8,2.5,3.7,3.4,5.8c0.8,2.1,1.3,4.2,1.6,6.3c0,0.3-0.1,0.6-0.3,0.9c-0.2,0.3-0.4,0.4-0.6,0.6c-0.8,0.1-2.1,0.3-4,0.4
			s-4.1,0.3-6.6,0.4s-5.1,0.2-7.6,0.2c-2.6,0.1-4.9,0.1-7.1,0.1c-2.1,0-3.8,0-5-0.1c-0.3,0-0.5-0.2-0.7-0.4
			c-0.1-0.3-0.2-0.5-0.2-0.7c0.3-4,1.2-7.4,2.6-10.3s3.2-5.1,5.5-6.6C364.8,460.5,367.4,459.6,370.3,459.6z M401.3,505.6
			c-3.3,2.5-6.6,4.3-10,5.4c-3.4,1.1-6.8,1.6-10.4,1.6c-4,0-7.6-0.6-10.7-1.7c-3.2-1.2-6.1-3.1-8.7-5.6c-1.4-1.5-2.7-3.2-3.7-5.1
			s-1.9-3.9-2.5-6s-1-4.1-1.1-6c0-0.4,0.1-0.8,0.3-1.2c0.2-0.4,0.4-0.6,0.8-0.7c3-0.1,6.3-0.2,9.9-0.3c3.6-0.1,7.2-0.3,10.9-0.5
			c3.7-0.2,7.2-0.5,10.6-0.8s6.4-0.6,9.1-0.9s4.8-0.7,6.3-1.1c0.2-0.1,0.4-0.5,0.7-1c0.2-0.5,0.4-1.1,0.6-1.6c0.2-0.6,0.2-1,0.2-1.2
			c-0.9-0.3-1.5-0.5-1.9-0.9c-0.4-0.3-0.7-0.6-0.7-1c-0.3-1.9-0.8-3.9-1.5-6.1c-0.7-2.1-1.7-4.2-2.9-6.3c-1.2-2.1-2.8-4-4.7-5.7
			c-1.9-1.7-4.1-3.1-6.7-4.1s-5.6-1.5-9.1-1.6c-1.9,0-4,0.2-6.3,0.7c-2.3,0.4-4.5,1.1-6.8,1.9s-4.3,1.8-6.2,2.9
			c-3.1,1.9-5.8,4.3-8.1,7.1c-2.3,2.8-4.2,6.2-5.5,10s-2,8.2-2.1,13.1c0,3.2,0.3,6.4,1,9.6s1.8,6.2,3.3,9.1s3.4,5.5,5.9,7.8
			c2.7,2.6,5.8,4.6,9.4,6s7.7,2.1,12.4,2.1c2.1,0,4.3-0.3,6.8-0.8s5-1.3,7.5-2.4c2.6-1,5.1-2.3,7.5-3.9c2.4-1.6,4.6-3.4,6.6-5.5
			c0.1-0.2,0.3-0.6,0.4-1.1c0.2-0.6,0.3-1.1,0.4-1.8c0.1-0.6,0.1-1.2,0.1-1.6c-0.1-0.3-0.2-0.4-0.4-0.6
			C401.5,505.9,401.4,505.7,401.3,505.6z M332.2,453.3c-1.7,0-3.3,0.3-4.8,0.8c-1.5,0.6-2.9,1.3-4.3,2.3c-2.1,1.4-4,3-5.9,4.8
			s-3.7,3.7-5.4,5.8c-0.2,0.1-0.4,0.1-0.6,0.1s-0.3-0.2-0.3-0.4c0-0.8,0-1.8,0-3s0.1-2.5,0.1-3.7c0-1.3,0.1-2.5,0.1-3.6
			s0.1-2,0.1-2.6c0-0.2-0.1-0.3-0.3-0.5c-0.2-0.1-0.4-0.2-0.6-0.2c-1.2,0.7-2.7,1.3-4.5,2c-1.8,0.6-3.7,1.3-5.8,1.8
			c-2,0.6-4,1.1-6,1.5s-3.8,0.7-5.4,0.9c-0.2,0.1-0.3,0.4-0.5,0.9c-0.1,0.5-0.2,1-0.3,1.5c-0.1,0.5-0.1,0.9-0.1,1.3
			c2.6,0.9,4.7,1.7,6,2.5c1.4,0.8,2.3,1.5,2.9,2.3c0.5,0.7,0.8,1.5,0.9,2.3c0.1,1,0.1,2.7,0.1,5s0,5,0,8.2c0,2.9,0,5.9,0,8.9
			s-0.1,5.8-0.1,8.5c-0.1,2.7-0.1,4.9-0.2,6.8s-0.1,3.2-0.2,3.9c-0.2,1.5-0.5,2.5-1.1,3.2c-0.5,0.7-1.2,1.1-2.1,1.4
			c-1,0.3-2.1,0.6-3.4,0.9c-1.2,0.2-2.4,0.4-3.5,0.5c-0.2,0.3-0.4,0.7-0.4,1.4s0,1.4,0.1,2.1c0.1,0.7,0.2,1.1,0.4,1.4
			c0.8-0.1,2-0.1,3.4-0.1c1.4-0.1,3-0.1,4.7-0.2c1.7-0.1,3.4-0.1,5.1-0.1s3.3-0.1,4.7-0.1c1.8,0,3.8,0,6,0.1
			c2.1,0.1,4.3,0.1,6.3,0.2c2.1,0.1,3.9,0.1,5.4,0.2c1.5,0.1,2.6,0.1,3.2,0.1c0.3-0.3,0.5-0.7,0.7-1.4c0.1-0.7,0.2-1.3,0.2-2
			s-0.1-1.2-0.2-1.5c-2-0.2-4-0.4-5.9-0.6c-1.9-0.3-3.7-0.6-5.4-1c-1.3-0.4-2.3-1.1-2.8-1.9c-0.5-0.9-0.9-2-0.9-3.4
			c0-0.7-0.1-1.9-0.1-3.5s-0.1-3.6-0.1-5.9s-0.1-4.7-0.1-7.3c0-2.6,0-5.2,0-7.8c0-2.6,0-5,0-7.4c0-1.1,0.2-2.2,0.5-3.3
			c0.3-1.1,0.6-1.9,0.9-2.4c0.8-1.2,1.7-2.3,2.7-3.4s2.1-2,3.3-2.6c1.1-0.7,2.3-1,3.5-1c1.4,0,2.7,0.3,4.1,0.8
			c1.3,0.5,2.6,1.1,3.9,1.9c1.2,0.8,2.5,1.6,3.6,2.5c0.1,0,0.4-0.1,0.7-0.3c0.4-0.2,0.6-0.3,0.7-0.4c0.4-0.5,1-1.3,1.6-2.2
			c0.6-0.9,1.2-2,1.7-3.1c0.6-1.1,1.1-2.1,1.5-3.1c0.4-0.9,0.7-1.7,0.8-2.2c0.1-0.4,0.1-0.8,0.1-1.4s0-1-0.1-1.3
			c-0.8-1.2-1.9-2.1-3.4-2.7C335.6,453.6,334,453.3,332.2,453.3z M252.4,459.6c2.4,0,4.6,0.6,6.5,1.6c1.9,1.1,3.6,2.5,5,4.2
			c1.4,1.8,2.5,3.7,3.4,5.8c0.8,2.1,1.3,4.2,1.6,6.3c0,0.3-0.1,0.6-0.3,0.9c-0.2,0.3-0.4,0.4-0.6,0.6c-0.8,0.1-2.1,0.3-4,0.4
			s-4.1,0.3-6.6,0.4s-5.1,0.2-7.6,0.2c-2.6,0.1-4.9,0.1-7.1,0.1c-2.1,0-3.8,0-5-0.1c-0.3,0-0.5-0.2-0.7-0.4
			c-0.1-0.3-0.2-0.5-0.2-0.7c0.3-4,1.2-7.4,2.6-10.3c1.4-2.9,3.2-5.1,5.5-6.6C247,460.5,249.5,459.6,252.4,459.6z M283.4,505.6
			c-3.3,2.5-6.6,4.3-10,5.4c-3.4,1.1-6.8,1.6-10.4,1.6c-4,0-7.6-0.6-10.7-1.7c-3.2-1.2-6.1-3.1-8.7-5.6c-1.4-1.5-2.7-3.2-3.7-5.1
			s-1.9-3.9-2.5-6s-1-4.1-1.1-6c0-0.4,0.1-0.8,0.3-1.2c0.2-0.4,0.4-0.6,0.8-0.7c3-0.1,6.3-0.2,9.9-0.3c3.6-0.1,7.2-0.3,10.9-0.5
			s7.2-0.5,10.6-0.8s6.4-0.6,9.1-0.9s4.8-0.7,6.3-1.1c0.2-0.1,0.4-0.5,0.7-1c0.2-0.5,0.4-1.1,0.6-1.6c0.2-0.6,0.2-1,0.2-1.2
			c-0.9-0.3-1.5-0.5-1.9-0.9c-0.4-0.3-0.7-0.6-0.7-1c-0.3-1.9-0.8-3.9-1.5-6.1c-0.7-2.1-1.7-4.2-2.9-6.3c-1.2-2.1-2.8-4-4.7-5.7
			c-1.9-1.7-4.1-3.1-6.7-4.1s-5.6-1.5-9.1-1.6c-1.9,0-4,0.2-6.3,0.7c-2.3,0.4-4.5,1.1-6.8,1.9s-4.3,1.8-6.2,2.9
			c-3.1,1.9-5.8,4.3-8.1,7.1c-2.3,2.8-4.2,6.2-5.5,10s-2,8.2-2.1,13.1c0,3.2,0.3,6.4,1,9.6s1.8,6.2,3.3,9.1s3.4,5.5,5.9,7.8
			c2.7,2.6,5.8,4.6,9.4,6c3.6,1.4,7.7,2.1,12.4,2.1c2.1,0,4.3-0.3,6.8-0.8s5-1.3,7.5-2.4c2.6-1,5.1-2.3,7.5-3.9
			c2.4-1.6,4.6-3.4,6.6-5.5c0.1-0.2,0.3-0.6,0.4-1.1c0.2-0.6,0.3-1.1,0.4-1.8c0.1-0.6,0.1-1.2,0.1-1.6c-0.1-0.3-0.2-0.4-0.4-0.6
			C283.6,505.9,283.5,505.7,283.4,505.6z M219,510.5c0.1-0.2,0.2-0.6,0.4-1.2c0.1-0.6,0.3-1.3,0.4-2c0.1-0.7,0.1-1.3,0.1-1.7
			c0-0.3-0.1-0.5-0.4-0.7c-0.2-0.2-0.4-0.3-0.5-0.3c-3.4,2.9-6.9,5-10.4,6.2s-6.8,1.8-10,1.8c-4.1,0-7.8-0.6-11.2-2
			c-3.3-1.4-6.3-3.6-9-6.7c-1.5-1.7-2.7-3.6-3.7-5.8c-1-2.2-1.7-4.5-2.2-7s-0.7-5.1-0.7-7.7c0-2.9,0.4-5.7,1.1-8.3
			c0.7-2.7,1.9-5.1,3.4-7.2s3.5-3.8,5.9-5.1c2.4-1.3,5.3-1.9,8.6-1.9c3,0,5.8,0.6,8.3,1.5c2.5,1,4.7,2.1,6.6,3.5
			c1.9,1.4,3.5,2.6,4.7,3.9c0.2,0.1,0.5,0.1,0.9,0.1s0.7,0,0.9-0.1c0.6-0.3,1.2-0.8,2.1-1.5c0.8-0.8,1.6-1.6,2.3-2.6
			c0.7-0.9,1.3-1.9,1.7-2.7c0.1-0.4,0.2-0.8,0.2-1.4c0.1-0.6,0.1-1,0.1-1.3c-0.4-0.8-1.1-1.6-2.1-2.4c-1-0.7-2.1-1.4-3.3-2
			c-1.6-0.7-3.6-1.3-5.9-1.8c-2.3-0.5-5.2-0.7-8.7-0.8c-1.9,0-4.1,0.3-6.7,0.8c-2.6,0.5-5.2,1.3-8,2.3s-5.4,2.3-8,3.7
			c-6,3.4-10.5,7.6-13.5,12.7s-4.5,10.7-4.5,17c0,4.2,0.6,8.3,1.8,12.1c1.2,3.8,2.9,7.3,5.1,10.3c2.9,3.8,6.5,6.6,10.7,8.6
			s9.2,3,14.8,3c2.6,0,5.5-0.4,8.7-1.2c3.3-0.8,6.6-2.2,10.1-4.1C212.8,516.4,216,513.8,219,510.5z"/>
		<path fill="#1D1D1B" d="M759.8,460c1.4,0.2,2.5,0.3,3.4,0.5s1.8,0.3,2.6,0.5c1.6,0.4,3,1.1,4.2,2.1s2.3,2.5,3.4,4.6
			c1.1,2.1,2.4,4.9,4,8.5c1.4,3.1,2.9,6.5,4.5,10.2s3.2,7.4,4.7,11.1c1.6,3.7,3,7.2,4.4,10.6c1.4,3.3,2.6,6.2,3.5,8.6
			c0.1,0.3,0.3,0.6,0.5,1s0.4,0.9,0.6,1.3c0.2,0.4,0.3,0.6,0.3,0.7c-1.7,3.3-3.7,6.8-6.1,10.3c-2.3,3.5-4.8,7-7.3,10.3
			c-2.5,3.4-4.9,6.4-7.2,9.2s-4.1,5-5.6,6.8c-0.1,0.1-0.1,0.4-0.1,0.7c0,0.4,0,0.7,0.1,1.1c0,0.4,0.1,0.6,0.1,0.8
			c0.6,0.5,1.4,1.1,2.6,1.7c1.1,0.6,2.3,1.2,3.6,1.7c1.2,0.5,2.3,0.9,3.2,1.1l1.2-0.7c0.7-1.2,1.5-2.6,2.4-4.2c1-1.6,2-3.3,3.1-5.1
			c7.6-12.4,14.9-25.7,22-40c7-14.2,13.8-29.1,20.1-44.7c0.8-2.2,1.8-3.9,2.9-5.1c1.1-1.2,2.5-2.1,4.1-2.5c0.9-0.3,1.8-0.6,2.9-0.8
			c1-0.2,2.2-0.4,3.5-0.5c0.2-0.4,0.3-0.9,0.4-1.6c0.1-0.7,0-1.3-0.1-2c-0.1-0.6-0.2-1.1-0.5-1.3c-2.5,0.1-5.1,0.2-7.8,0.3
			c-2.7,0.1-5.6,0.2-8.8,0.2c-2.1,0-4.2-0.1-6.3-0.1c-2.1-0.1-3.9-0.1-5.5-0.2s-2.8-0.1-3.5-0.1c-0.2,0.3-0.4,0.7-0.6,1.3
			c-0.2,0.6-0.3,1.3-0.3,2s0,1.2,0.2,1.6c1.6,0.2,3.1,0.4,4.5,0.6s2.5,0.5,3.4,0.7c1.1,0.3,1.9,0.8,2.4,1.3s0.7,1.1,0.8,1.7
			s0,1.3-0.1,1.9c-0.3,1.7-0.7,3.7-1.5,6.1c-0.7,2.4-1.6,5-2.6,7.8s-2.1,5.6-3.4,8.5c-1.2,2.9-2.4,5.7-3.6,8.4
			c-1.2,2.7-2.4,5.2-3.5,7.4c-0.1,0.1-0.2,0.1-0.4,0.1c-0.1,0-0.3-0.1-0.4-0.1c-0.2-0.4-0.7-1.4-1.4-3.1c-0.7-1.6-1.6-3.7-2.6-6.2
			s-2.1-5.2-3.3-8.1s-2.3-5.8-3.5-8.7c-1.1-2.9-2.2-5.6-3.1-8c-0.9-2.5-1.6-4.5-2.2-6.1c-0.1-0.4-0.1-0.9,0.1-1.5
			c0.2-0.6,0.6-1.1,1.3-1.4s1.6-0.5,2.8-0.7s2.5-0.4,3.8-0.7c0.2-0.3,0.3-0.8,0.3-1.5s0-1.4-0.1-2s-0.3-1.1-0.5-1.3
			c-0.9,0-2.3,0.1-4.2,0.1c-1.9,0.1-4,0.1-6.5,0.2c-2.4,0.1-4.9,0.1-7.5,0.1c-3.9,0-7.3-0.1-10.3-0.3c-3-0.1-5.4-0.2-7-0.3
			c-0.2,0.1-0.4,0.5-0.6,1.2c-0.1,0.6-0.2,1.3-0.2,2C759.5,459.1,759.6,459.6,759.8,460"/>
		<path fill="#C4001C" d="M674.3,447.6c0,0-7.6,2.6-12,7.6s-6.2,7.5-10.5,9.9c-0.8,0.4-1.6,0.9-2.5,1.2c-7.2-13-30.4-24.1-44.9-25.7
			c1.2-1,1.9-1.7,1.9-4s-2.7-5.5-6-5.5s-6,3.2-6,5.5s0.7,3,1.9,4c-13.4,1.3-31.3,9-40.2,19.1c-8.4-5.9-20.2-10.8-26.9-6.1
			c-9.4,6.5-7.2,22,3.4,35.3c6.6,8.2,15,12.4,22.4,13.1c5.1,6.4,12.6,11.7,21.5,15c-0.3,0.4-0.5,0.8-0.5,1.3v0.8
			c0,1.2,1.1,2.2,2.4,2.2h44.8c1.3,0,2.4-1,2.4-2.2v-0.8c0-0.6-0.3-1.1-0.7-1.5c8.3-3.3,15.3-8.1,20.3-14c4-1,8.3-2.9,11.5-6
			c8.5-8.3,7.8-23.4,12.8-30.9s16.6-13.1,16.6-13.1L674.3,447.6z M549.2,493.6c-3.4-1.1-6.9-3.5-10-7.2c-7.3-8.9-9.7-19.9-4.5-25.1
			c3.8-3.8,11.5-0.8,17,3c-3.2,5.2-5,11-5,17.1C546.7,485.7,547.6,489.8,549.2,493.6z M600.1,511.7c-20.6,0-37.3-13.8-37.3-30.8
			s16.7-30.8,37.3-30.8s37.3,13.8,37.3,30.8S620.7,511.7,600.1,511.7z"/>
	</g>
</g>
</svg>
