<?xml version="1.0" encoding="utf-8"?>
<!-- Generator: Adobe Illustrator 17.1.0, SVG Export Plug-In . SVG Version: 6.00 Build 0)  -->
<!DOCTYPE svg PUBLIC "-//W3C//DTD SVG 1.1//EN" "http://www.w3.org/Graphics/SVG/1.1/DTD/svg11.dtd">
<svg version="1.1" id="Layer_1" xmlns="http://www.w3.org/2000/svg" xmlns:xlink="http://www.w3.org/1999/xlink" x="0px" y="0px"
	 width="1000px" height="1000px" viewBox="0 0 1000 1000" enable-background="new 0 0 1000 1000" xml:space="preserve">
<rect fill="#B8CC00" width="1000" height="1000"/>
<path d="M491.7,532.8L491.7,532.8L491.7,532.8L491.7,532.8z"/>
<g>
	<path fill="#1D1D1B" d="M187.5,431.8h28.7v156.5h47.2v26.1h-75.9V431.8z M290,431.8h28.7v182.5H290V431.8z M413.6,614.4
		c-1.6-4.7-2.6-7.6-2.6-22.4v-28.7c0-16.9-5.7-23.2-18.8-23.2h-9.9v74.3h-28.7V431.8h43.3c29.7,0,42.5,13.8,42.5,42v14.3
		c0,18.8-6,31-18.8,37c14.3,6,19,19.8,19,38.9v28.2c0,8.9,0.3,15.4,3.1,22.2H413.6z M382.3,457.9V514h11.2
		c10.7,0,17.2-4.7,17.2-19.3v-18c0-13-4.4-18.8-14.6-18.8L382.3,457.9L382.3,457.9z M640.4,508.7h39.4v26.1h-39.4v53.5h49.5v26.1
		h-78.2V431.8h78.2v26.1h-49.5V508.7z M747.3,482.2v132.2h-25.8V431.8h36L787,541.1V431.8h25.6v182.5H783L747.3,482.2z"/>
	<path fill="#FFFFFF" d="M520.8,393v-13.2c0-2.4,2-4.4,4.4-4.4s4.4,2,4.4,4.4V393c0,2.4-2,4.4-4.4,4.4
		C522.7,397.4,520.8,395.4,520.8,393z M596.8,406.8c-1.7-1.7-4.5-1.7-6.2,0l-9.3,9.3c-0.9,0.9-1.3,2-1.3,3.1s0.4,2.2,1.3,3.1
		c1.7,1.7,4.5,1.7,6.2,0l9.3-9.3C598.5,411.3,598.5,408.5,596.8,406.8z M461.2,405.3c-1.7-1.7-4.5-1.7-6.2,0c-0.9,0.9-1.3,2-1.3,3.1
		s0.4,2.2,1.3,3.1l9.3,9.3c1.7,1.7,4.5,1.7,6.2,0s1.7-4.5,0-6.2L461.2,405.3z M488.7,583.3h24.7c-1.9-2.4-3.1-5.9-3.4-10.7h-21.3
		c-2.9,0-5.2,2.3-5.3,5.1c0.1,0.6,0.2,1.3,0.3,1.9C484.4,581.8,486.4,583.3,488.7,583.3z M488.2,567.9H510v-10.6h-22.4
		c-2.7,0.3-4.7,2.5-4.7,5.2v0.1C482.9,565.5,485.3,567.9,488.2,567.9z M568,561.2c-0.6-2.1-2.4-3.7-4.6-3.9h-26.2
		c0.8,1.9,1.4,3.9,1.8,6c0,0.1,0,0.1,0,0.2c0.2,0.9,0.3,1.9,0.4,2.9c0,0.2,0.1,0.3,0.1,0.5c0,0.3,0,0.7,0.1,1.1h23.2
		c2.9,0,5.2-2.3,5.3-5.1c0-0.5-0.1-0.9-0.1-1.4C568,561.3,568,561.2,568,561.2z M536.6,583.3h25.7c2.9,0,5.3-2.4,5.3-5.3
		c0-2.9-2.4-5.3-5.3-5.3h-22.6c-0.1,2.3-0.5,4.3-1,6C538.2,580.3,537.6,581.9,536.6,583.3z M557.4,598.8c2.9,0,5.3-2.4,5.3-5.3
		c0-2.9-2.4-5.3-5.3-5.3h-63.8c-2.9,0-5.3,2.4-5.3,5.3c0,0.5,0.1,1,0.2,1.4c0.4,0.8,0.8,1.5,1.3,2.3c1,1,2.3,1.6,3.8,1.6H557.4z
		 M552,605.9c0-1.3-1-2.3-2.3-2.3h-48.4c-1.3,0-2.3,1-2.3,2.3c0,0.9,0.6,1.5,1.4,2c0.4,0.2,0.7,0.5,1.1,0.7c0.1,0,0.1,0.1,0.2,0.1
		c6.3,3.7,14.2,5.6,23.6,5.7c2.3,0,4.5-0.1,6.5-0.3c0.1,0,0.3,0,0.4,0c0.8-0.1,1.6-0.2,2.4-0.3c0.2,0,0.5-0.1,0.7-0.1
		c0.9-0.1,1.8-0.3,2.7-0.5c0.1,0,0.2-0.1,0.3-0.1c3.9-0.9,7.4-2.3,11.1-4.2c0.1,0,0.1-0.1,0.2-0.1c0,0,0,0,0.1,0
		c0.2-0.1,0.4-0.3,0.6-0.4C551.3,607.6,552,606.8,552,605.9z M483.7,473.5c0-29.2,14.3-45.9,42.2-45.9s42.2,16.7,42.2,45.9v5.7H541
		v-7.6c0-13-5.2-18-14.3-18s-14.3,5-14.3,18c0,29,33.3,39.8,48.6,67.2c1.3-1.4,2.7-2.9,3.9-4.3c13.3-13.9,25.7-32.3,25.7-61.1
		c0-42.1-24.8-68.3-64.6-68.3s-64.6,26.2-64.6,68.3c0,28.7,12.7,47.4,26,61.3c9.4,10.7,22.7,22.3,22.7,22.3h27.2
		C526.2,530.2,483.7,519,483.7,473.5z"/>
</g>
</svg>
