<?xml version="1.0" encoding="utf-8"?>
<!-- Generator: Adobe Illustrator 17.1.0, SVG Export Plug-In . SVG Version: 6.00 Build 0)  -->
<!DOCTYPE svg PUBLIC "-//W3C//DTD SVG 1.1//EN" "http://www.w3.org/Graphics/SVG/1.1/DTD/svg11.dtd">
<svg version="1.1" id="Layer_1" xmlns="http://www.w3.org/2000/svg" xmlns:xlink="http://www.w3.org/1999/xlink" x="0px" y="0px"
	 width="1000px" height="1000px" viewBox="0 0 1000 1000" enable-background="new 0 0 1000 1000" xml:space="preserve">
<rect fill="#FFEC00" width="1000" height="1000"/>
<g>
	<path fill="#3C3C3B" d="M245.7,500.8c0,8.7-3.4,16.8-9.9,22.8c-6.5,6.1-15.5,9.4-25.9,9.8v0.1h-1.1c-0.4,0-0.8,0-1.2,0h-22.4h-20.5
		v-12.7h-0.1v-42.1h0.1v-12.6h14.6h28.3V466c6.5,0,12.3,1,17.4,2.9c4.8,1.9,8.8,4.7,12.1,8.1C242.6,483.1,245.7,491.5,245.7,500.8z
		 M233.1,500.8c0-8-3.2-21.1-23.3-22.1h-32.4v42.1h31.2C225.5,520.4,233.1,510.6,233.1,500.8z"/>
	<path fill="#3C3C3B" d="M357.8,525.9c-3,3-8.6,6.9-18.1,7.7c-0.8,0-1.5,0-2.2,0c-5.2,0-10.2-1.5-14.9-4.4c-4.4-2.9-8.1-6.5-12-10.4
		c-2.1-2.1-4.1-4.3-6.3-6.2c-8.8-7.7-12.8-8.3-12.8-8.3s0.3,0.1,0.7,0h-18.9v16.6l0,0v12.7h-12.9v-12.7l0,0v-42.2l0,0V466h57.5
		c8.7,0,13.7,3.4,16.4,6.2c3.2,3.6,5,8.3,5,13.5c0,9-7,18.2-20.3,18.6h-0.4c-0.1,0-0.4,0-0.7,0h-3.7c1.9,1.8,3.7,3.7,5.5,5.5
		c7.5,7.3,12,11.6,19.2,11c11.3-0.8,11.9-7.5,11.9-8.7h12.7C363.4,517.2,361.3,522.2,357.8,525.9z M273.2,478.7v13h45.2
		c5.9-0.1,8.1-3.3,8.1-5.9c0-4.4-2.5-6.8-7.6-7h-45.7V478.7z"/>
	<path fill="#3C3C3B" d="M372.8,536.7c-2.9,0-5.4-2.3-5.4-5.2s2.5-5.2,5.4-5.2s5.2,2.3,5.2,5.2S375.7,536.7,372.8,536.7z"/>
	<path fill="#3C3C3B" d="M480.2,492.8h-11.6c0-2.9-2.2-5.7-4-7.5c-5.9-5.7-18.6-11-33.5-10.4c-13.4,0.6-36.3,6.6-36.3,26.5
		c0,18.9,24.3,23,38.8,23.3h0.1c9.4,0,33.3-3.3,34.2-16.7H480c0,5.5-2.3,10.8-6.8,15.2c-8.1,8.1-22.9,13-39.6,13c0,0-0.1,0-0.3,0
		c-19.6,0-52-7.7-52-34.2c0-27,27-37.8,49.3-38.6c14.1-0.6,28.4,3.4,38.1,10.5v-7.5h11.5L480.2,492.8L480.2,492.8z"/>
	<path fill="#3C3C3B" d="M502.1,524.1c-6.5-6.5-10.1-15.2-10.1-24.3c0-9.2,3.6-17.8,10.1-24.3s15.2-10.1,24.4-10.1
		c0.4,0,112,0,112.3,0c9.1,0.1,17.5,3.7,23.9,10.2c6.3,6.5,9.9,15,9.9,24.2s-3.6,17.7-9.9,24.2c-6.3,6.5-14.9,10.1-24,10.2
		c-0.1,0-111.7,0-112.2,0C517.3,534.2,508.6,530.6,502.1,524.1z M504.5,499.8c0,12.1,9.9,21.9,22.1,21.9c0.3,0,110.8,0,112,0
		c11.9-0.1,21.7-9.9,21.7-21.9c0-11.9-9.7-21.8-21.5-21.9c-1.5,0-111.9,0-112.2,0C514.4,477.9,504.5,487.7,504.5,499.8z"/>
	<path fill="#3C3C3B" d="M748.6,466v12.6h-25V521h25v12.6h-62.9V521h25.1v-42.4h-25.1V466H748.6z"/>
	<path fill="#3C3C3B" d="M835.5,503.1v3.3c0,14.9-12.1,27-27,27h-36.7V466H785v54.8h23.1c8.1,0,14.7-6.6,14.7-14.7v-3L835.5,503.1
		L835.5,503.1z"/>
	<rect x="574.8" y="465.5" fill="#3C3C3B" width="13" height="68.7"/>
	<rect x="557.3" y="493.3" fill="#3C3C3B" width="48.1" height="13"/>
</g>
</svg>
