<?xml version="1.0" encoding="utf-8"?>
<!-- Generator: Adobe Illustrator 17.1.0, SVG Export Plug-In . SVG Version: 6.00 Build 0)  -->
<!DOCTYPE svg PUBLIC "-//W3C//DTD SVG 1.1//EN" "http://www.w3.org/Graphics/SVG/1.1/DTD/svg11.dtd">
<svg version="1.1" id="Layer_1" xmlns="http://www.w3.org/2000/svg" xmlns:xlink="http://www.w3.org/1999/xlink" x="0px" y="0px"
	 width="1000px" height="1000px" viewBox="0 0 1000 1000" enable-background="new 0 0 1000 1000" xml:space="preserve">
<rect x="-13.4" y="-10.4" fill="#0024FF" width="1031.3" height="1029.9"/>
<g>
	<path fill="#0040FF" d="M296.8,415.5v152c-5-6.2-12.6-10.1-21.1-10.1c-1.6,0-3.3-0.2-4.8-0.6c-0.2-3.8-3.3-6.9-7.2-6.9
		c-4,0-7.2,3.2-7.2,7.2s3.2,7.2,7.2,7.2c1.9,0,3.6-0.7,4.9-1.9c2.3,0.6,4.7,1,7.1,1c11.7,0,21.1,9.5,21.1,21.1
		c0,11.7-9.5,21.1-21.1,21.1c-11.7,0-21.1-9.5-21.1-21.1v-3h-3c-11.7,0-21.1-9.5-21.1-21.1c0-3.7,1-7.3,2.8-10.6
		c3.8-6.5,10.8-10.6,18.3-10.6c9.6,0,18.6-5.2,23.5-13.5v-0.1l0.1-0.2l0,0c2.3-4.1,3.5-8.7,3.5-13.3c0-2.2-0.3-4.5-0.9-6.8
		c-0.6-2.4-1.6-4.7-2.8-6.8c-0.7-1.1-1.4-2.2-2.2-3.2c0.3-0.8,0.4-1.6,0.4-2.5c0-4-3.2-7.2-7.2-7.2s-7.2,3.2-7.2,7.2
		s3.2,7.2,7.2,7.2c0.9,0,1.7-0.2,2.5-0.5c0.5,0.6,0.9,1.3,1.3,2c1,1.6,1.7,3.4,2.2,5.3c0.5,1.8,0.7,3.6,0.7,5.3
		c0,3.6-0.9,7.2-2.7,10.3l-0.1,0.2v0.1c-3.8,6.5-10.8,10.6-18.3,10.6c-9.6,0-18.6,5.2-23.5,13.6c-1.9,3.2-3,6.7-3.5,10.3
		c-10.3-1.4-18.3-10.2-18.3-20.9c0-3.5,0.9-6.9,2.5-9.9c2.2,0.5,4.4,0.8,6.6,0.8c5.4,0,10.6-1.6,15.1-4.6c1.9-1.3,3.7-2.8,5.2-4.6
		c0.8-1,1.5-1.8,2.1-2.7c0.1,0,0.2,0,0.3,0c4,0,7.2-3.2,7.2-7.2s-3.2-7.2-7.2-7.2s-7.2,3.2-7.2,7.2c0,1.7,0.6,3.2,1.5,4.4
		c-0.4,0.5-0.7,1-1.2,1.5c-1.2,1.4-2.6,2.6-4.1,3.6c-5.4,3.6-12.4,4.6-18.8,2.4c-8.5-3-14.2-11-14.2-19.9c0-8.2,4.8-15.6,12.1-19.1
		c5.1,6.3,12.8,10,21.1,10c1.2,0,2.4-0.1,3.9-0.3c1.8-0.3,3.5-0.7,5.1-1.2c1.6-0.6,3.2-1.3,4.6-2.1c4-2.3,7.4-5.6,9.7-9.6
		c2.5-4.2,3.8-9,3.8-13.9c0-7.5,4.1-14.5,10.6-18.3c1.3-0.8,2.7-1.4,4.2-1.8c1.3,1.9,3.5,3.2,6,3.2c4,0,7.2-3.2,7.2-7.2
		s-3.3-7.2-7.2-7.2c-3.3,0-6.1,2.2-7,5.3c-2.2,0.6-4.3,1.5-6.2,2.6c-8.4,4.9-13.6,13.9-13.6,23.5c0,3.8-1,7.5-3,10.8
		c-1.8,3.1-4.5,5.7-7.6,7.5c-1.1,0.7-2.3,1.2-3.6,1.6s-2.6,0.8-4,1c-1.1,0.2-2.1,0.2-3,0.2c-7,0-13.6-3.5-17.5-9.3l0,0
		c-2.3-3.5-3.6-7.6-3.6-11.8c0-11.7,9.5-21.1,21.1-21.1h3v-3c0-11.7,9.5-21.1,21.1-21.1h3v-3c0-11.7,9.5-21.1,21.1-21.1
		C287.4,394.4,296.8,403.8,296.8,415.5z"/>
	<path fill="#FFFFFF" d="M414.8,475.8c9,4.6,14.9,13.9,14.9,24.2s-5.8,19.6-14.9,24.2c1.8,3.7,2.8,7.8,2.8,12
		c0,14-10.7,25.6-24.3,27c-1.3,12.7-11.5,22.8-24.1,24.1c-1.4,13.6-13,24.3-27,24.3c-15,0-27.2-12.2-27.2-27.2v-169
		c0-15,12.2-27.2,27.2-27.2c14,0,25.6,10.7,27,24.3c12.7,1.3,22.8,11.5,24.1,24.1c13.6,1.4,24.3,13,24.3,27
		C417.6,468,416.6,472.1,414.8,475.8z"/>
	<path fill="#FF9A4D" d="M423.6,500c0,8.2-4.8,15.6-12.1,19.1c-5.1-6.3-12.8-10-21.1-10c-1.2,0-2.4,0.1-3.8,0.3
		c-1.8,0.2-3.5,0.7-5.1,1.2c-1.6,0.6-3.2,1.3-4.6,2.1c-4,2.3-7.4,5.6-9.7,9.6c-2.5,4.2-3.9,9-3.9,13.9c0,7.5-4,14.5-10.6,18.3
		c-1.3,0.8-2.7,1.4-4.2,1.8c-1.3-1.9-3.5-3.2-6-3.2c-4,0-7.2,3.2-7.2,7.2s3.2,7.2,7.2,7.2c3.3,0,6.1-2.2,7-5.3
		c2.2-0.6,4.3-1.5,6.2-2.6c8.4-4.8,13.6-13.8,13.6-23.5c0-3.8,1-7.5,3-10.8c1.8-3.1,4.5-5.7,7.6-7.5c1.1-0.7,2.3-1.2,3.6-1.6
		c1.3-0.4,2.6-0.8,4-1c1.2-0.2,2.1-0.2,3-0.2c7.1,0,13.6,3.5,17.6,9.4c2.3,3.5,3.6,7.6,3.6,11.8c0,11.7-9.5,21.1-21.1,21.1h-3v3
		c0,11.7-9.5,21.1-21.1,21.1h-3v3c0,11.7-9.5,21.1-21.1,21.1s-21.1-9.5-21.1-21.1v-152c5,6.2,12.6,10.1,21.1,10.1
		c1.6,0,3.3,0.2,4.9,0.6c0.2,3.8,3.3,6.9,7.2,6.9c4,0,7.2-3.3,7.2-7.2c0-4-3.2-7.2-7.2-7.2c-1.9,0-3.6,0.7-4.9,1.9
		c-2.3-0.6-4.7-1-7.2-1c-11.7,0-21.1-9.5-21.1-21.1s9.5-21.1,21.1-21.1s21.1,9.5,21.1,21.1v3h3c11.7,0,21.1,9.5,21.1,21.1
		c0,3.7-1,7.3-2.8,10.6c-3.8,6.5-10.8,10.6-18.3,10.6c-9.6,0-18.6,5.2-23.5,13.5l0,0l0,0l-0.1,0.2l0,0c-2.3,4.1-3.5,8.7-3.5,13.3
		c0,2.2,0.3,4.5,0.9,6.8c0.6,2.4,1.5,4.7,2.8,6.8c0.7,1.1,1.4,2.2,2.2,3.2c-0.3,0.8-0.5,1.6-0.5,2.5c0,4,3.3,7.2,7.2,7.2
		c4,0,7.2-3.2,7.2-7.2s-3.2-7.2-7.2-7.2c-0.9,0-1.7,0.2-2.5,0.5c-0.5-0.6-0.9-1.3-1.3-2c-0.9-1.6-1.7-3.4-2.1-5.3
		c-0.5-1.8-0.7-3.6-0.7-5.3c0-3.6,1-7.2,2.7-10.3l0.1-0.2l0,0v-0.1c3.8-6.5,10.8-10.6,18.3-10.6c9.6,0,18.7-5.2,23.5-13.6
		c1.8-3.2,3-6.7,3.5-10.4c10.3,1.4,18.3,10.2,18.3,20.9c0,3.5-0.9,6.9-2.5,9.9c-7.5-1.9-15.4-0.5-21.7,3.8c-1.9,1.3-3.7,2.8-5.2,4.6
		c-0.8,1-1.5,1.8-2.1,2.7c-0.1,0-0.2,0-0.3,0c-4,0-7.2,3.2-7.2,7.2s3.3,7.2,7.2,7.2c4,0,7.2-3.2,7.2-7.2c0-1.7-0.6-3.2-1.5-4.5
		c0.4-0.5,0.7-1,1.2-1.5c1.2-1.4,2.6-2.6,4.1-3.6c5.4-3.6,12.4-4.6,18.8-2.4C417.9,483,423.6,491.1,423.6,500z"/>
	<path fill="#FFFFFF" d="M302.9,415.5v169c0,15-12.2,27.2-27.2,27.2c-14,0-25.6-10.7-27-24.3c-12.7-1.3-22.8-11.4-24.1-24.1
		c-13.6-1.4-24.3-13-24.3-27c0-4.2,1-8.3,2.8-12c-9-4.6-14.9-13.9-14.9-24.2s5.9-19.6,14.9-24.2c-1.8-3.7-2.8-7.8-2.8-12
		c0-14,10.7-25.6,24.3-27c1.3-12.7,11.4-22.8,24.1-24.1c1.4-13.6,13-24.3,27-24.3C290.7,388.3,302.9,400.5,302.9,415.5z
		 M296.8,567.5v-152c0-11.7-9.5-21.1-21.1-21.1c-11.7,0-21.1,9.5-21.1,21.1v3h-3c-11.7,0-21.1,9.5-21.1,21.1v3h-3
		c-11.7,0-21.1,9.5-21.1,21.1c0,4.2,1.2,8.3,3.6,11.8l0,0c3.9,5.8,10.5,9.3,17.5,9.3c0.9,0,1.8-0.1,3-0.2c1.4-0.2,2.7-0.5,4-1
		c1.3-0.4,2.5-1,3.6-1.6c3.1-1.8,5.7-4.4,7.6-7.5c2-3.3,3-7,3-10.8c0-9.6,5.2-18.7,13.6-23.5c2-1.1,4.1-2,6.2-2.6
		c0.9-3,3.7-5.3,7-5.3c4,0,7.2,3.2,7.2,7.2s-3.3,7.2-7.2,7.2c-2.5,0-4.7-1.3-6-3.2c-1.4,0.5-2.8,1.1-4.2,1.8
		c-6.5,3.8-10.6,10.8-10.6,18.3c0,4.9-1.3,9.7-3.8,13.9c-2.4,4-5.7,7.3-9.7,9.6c-1.5,0.8-3,1.6-4.6,2.1c-1.6,0.6-3.4,1-5.1,1.2
		c-1.4,0.2-2.7,0.3-3.9,0.3c-8.2,0-15.9-3.7-21.1-10c-7.3,3.5-12.1,10.9-12.1,19.1c0,8.9,5.7,17,14.2,19.9
		c6.4,2.2,13.3,1.3,18.8-2.4c1.5-1,2.8-2.2,4.1-3.6c0.5-0.5,0.9-1,1.2-1.5c-1-1.2-1.5-2.8-1.5-4.4c0-4,3.2-7.2,7.2-7.2
		s7.2,3.2,7.2,7.2s-3.2,7.2-7.2,7.2c-0.1,0-0.2,0-0.3,0c-0.6,0.9-1.3,1.8-2.1,2.7c-1.6,1.8-3.3,3.4-5.2,4.6c-4.5,3-9.7,4.6-15.1,4.6
		c-2.2,0-4.4-0.3-6.6-0.8c-1.6,3-2.5,6.4-2.5,9.9c0,10.7,8,19.5,18.3,20.9c0.4-3.6,1.6-7.2,3.5-10.3c4.9-8.4,13.8-13.6,23.5-13.6
		c7.5,0,14.5-4.1,18.3-10.6v-0.1l0.1-0.2c1.7-3.1,2.7-6.7,2.7-10.3c0-1.7-0.2-3.5-0.7-5.3c-0.5-1.9-1.2-3.6-2.2-5.3
		c-0.4-0.7-0.8-1.3-1.3-2c-0.8,0.3-1.6,0.5-2.5,0.5c-4,0-7.2-3.2-7.2-7.2s3.2-7.2,7.2-7.2s7.2,3.2,7.2,7.2c0,0.9-0.2,1.7-0.4,2.5
		c0.8,1,1.6,2.1,2.2,3.2c1.2,2.1,2.2,4.4,2.8,6.8c0.6,2.3,0.9,4.6,0.9,6.8c0,4.6-1.2,9.3-3.5,13.3l0,0l-0.1,0.2v0.1
		c-4.9,8.3-13.8,13.5-23.5,13.5c-7.5,0-14.5,4-18.3,10.6c-1.9,3.2-2.8,6.9-2.8,10.6c0,11.7,9.5,21.1,21.1,21.1h3v3
		c0,11.7,9.5,21.1,21.1,21.1c11.7,0,21.1-9.5,21.1-21.1c0-11.7-9.5-21.1-21.1-21.1c-2.4,0-4.8-0.3-7.1-1c-1.3,1.2-3,1.9-4.9,1.9
		c-4,0-7.2-3.2-7.2-7.2s3.2-7.2,7.2-7.2c3.9,0,7.1,3.1,7.2,6.9c1.6,0.4,3.2,0.6,4.8,0.6C284.2,557.3,291.9,561.3,296.8,567.5z"/>
	<g>
		<g>
			<path fill="#FFE2E9" d="M483.6,480.2v16.7h-9.4v-67.4h9.4v37.8l35.6-37.8h11.4l-28.1,30.3l31.3,37.1h-12l-25.9-30L483.6,480.2z"
				/>
			<path fill="#FFE2E9" d="M582.4,473.8c0,14-10.7,24.6-24.6,24.6c-14.1,0-24.7-10.6-24.7-24.6s10.6-24.4,24.7-24.4
				C571.7,449.4,582.4,459.8,582.4,473.8z M573.1,473.8c0-8.9-6.4-16.1-15.4-16.1c-9.1,0-15.6,7.1-15.6,16.1s6.4,16.3,15.6,16.3
				C566.7,490,573.1,482.8,573.1,473.8z"/>
			<path fill="#FFE2E9" d="M637.3,473.8c0,14-10.7,24.6-24.6,24.6c-14.1,0-24.7-10.6-24.7-24.6s10.6-24.4,24.7-24.4
				C626.6,449.4,637.3,459.8,637.3,473.8z M628.1,473.8c0-8.9-6.4-16.1-15.4-16.1c-9.1,0-15.6,7.1-15.6,16.1s6.4,16.3,15.6,16.3
				C621.6,490,628.1,482.8,628.1,473.8z"/>
			<path fill="#FFE2E9" d="M654.7,496.9h-9.1v-70.4h9.1V496.9z"/>
			<path fill="#FFE2E9" d="M665.5,433.3c0-3.3,2.6-5.8,5.9-5.8c3.3,0,5.9,2.5,5.9,5.8s-2.7,5.8-5.9,5.8
				C668,439.1,665.5,436.6,665.5,433.3z M676,496.9h-9v-46.3h9V496.9z"/>
			<path fill="#FFE2E9" d="M720.3,496.6c-4.7,1.4-7.2,1.8-10.8,1.8c-10.8,0-17.1-6.7-17.1-18.7v-21.4H681v-7.6h11.4v-17.1h9.1v17.1
				h17.4v7.6h-17.4v21.4c0,7.2,3.3,10.3,9.6,10.3c2.5,0,5.4-0.5,7.7-1.2L720.3,496.6z"/>
			<path fill="#FFE2E9" d="M771,496.9h-9.1v-4.6c-4.2,3.8-9.4,6-15.7,6c-11.9,0-20-8.4-20-21.7v-26.1h9.1v25.6
				c0,8.9,5,13.9,12.7,13.9c4.9,0,10.1-2.7,13.9-7.6v-31.8h9.1V496.9z"/>
			<path fill="#FFE2E9" d="M787.4,481.9c1.2,5.9,5.7,9,13.3,9c6.5,0,11-2.6,11-6.7c0-3.3-2.7-5.4-6.8-6l-10.3-1.8
				c-7.3-1.2-13.8-4.7-13.8-12.9c0-8.8,7.7-14.3,19-14.3c8.7,0,19.3,3.5,20.3,15.1l-8.4,0.1c-0.7-5.5-5.4-8-11.8-8
				s-10.1,2.7-10.1,6.3c0,2.9,2.1,5.3,7.8,6.2l8.9,1.5c6.8,1.2,13.9,4.3,13.9,13.1c0,9.5-8.4,14.9-20,14.9
				c-11.3,0-20.2-4.9-21.5-16.6L787.4,481.9z"/>
			<path fill="#FFE2E9" d="M529.4,557.1h9.7c-3.2,15.7-15.7,26.3-32.3,26.3c-19.4,0-35.1-15.1-35.1-35.1s15.7-35.1,35.1-35.1
				c16.7,0,29.2,10.6,32.3,26.3h-9.7c-2.8-10.6-11-17.2-22.6-17.2c-14.5,0-25.6,10.9-25.6,26s11.1,26,25.6,26
				C518.4,574.3,526.6,567.7,529.4,557.1z"/>
			<path fill="#FFE2E9" d="M591.4,562.4l-0.2-0.1v0.1h-37.5c1.3,7.2,6.5,13.1,15.6,13.1c5.5,0,9.4-2.2,11.3-5.8h9.8
				c-2.7,8.2-11,13.5-21.4,13.5c-14.5,0-24.3-10.6-24.3-24.3c0-13.8,9.8-24.4,24.3-24.4c13.1,0,22.5,9.9,22.6,23.9
				C591.6,559.7,591.6,561.1,591.4,562.4z M553.7,555.5h28.7c-0.8-7.9-5.8-13.2-13.8-13.2C560.2,542.4,554.9,548.1,553.7,555.5z"/>
			<path fill="#FFE2E9" d="M644.1,555.8V582h-9v-25.7c0-8.8-5-13.9-12.8-13.9c-5,0-10,2.8-13.9,7.7V582h-9.1v-46.3h9.1v4.7
				c4.2-3.9,9.5-6.1,15.7-6.1C636.1,534.2,644.1,542.7,644.1,555.8z"/>
			<path fill="#FFE2E9" d="M685.6,581.7c-4.7,1.4-7.2,1.8-10.8,1.8c-10.8,0-17.1-6.7-17.1-18.7v-21.4h-11.4v-7.6h11.4v-17.1h9.1
				v17.1h17.4v7.6h-17.4v21.4c0,7.2,3.3,10.3,9.6,10.3c2.5,0,5.4-0.5,7.7-1.2L685.6,581.7z"/>
			<path fill="#FFE2E9" d="M734.3,562.4l-0.2-0.1v0.1h-37.5c1.3,7.2,6.5,13.1,15.6,13.1c5.5,0,9.4-2.2,11.3-5.8h9.8
				c-2.7,8.2-11,13.5-21.4,13.5c-14.5,0-24.3-10.6-24.3-24.3c0-13.8,9.8-24.4,24.3-24.4c13.1,0,22.5,9.9,22.6,23.9
				C734.5,559.7,734.5,561.1,734.3,562.4z M696.6,555.5h28.7c-0.8-7.9-5.8-13.2-13.8-13.2C703,542.4,697.8,548.1,696.6,555.5z"/>
			<path fill="#FFE2E9" d="M751.3,542.6c4.3-5,10.2-7.9,17.5-7.9v8.6c-7.4,0.2-13.3,3.4-17.5,9.1V582h-9.1v-46.3h9.1V542.6z"/>
		</g>
	</g>
</g>
</svg>
