<?xml version="1.0" encoding="utf-8"?>
<!-- Generator: Adobe Illustrator 17.1.0, SVG Export Plug-In . SVG Version: 6.00 Build 0)  -->
<!DOCTYPE svg PUBLIC "-//W3C//DTD SVG 1.1//EN" "http://www.w3.org/Graphics/SVG/1.1/DTD/svg11.dtd">
<svg version="1.1" id="Layer_1" xmlns="http://www.w3.org/2000/svg" xmlns:xlink="http://www.w3.org/1999/xlink" x="0px" y="0px"
	 width="1000px" height="1000px" viewBox="0 0 1000 1000" enable-background="new 0 0 1000 1000" xml:space="preserve">
<rect x="-12.2" y="-10.9" fill="#FFFFFF" width="1024.4" height="1021.4"/>
<g>
	<path fill="#FF9500" d="M275.3,354.8v127.7H446V327.7L275.3,354.8z M412.9,464.9h-55.1v-18.1l55.1-8.9V464.9z M412.9,422l-55.1,8.8
		v-22.5l55.1-8.9V422z"/>
	<path fill="#FFBD00" d="M616.4,400v-72.2l-170.4,27h-0.1v127.7h170.5v-51.8h-54.9v-22.5L616.4,400z"/>
	<g>
		<path fill="#616160" d="M230.7,586.6h-9.1l-20.7-51.8h12.6l13,34.2l12.4-34.2h11.9L230.7,586.6z"/>
		<path fill="#616160" d="M285.1,533.9c15.8,0,27.5,10.3,27.5,26.8c0,15.7-11.8,26.8-27.5,26.8s-27.5-10.3-27.5-26.8
			C257.6,545.7,268.6,533.9,285.1,533.9z M285.1,576.4c9.8,0,14.9-7,14.9-15.7c0-9.5-6.6-15.7-14.9-15.7c-8.6,0-14.9,6.2-14.9,15.7
			C270.2,569.6,276.8,576.4,285.1,576.4z"/>
		<path fill="#616160" d="M326.3,548.9c0-8,6.4-14.9,16.7-14.9c6.7,0,12,2.2,15.2,5.7l-6.4,8.9c-2.3-2.1-4-3.5-7.8-3.5
			c-3.3,0-5.2,1.5-5.2,3.8c0,8.6,21.6,6.5,21.6,23.4c0,9-7.8,15.2-17.8,15.2c-7,0-15-3-17.5-8.5l6.7-8.1c3,3.8,7.5,5.5,11.1,5.5
			c3.1,0,4.9-1.6,4.9-4C347.9,564.6,326.3,565.6,326.3,548.9z"/>
		<path fill="#616160" d="M370.8,534.8h42.9v11.1h-15.5v40.7h-11.8v-40.7h-15.5v-11.1H370.8z"/>
		<path fill="#616160" d="M449.4,533.9c15.8,0,27.5,10.3,27.5,26.8c0,15.7-11.8,26.8-27.5,26.8s-27.5-10.3-27.5-26.8
			C421.9,545.7,432.9,533.9,449.4,533.9z M449.4,576.4c9.8,0,14.9-7,14.9-15.7c0-9.5-6.6-15.7-14.9-15.7c-8.6,0-14.9,6.2-14.9,15.7
			C434.5,569.6,441.1,576.4,449.4,576.4z"/>
		<path fill="#616160" d="M493.2,534.8H505v22.6l16.9-22.6h14.2l-19.5,23.9l21,27.9h-15L505,562v24.6h-11.8V534.8z"/>
		<path fill="#616160" d="M548.5,548.9c0-8,6.4-14.9,16.7-14.9c6.7,0,12,2.2,15.2,5.7l-6.4,8.9c-2.3-2.1-4-3.5-7.8-3.5
			c-3.3,0-5.2,1.5-5.2,3.8c0,8.6,21.6,6.5,21.6,23.4c0,9-7.8,15.2-17.8,15.2c-7,0-15-3-17.5-8.5l6.7-8.1c3,3.8,7.5,5.5,11.1,5.5
			c3.1,0,4.9-1.6,4.9-4C570.1,564.6,548.5,565.6,548.5,548.9z"/>
		<path fill="#616160" d="M593,534.8h42.9v11.1h-15.5v40.7h-11.8v-40.7H593V534.8z"/>
		<path fill="#616160" d="M649.9,586.6v-51.8c2.9,0,16.1-0.1,17.6-0.1c14.1,0,19.2,7,19.2,16.6s-5.9,13.5-8.7,14.9l15.1,20.4h-14.4
			l-12.6-18.1h-4.4v18.1L649.9,586.6L649.9,586.6z M661.8,545.9v11.5h4.3c4.5,0,8.1-1.6,8.1-6c0-2.9-1.5-5.6-7.2-5.6
			C665.2,545.8,664.2,545.9,661.8,545.9z"/>
		<path fill="#616160" d="M728,533.9c15.8,0,27.5,10.3,27.5,26.8c0,15.7-11.8,26.8-27.5,26.8s-27.5-10.3-27.5-26.8
			C700.5,545.7,711.5,533.9,728,533.9z M728,576.4c9.8,0,14.9-7,14.9-15.7c0-9.5-6.6-15.7-14.9-15.7c-8.6,0-14.9,6.2-14.9,15.7
			C713,569.6,719.7,576.4,728,576.4z"/>
		<path fill="#616160" d="M772.5,534.8h11.8v51.8h-11.8V534.8z"/>
	</g>
	<g>
		<path fill="#616160" d="M393.9,639.9h14.9v14.6c-3.6,3.6-10.1,5.6-15.2,5.6c-12.1,0-20.1-8.2-20.1-20.8c0-11.6,7.8-20.8,19.7-20.8
			c5.3,0,9.2,1.2,12.5,3.8l-1.4,2.5c-2.7-2.3-6.5-3.3-10.7-3.3c-10,0-16.7,7.4-16.7,17.8c0,10.8,6.8,17.8,16.8,17.8
			c4.4,0,9.4-1.7,12-4.2V643h-11.9v-3.1H393.9z"/>
		<path fill="#616160" d="M430.5,659.5V619c2.3,0,8.6-0.1,9.7-0.1c11.1,0,14.2,5.5,14.2,11.7c0,5.8-4.2,10.1-9.6,11.3l14.2,17.7
			h-3.9l-13.5-17h-7.9v17h-3.2V659.5z M433.7,622v17.5h7c5.2,0,10.4-3.5,10.4-8.9c0-4.9-2.8-8.7-11-8.7
			C438.8,621.9,435.6,621.9,433.7,622z"/>
		<path fill="#616160" d="M494.1,618.5c11.5,0,20.3,8.7,20.3,20.8c0,11.9-8.8,20.8-20.3,20.8s-20.3-8.7-20.3-20.8
			C473.8,627.5,482.4,618.5,494.1,618.5z M494.1,657c9.9,0,17-7.7,17-17.8c0-10.2-7.4-17.8-17-17.8s-17,7.5-17,17.8
			C477.2,649.4,484.6,657,494.1,657z"/>
		<path fill="#616160" d="M566.8,642.6c0,12.4-7.2,17.4-15.3,17.4c-9.4,0-16.4-6-16.4-17.8V619h3.2v22.6c0,9.8,5.3,15.4,13.3,15.4
			c7.1,0,12.2-4.7,12.2-15.1V619h3.2v23.6H566.8z"/>
		<path fill="#616160" d="M590.6,659.5V619c2.3,0,7.6-0.1,9.9-0.1c11.2,0,14.4,6.2,14.4,12.2c0,6.3-4.3,12.4-14.4,12.4
			c-1.9,0-4.4-0.1-6.7-0.2v16.3h-3.2V659.5z M593.8,622v18.2c2.3,0.2,4.3,0.3,6.6,0.3c7.4,0,11.2-3.9,11.2-9.4
			c0-5.3-3.1-9.1-10.8-9.1C599,621.9,595.7,621.9,593.8,622z"/>
	</g>
	<polygon fill="#FFDE00" points="786.8,327.7 786.8,399.5 716.7,410.8 716.7,482.6 616.3,482.6 616.3,354.8 616.4,354.8 	"/>
</g>
</svg>
