<?xml version="1.0" encoding="utf-8"?>
<!-- Generator: Adobe Illustrator 17.1.0, SVG Export Plug-In . SVG Version: 6.00 Build 0)  -->
<!DOCTYPE svg PUBLIC "-//W3C//DTD SVG 1.1//EN" "http://www.w3.org/Graphics/SVG/1.1/DTD/svg11.dtd">
<svg version="1.1" id="Layer_1" xmlns="http://www.w3.org/2000/svg" xmlns:xlink="http://www.w3.org/1999/xlink" x="0px" y="0px"
	 width="1000px" height="1000px" viewBox="0 0 1000 1000" enable-background="new 0 0 1000 1000" xml:space="preserve">
<rect x="-12.2" y="-10.9" fill="#FFFFFF" width="1024.4" height="1021.4"/>
<g>
	<polygon fill="#0078C1" points="352.4,437.3 337.5,427.3 333,420.1 198.3,420.1 185.8,578.1 199.2,586.7 205.5,598.7 360.6,598.7 	
		"/>
	<polygon fill="#A0D9F7" points="352.4,437.3 337.9,437.3 333.7,437.3 216.4,437.3 206.8,578.1 206.3,586.7 205.5,598.7 
		360.6,598.7 	"/>
	<path fill="#5BC4F1" d="M245.8,461.9c0,2.5-2,4.6-4.6,4.6c-2.5,0-4.6-2-4.6-4.6c0-2.5,2-4.6,4.6-4.6
		C243.7,457.3,245.8,459.4,245.8,461.9z M328,457.3c-2.5,0-4.6,2-4.6,4.6c0,2.5,2,4.6,4.6,4.6c2.5,0,4.6-2,4.6-4.6
		C332.6,459.4,330.6,457.3,328,457.3z"/>
	<path fill="#0078C1" d="M329,461.9c0,0,0.1,0.8,0.2,2.4s0.2,3.9,0.3,6.8c0,3,0,6.5-0.2,10.7c-0.2,4.1-0.7,8.8-1.5,13.8
		s-1.9,10.5-3.6,16.2c-1.6,5.7-3.8,11.6-6.8,17.4c-3.1,5.8-6.7,11.7-12.1,16.6c-5.3,4.9-12.3,9-20.9,9l-1.3-0.1h-0.6
		c-0.2,0-0.4,0-0.7-0.1l-1.6-0.2c-0.5-0.1-1.1-0.2-1.5-0.3c-1-0.3-1.9-0.5-2.8-0.8s-1.8-0.7-2.7-1.1c-3.5-1.6-6.6-3.9-9.2-6.4
		s-4.9-5.2-6.9-8c-1.9-2.8-3.6-5.8-5.1-8.7c-2.9-5.9-5-11.8-6.6-17.4c-1.6-5.7-2.6-11.1-3.4-16.1c-0.8-5-1.2-9.7-1.5-13.8
		c-0.3-4.1-0.4-7.7-0.4-10.6s0-5.2,0.1-6.8c0-0.8,0-1.4,0.1-1.8c0-0.2-0.1-0.4,0.3-0.5c0.1,0,0.1,0,0.2-0.1c0.1,0,0.2,0,0.2,0
		c0.1,0,0.2,0,0.2,0s0.1,0,0.2,0c0.1,0,0.1,0,0.2,0c0,0,0.1,0,0.2,0.1c0.3,0.1,0.3,0.3,0.3,0.5c0,0.4,0.1,1,0.1,1.8
		c0.1,1.6,0.3,3.8,0.5,6.7c0.3,2.9,0.7,6.4,1.3,10.4s1.5,8.5,2.6,13.3c1.2,4.8,2.7,9.9,4.7,15.2c1.9,5.2,4.4,10.6,7.3,15.8
		c3,5.1,6.6,10.2,11,14.1c2.2,2,4.6,3.6,7.1,4.8c0.6,0.3,1.3,0.5,1.9,0.8s1.3,0.4,2,0.6c0.3,0.1,0.6,0.1,0.9,0.2l0.9,0.1
		c0.1,0,0.3,0.1,0.5,0.1h0.6l1.2,0.1c-0.4,0-0.1,0-0.2,0h0.1h0.1h0.3h0.5c0.3,0,0.7,0,1-0.1c0.7-0.1,1.3-0.1,2-0.3s1.3-0.3,2-0.6
		c0.7-0.2,1.3-0.4,1.9-0.8c2.5-1.2,4.9-2.8,7.1-4.8s4.2-4.2,6-6.6c1.8-2.4,3.4-5,4.9-7.5c2.9-5.2,5.3-10.6,7.1-15.8
		c1.9-5.3,3.3-10.4,4.5-15.1c1.1-4.8,2-9.2,2.7-13.2c0.6-4,1.1-7.5,1.5-10.3c0.3-2.9,0.6-5.1,0.7-6.7s0.2-2.4,0.2-2.4L329,461.9z"/>
	<path fill="#0078C1" d="M443.5,470.4c3.1,0,5.9,0,9,0c8.7,32.2,17.3,64.4,26,96.7c0.2,0,0.4,0.1,0.6,0.1
		c7.7-32.2,15.5-64.4,23.2-96.7c4.9,0,9.7,0,14.9,0c7.7,32.2,15.5,64.4,23.2,96.6c0.2,0,0.4,0.1,0.6,0.1c8.7-32.3,17.4-64.5,26-96.7
		c3.1,0,5.8,0,9,0c-9.5,35.1-18.9,69.9-28.3,104.9c-4.9,0-9.6,0-14.6,0c-7.6-32.2-15.3-64.5-22.9-96.7c-0.2,0-0.4,0-0.7,0
		c-1.6,6.5-3.2,13.1-4.8,19.6c-5.8,24.4-11.6,48.9-17.2,73.3c-0.7,3.2-2,4.3-5.2,4c-3.4-0.3-6.8-0.1-10.4-0.1
		C462.4,540.5,453,505.5,443.5,470.4z"/>
	<path fill="#0078C1" d="M722,575.4c-3.2,0-5.9,0-9.2,0c0-1.2,0-2.3,0-3.5c0-19.1,0-38.1,0-57.2c0-7-2.3-9.4-9.3-9
		c-9.6,0.6-18.5,3.9-27.1,8.1c-0.9,0.4-1.5,2.3-1.5,3.4c-0.1,18-0.1,35.9-0.1,53.9c0,1.3,0,2.6,0,4.1c-3,0-5.8,0-8.9,0
		c0-35.9,0-71.9,0-108.1c2.8-0.4,5.6-0.7,8.8-1.1c0,13.1,0,26,0,38.9c6.3-2.1,12.1-4.3,18-5.8c4.2-1.1,8.6-1.8,12.9-1.9
		c10.4-0.2,15.9,5,16.2,15.5c0.3,12.7,0.1,25.4,0.1,38.1C722,558.9,722,567,722,575.4z"/>
	<path fill="#0078C1" d="M651.9,507.1c-5.2-0.5-10.1-1.3-15.1-1.5c-4.6-0.2-9.2-0.2-13.7,0.3c-4.6,0.4-6.8,2.6-7.3,7.4
		c-0.4,3.7-0.5,7.5,0.4,11c0.5,2,2.9,4.2,4.9,5.1c4.9,2,10.2,3.1,15.3,4.7c2.8,0.9,5.6,1.8,8.3,2.9c5.4,2.2,8.8,6.1,9.1,12.1
		c0.2,4.4,0.3,8.8-0.3,13.1c-1.1,7.9-5.4,12.4-13.3,13.8c-11.5,2.1-22.8,1.1-34.3-2.8c0.5-2.5,1-4.9,1.5-7c6.4,0.9,12.5,2,18.7,2.5
		c3.4,0.3,7-0.1,10.5-0.5c5.2-0.6,7.7-3.3,8.3-8.6c0.1-1.4,0.1-2.8,0.1-4.3c0-9-1.8-11.1-10.5-13.4c-5.7-1.5-11.4-2.9-17-4.8
		c-6.6-2.2-10.7-6.7-10.8-14c-0.1-3.4-0.4-6.8,0-10.1c1.1-8.8,5.5-13.5,14-15c10.1-1.8,20.3-1.1,30.3,1.2c0.8,0.2,1.6,1.4,1.9,2.3
		c0.3,1-0.1,2.2-0.2,3.3C652.3,505.6,652.1,506.3,651.9,507.1z"/>
	<path fill="#0078C1" d="M831.2,567.1c0.6,2.4,1.1,4.6,1.7,7c-8.1,2.8-16.2,4-24.4,1.9c-5.7-1.5-8.8-6.1-8.9-13
		c-0.1-17.5-0.1-35.1-0.1-52.6c0-1.2,0-2.4,0-3.8c-5.1,0-9.8,0-14.8,0c0-2.7,0-5,0-7.7c4.7,0,9.5,0,14.8,0c0-4.6,0-9,0-13.3
		c0-4.9,0-4.9,4.8-5.7c1.3-0.2,2.6-0.2,4.2-0.4c0,6.4,0,12.6,0,19.2c7.9,0,15.5,0,23.5,0c-0.3,2.8-0.6,5.2-0.8,7.8
		c-7.4,0-14.7,0-22.2,0c-0.1,1-0.3,1.7-0.3,2.4c0,17.3,0,34.6,0,51.9c0,6.5,1.9,8.3,8.5,8.3c2.3,0,4.6-0.2,6.9-0.5
		C826.3,568.3,828.6,567.7,831.2,567.1z"/>
	<path fill="#0078C1" d="M593.1,575.4c-3,0-5.7,0-8.6,0c0-25.5,0-51,0-76.6c2.8,0,5.6,0,8.6,0C593.1,524.2,593.1,549.7,593.1,575.4z
		 M593.1,483.9c0-5.6,0-11,0-16.5c-3.1,0-5.9,0-8.8,0c0,5.6,0,10.9,0,16.5C587.4,483.9,590.2,483.9,593.1,483.9z"/>
	<path fill="#0078C1" d="M765.4,498.7c2.9,0,5.6,0,8.6,0c0,25.5,0,51,0,76.6c-2.8,0-5.6,0-8.6,0
		C765.4,549.9,765.4,524.4,765.4,498.7z M774.2,483.9c0-5.6,0-11,0-16.5c-3,0-5.9,0-8.9,0c0,5.6,0,10.9,0,16.5
		C768.4,483.9,771.2,483.9,774.2,483.9z"/>
	<path fill="#0078C1" d="M404.1,498.7c2.9,0,5.6,0,8.6,0c0,25.5,0,51,0,76.6c-2.8,0-5.6,0-8.6,0
		C404.1,549.9,404.1,524.4,404.1,498.7z M412.8,483.9c0-5.6,0-11,0-16.5c-3,0-5.9,0-8.9,0c0,5.6,0,10.9,0,16.5
		C407.1,483.9,409.9,483.9,412.8,483.9z"/>
	<path fill="#0078C1" d="M337.5,427.3l-4.5-7.2h-6.9c-3.3-12.2-11.7-20.8-21.4-20.8c-9.8,0-18.1,8.7-21.4,20.8h-7
		c-3.3-12.2-11.6-20.8-21.4-20.8c-9.8,0-18.1,8.7-21.4,20.8h-35.1l12,7.2l6,10h15.8h3.8h12.1h21.5h5.7h2.1h4.6h2.1h5.7l7.5,0.1h4.7
		l9.3-0.1h12.1h3.8h6.3h4.3h14.5L337.5,427.3z"/>
	<path fill="#FFFFFF" d="M289.2,431.9c0-8.9,5.1-16.1,11.4-16.1S312,423,312,431.9c0,1.9-0.2,3.7-0.7,5.4h12.1
		c0.1-1.4,0.2-2.8,0.2-4.2c0-15.5-8.9-28.2-19.9-28.2s-19.9,12.6-19.9,28.2c0,1.4,0.1,2.8,0.2,4.2h5.7
		C289.5,435.6,289.2,433.8,289.2,431.9z"/>
	<path fill="#FFFFFF" d="M247.5,431.9c0-8.9,5.1-16.1,11.4-16.1s11.4,7.2,11.4,16.1c0,1.9-0.2,3.7-0.7,5.4h5.7
		c0.1-1.4,0.2-2.8,0.2-4.2c0-15.5-8.9-28.2-19.9-28.2s-19.9,12.6-19.9,28.2c0,1.4,0.1,2.8,0.2,4.2H248
		C247.7,435.6,247.5,433.8,247.5,431.9z"/>
</g>
</svg>
