<?xml version="1.0" encoding="utf-8"?>
<!-- Generator: Adobe Illustrator 17.1.0, SVG Export Plug-In . SVG Version: 6.00 Build 0)  -->
<!DOCTYPE svg PUBLIC "-//W3C//DTD SVG 1.1//EN" "http://www.w3.org/Graphics/SVG/1.1/DTD/svg11.dtd">
<svg version="1.1" id="Layer_1" xmlns="http://www.w3.org/2000/svg" xmlns:xlink="http://www.w3.org/1999/xlink" x="0px" y="0px"
	 width="1000px" height="1000px" viewBox="0 0 1000 1000" enable-background="new 0 0 1000 1000" xml:space="preserve">
<rect y="-2.2" fill="#E20613" width="1000" height="1004.4"/>
<path fill="#FFFFFF" d="M510,549.5c-8.8,0-14.4,5.4-15.6,12.9l29-0.1v-1.5C523.4,553.9,519,549.5,510,549.5z M510,549.5
	c-8.8,0-14.4,5.4-15.6,12.9l29-0.1v-1.5C523.4,553.9,519,549.5,510,549.5z M698.9,641.3l9.4-9.3c5.3-5.3,5.3-13.8,0-19
	c-5.3-5.3-13.8-5.3-19,0c5.3-5.3,5.3-13.8,0-19c-5.3-5.3-13.8-5.3-19,0c5.3-5.3,5.3-13.8,0-19c-2.6-2.6-5.9-3.9-9.3-3.9
	c-3-3.2-5.6-6.9-7.9-11.1c0.2,2,0.3,4.1,0.3,6.2v51h-32.5v-45.4c0-10-4.6-14.9-13.4-14.9c-7.3,0-12,3.9-14.4,7.3v53h-32.5v-88.6
	l32.5-7.1v16.9c6.6-7.5,15.6-11.3,26.8-11.3c10.6,0,18.4,3.4,23.8,9.1c-5.8-19.9-9.2-43.6-14-65.8c-1.8-12.2-5.2-24.1-10.2-35.3
	c-3.2-8.1-7.1-15.3-12-21.4c-4.5-6.6-9.7-12.9-15.5-18.7c-49.8-49.8-130-51.9-188.1-8.1v96.9h55.2L452,512h-80.6v-92.3
	c-42.8,58-40.4,137.5,9,186.9c1,1,2.1,2,3.1,3l6-21.8c8.6,4.4,18,8.1,26.3,8.1c5.4,0,8.6-1.4,8.6-4.4c0-2.5-2.4-4.1-7.1-5.4
	l-11.7-3.2c-15.6-4.2-21.7-12.5-21.7-25.4c0-18.1,13.7-30.3,39-30.3c11.9,0,25.6,3.4,32.5,6.8l-7.9,23.6c-8.1-4.4-16.6-6.8-24.1-6.8
	c-4.6,0-7.1,1.7-7.1,4.9c0,2.5,1.5,3.4,5.4,4.6l13.2,3.9c17.6,5.1,22.4,14.4,22.4,25.6c0,16.9-15.2,29.1-38.8,29.1
	c-12.9,0-23.6-2.8-30.8-5.6c3.5,3,7.1,5.8,10.8,8.4c3,2.2,6.3,4.3,9.8,6.2c13.5,7.7,28.2,12.9,43.4,15.7
	c40.4,10.3,86.1,15.3,104.9,32.2c0.1,3.3,1.4,6.6,3.9,9.1c5.3,5.3,13.8,5.3,19,0c-5.3,5.3-5.3,13.8,0,19c5.3,5.3,13.8,5.3,19,0
	c-5.3,5.3-5.3,13.8,0,19c5.3,5.3,13.8,5.3,19,0l9.4-9.3c-0.5,3,0.3,6.1,2.6,8.4c3.7,3.7,9.8,3.7,13.5,0l1.6-1.6l32.2-5.6
	c9.2-1.6,17.9-10.3,19.4-19.4l5.6-32.2l5.5-5.5c3.7-3.7,3.7-9.8,0-13.5C705.1,641.6,701.9,640.8,698.9,641.3z M489.4,392.4
	c10.3,0,17.3,3.7,17.3,14.4s-6.9,14.4-17.3,14.4c-10.3,0-17.8-3.6-17.8-14.4C471.6,396.2,478.7,392.4,489.4,392.4z M505.5,427v85
	H473v-77.9L505.5,427z M513.9,594.5c8.1,0,18.5-4.1,23.4-7.8l12,20.8c-9.1,7.5-22.9,12-38.1,12c-33.4,0-48.6-19.8-48.6-46.4
	c0-26.9,18.6-46.9,47.1-46.9c26.9,0,40.1,16.9,40.1,36.9c0,5.9-0.8,13.4-1.9,16.8h-54C495.4,588.2,501.9,594.5,513.9,594.5z
	 M556.9,464v48h-32.5v-88.6l32.5-7.1v21.8c5.3-9.8,12.7-16.3,24.6-16.3c5.4,0,11.5,1.4,16.4,4.4l-8.3,28.8
	c-4.1-1.9-9.5-3.4-15.2-3.4C565.4,451.6,559,456.9,556.9,464z M510,549.5c-8.8,0-14.4,5.4-15.6,12.9l29-0.1v-1.5
	C523.4,553.9,519,549.5,510,549.5z M510,549.5c-8.8,0-14.4,5.4-15.6,12.9l29-0.1v-1.5C523.4,553.9,519,549.5,510,549.5z M510,549.5
	c-8.8,0-14.4,5.4-15.6,12.9l29-0.1v-1.5C523.4,553.9,519,549.5,510,549.5z"/>
<path fill="#FFEC00" d="M356.2,354.6c0,0-39.7-32.6-44-28.3l28.3,44c4.3,4.3,11.3,4.3,15.7,0C360.5,366,360.5,358.9,356.2,354.6z
	 M489.5,253l-11.1,51.1c0,6.1,5,11.1,11.1,11.1s11.1-5,11.1-11.1L489.5,253z M287.9,494.6l-51.1,11.1l51.1,11.1
	c6.1,0,11.1-5,11.1-11.1C299.1,499.5,294.1,494.6,287.9,494.6z M676.9,338.4l-44,28.3c-4.3,4.3-4.3,11.4,0,15.7
	c4.3,4.3,11.4,4.3,15.7,0C648.6,382.4,681.2,342.8,676.9,338.4z M365.7,649.6c-4.3-4.4-11.3-4.4-15.7,0l-28.3,44l44-28.3
	C370,661,370,653.9,365.7,649.6z"/>
</svg>
