<?xml version="1.0" encoding="utf-8"?>
<!-- Generator: Adobe Illustrator 17.1.0, SVG Export Plug-In . SVG Version: 6.00 Build 0)  -->
<!DOCTYPE svg PUBLIC "-//W3C//DTD SVG 1.1//EN" "http://www.w3.org/Graphics/SVG/1.1/DTD/svg11.dtd">
<svg version="1.1" id="Layer_1" xmlns="http://www.w3.org/2000/svg" xmlns:xlink="http://www.w3.org/1999/xlink" x="0px" y="0px"
	 width="1000px" height="1000px" viewBox="0 0 1000 1000" enable-background="new 0 0 1000 1000" xml:space="preserve">
<rect x="-13.1" y="-11.7" fill="#1A1A1A" width="1032.7" height="1032.7"/>
<g>
	<path fill="#FFFFFB" d="M250.9,473.2c4.5,2.5,8.9,4.2,12.5,7c12.3,9.4,13,27.4,1.9,39.9c-7.3,8.2-16.8,12.2-27.4,14.2
		c-13.9,2.6-39.5-0.5-52-6.5c0-8.7,0-17.5,0-26.3c0-24.1,0-48.3,0-72.4c0-2-0.6-4.1,2.5-5c18-5.5,36.1-8.3,54.8-4.2
		c6.9,1.5,13.2,4.4,18.3,9.4c12.1,11.9,9.8,30.8-5,40.7C254.8,471,252.9,472.1,250.9,473.2z M210.1,515c10.2,2.1,20.2,3.8,30-0.7
		c6.3-2.9,9.6-8.7,9.2-15.7c-0.4-6.3-3.8-11.4-10.8-12.7c-9.3-1.7-18.8-2-28.4-2.9C210.1,494.5,210.1,504.6,210.1,515z M210.1,467.2
		c9.3-1,18.2-1.2,26.8-3.1c6.8-1.5,10.1-7.5,9.8-13.9c-0.3-6.7-3.9-11-11.2-12.8c-8.4-2-16.8-1.2-25.3,0.3
		C210.1,447.1,210.1,456.4,210.1,467.2z"/>
	<path fill="#FFFFFB" d="M590.8,530.7c0,9.9,0,19.3,0,28.9c-7.4,0-14.5,0-22.3,0c0-1.4,0-2.8,0-4.3c0-29.4,0.1-58.8-0.1-88.2
		c0-3,0.8-4.9,3.3-6.4c15.5-9.4,32.1-12.6,49.8-8c12.6,3.3,20.8,11.6,24.5,24.2c3.5,11.8,3,23.6-1.4,35
		c-7.6,19.6-29.7,28.7-49.5,20.6C593.8,531.9,592.6,531.4,590.8,530.7z M590.8,493.5c0,5.7-0.1,11.4,0.1,17.1c0,1.3,0.6,3.1,1.6,3.9
		c10.5,8.3,27.5,3.3,30.8-9.6c1.7-6.7,1.8-14,1.4-21c-0.5-7.2-4.2-13.1-11.8-14.8c-6.3-1.4-12.5-0.7-18.5,2.1
		c-2.5,1.2-3.8,2.6-3.6,5.6C591,482.4,590.8,487.9,590.8,493.5z"/>
	<path fill="#FFFFFB" d="M375.7,497.5c-19.4,0-37.4,0-55.5,0c-0.1,9.6,7,17.6,17.1,19.6c9.8,1.9,19,0.3,27.8-4.2
		c1.4-0.7,2.7-1.4,4.9-2.5c0,5.8,0.1,11.1-0.1,16.4c0,0.7-0.9,1.5-1.6,2c-20.2,14.8-57,5-67-17.8c-8-18.2-4.4-38.7,9.2-50.7
		c17.3-15.3,54-14.6,62.8,14.9C375.3,482.2,374.9,489.8,375.7,497.5z M356,483.6c-1.3-11.5-7.7-17.4-18.1-17.1
		c-10.7,0.3-17.5,6.7-17.9,17.1C332,483.6,344,483.6,356,483.6z"/>
	<path fill="#FFFFFB" d="M758.2,497.5c1.8,14.3,13.5,22.5,29,20.1c7-1.1,13.8-3.7,21.2-5.8c0,4.5,0.1,9.8-0.1,15.1
		c0,0.7-0.9,1.5-1.6,2c-20.2,14.8-57,5-67-17.8c-8-18.2-4.4-38.7,9.2-50.7c17.3-15.3,54-14.6,62.8,14.9c2.1,6.9,1.6,14.5,2.4,22.2
		C794.7,497.5,776.6,497.5,758.2,497.5z M794.4,483.6c-1.2-11.4-7.6-17.3-18.1-17.1c-10.7,0.2-17.4,6.6-18,17.4c11,0,21.9,0,32.9,0
		C792.3,483.8,793.4,483.7,794.4,483.6z"/>
	<path fill="#FFFFFB" d="M715.1,515.6c0,4-0.3,7.8,0.1,11.4c0.5,4.4-1.2,6.9-5.5,7.1c-5.7,0.3-11.5,1.1-17,0.1
		c-10.3-1.8-16.4-10.3-16.6-22.1c-0.3-20.1-0.2-40.2-0.2-60.3c0-11.1,0-22.3,0-33.8c7.3,0,14.5,0,22.3,0c0,1.7,0,3.5,0,5.3
		c0,26.8,0,53.5,0,80.3c0,1.7,0,3.4,0.1,5.1c0.3,6.1,3,8.7,9.1,8.3C709.8,517,712.2,516.2,715.1,515.6z"/>
	
		<linearGradient id="SVGID_1_" gradientUnits="userSpaceOnUse" x1="405.8499" y1="429.0069" x2="517.8924" y2="554.6546" gradientTransform="matrix(1 0 0 -1 0 1000)">
		<stop  offset="0" style="stop-color:#FF00BF"/>
		<stop  offset="1" style="stop-color:#007BFF"/>
	</linearGradient>
	<path fill="url(#SVGID_1_)" d="M445.5,484.3c0-15,12.1-27.1,27.1-27.1s27.1,12.1,27.1,27.1s-12.1,27.1-27.1,27.1
		C457.7,511.4,445.5,499.3,445.5,484.3z M485,517.1h-26c-13.4,0-24.8,8.5-29.2,20.4c9.4,10.2,23.3,16.1,40.3,16.4
		c18.5,0.3,33.5-6.6,43-18.7C508.2,524.5,497.5,517.1,485,517.1z M544.7,500.6c-0.7,45.3-30.2,74.6-74.6,73.9
		c-14.6-0.2-27.5-3.5-38.3-9.3l-11.4,13.9c-2.7,3.5-7.7,4-11.2,1.3l-9.3-7.3c-3.4-2.7-4-7.7-1.3-11.2l11.9-14.7l0.6,0.4
		c-10-12.9-15.4-29.9-15.1-49.8c0.6-46.5,30.7-76.6,75.9-75.9C517.1,422.7,545.4,453.2,544.7,500.6z M531.5,500.2
		c0.6-39-22.7-64-59.9-64.6s-62,24.2-62.4,62.4c-0.4,37.7,23.5,62.4,60.9,63C506.7,561.5,531,537.5,531.5,500.2z"/>
</g>
</svg>
