<?xml version="1.0" encoding="utf-8"?>
<!-- Generator: Adobe Illustrator 17.1.0, SVG Export Plug-In . SVG Version: 6.00 Build 0)  -->
<!DOCTYPE svg PUBLIC "-//W3C//DTD SVG 1.1//EN" "http://www.w3.org/Graphics/SVG/1.1/DTD/svg11.dtd">
<svg version="1.1" id="Layer_1" xmlns="http://www.w3.org/2000/svg" xmlns:xlink="http://www.w3.org/1999/xlink" x="0px" y="0px"
	 width="1000px" height="1000px" viewBox="0 0 1000 1000" enable-background="new 0 0 1000 1000" xml:space="preserve">
<rect x="-16.9" y="-16.9" fill="#009E1D" width="1033.7" height="1033.7"/>
<path fill="#FFFFFF" d="M506.1,464.9L462.4,533l-11.8,18.4c-10.7,16.6-29.1,26.7-48.8,26.7h-39.3c-22.3,0-43.1-11.4-55.2-30.2
	l-33.5-52.3c-6.5-10.2-21.4-10.2-27.9,0l-44.7,69.6c-5.1,8-13.9,12.8-23.4,12.8h-0.7c-22,0-35.3-24.4-23.3-42.9l55.2-85.3
	c11.1-17.1,30.1-27.4,50.4-27.4h0.7c20.4,0,39.4,10.3,50.4,27.4l54,83.5c7.1,12.1,22.8,12.9,30.8,0l1.7-2.7l-42.3-65.9
	c-11.7-18.3,1.4-42.4,23.2-42.4h0.7c9.3,0,18,4.7,23.1,12.6l28.6,44.3l28.6-44.3c5.1-7.8,13.8-12.6,23.1-12.6h0.7
	C504.7,422.5,517.9,446.6,506.1,464.9z"/>
<path fill="#FFFFFF" d="M795.6,421.9h-46.2v0.3H742c-22.9,0-41.4,18.5-41.4,41.4v65.9c0,6.8-8.9,9.4-12.5,3.6l-0.1-0.2l-53.8-83.1
	c-11.1-17.1-30.1-27.4-50.4-27.4H583c-20.4,0-39.4,10.3-50.4,27.4l-55.2,85.3c-12,18.5,1.3,42.9,23.3,42.9h0.7
	c9.5,0,18.3-4.8,23.4-12.8l22.9-35.7c-1-3.4-1.6-6.9-1.6-10.6c0-20.3,16.5-36.7,36.7-36.7c20.3,0,36.7,16.4,36.7,36.7
	c0,3.3-0.4,6.4-1.2,9.5l12.5,19.5c12.1,18.8,27.3,30.2,49.6,30.2h20.2h6.5c27.5,0,45.9-19.2,50.2-45.1h38.4c30.4,0,55-24.6,55-55
	v-1.1C850.6,446.5,826,421.9,795.6,421.9z M774.5,497.3c-6.7,0-12.6-3.2-16.4-8.1c-2.7-3.5-4.3-7.8-4.3-12.6c0-4.7,1.6-9.1,4.3-12.6
	c3.8-4.9,9.7-8.1,16.4-8.1c11.4,0,20.7,9.3,20.7,20.7S785.9,497.3,774.5,497.3z"/>
<path fill="#167627" d="M619.5,518.9c0,3.3-0.4,6.4-1.2,9.5l-21-32.8c-6.5-10.2-21.4-10.2-27.9,0l-21.8,33.9
	c-1-3.4-1.6-6.9-1.6-10.6c0-20.3,16.5-36.7,36.7-36.7C603.1,482.2,619.5,498.6,619.5,518.9z"/>
<path fill="#E20613" d="M619.5,518.9c0,3.3-0.4,6.4-1.2,9.5c-4.2,15.7-18.5,27.3-35.5,27.3c-16.6,0-30.6-11-35.2-26.1
	c-1-3.4-1.6-6.9-1.6-10.6c0-20.3,16.5-36.7,36.7-36.7C603.1,482.2,619.5,498.6,619.5,518.9z"/>
<circle fill="#FFFFFF" cx="582.8" cy="518.9" r="9.8"/>
</svg>
