<?xml version="1.0" encoding="utf-8"?>
<!-- Generator: Adobe Illustrator 17.1.0, SVG Export Plug-In . SVG Version: 6.00 Build 0)  -->
<!DOCTYPE svg PUBLIC "-//W3C//DTD SVG 1.1//EN" "http://www.w3.org/Graphics/SVG/1.1/DTD/svg11.dtd">
<svg version="1.1" id="Layer_1" xmlns="http://www.w3.org/2000/svg" xmlns:xlink="http://www.w3.org/1999/xlink" x="0px" y="0px"
	 width="1000px" height="1000px" viewBox="0 0 1000 1000" enable-background="new 0 0 1000 1000" xml:space="preserve">
<rect x="-4.4" y="0" width="1008.8" height="1000"/>
<g>
	<path fill="#45C72A" d="M261.9,500c0,28-22.8,50.8-50.8,50.8h-50.8V449.2h50.8C239.2,449.2,261.9,472,261.9,500z"/>
	<path fill="#45C72A" d="M370.1,490.3c0,16.5-9.9,30.9-24.1,37.3l15.4,23.2h-87.1V449.2h54.9C351.8,449.2,370.1,467.6,370.1,490.3z"
		/>
	<path fill="#45C72A" d="M411.6,536.3c0,8-6.5,14.5-14.5,14.5s-14.5-6.5-14.5-14.5s6.5-14.5,14.5-14.5S411.6,528.3,411.6,536.3z"/>
	<path fill="#45C72A" d="M522.1,497.4h-18.3v5.2h18.3v48.2h-50.8c-28,0-50.8-22.8-50.8-50.8c0-28,22.8-50.8,50.8-50.8h50.8V497.4z"
		/>
	<path fill="#FFFFFF" d="M638.5,500c0,29.5-24,53.4-53.4,53.4c-29.5,0-53.4-23.9-53.4-53.4c0-29.5,23.9-53.4,53.4-53.4
		C614.5,446.6,638.5,470.5,638.5,500z"/>
	<path fill="#45C72A" d="M723.5,550.8h-75.3V449.2h75.3V550.8z"/>
	<path fill="#45C72A" d="M813.4,500h26.3v50.8H738.1V449.2h75.3V500z"/>
	<path fill="#45C72A" d="M557,487.7h5.8v24.6H557V487.7z M565.2,487.7v24.6h5.8v-24.6H565.2z M597.9,512.3h5.8v-24.6h-5.8V512.3z
		 M606,487.7v24.6h5.8v-24.6H606z M573.3,471.4v57.2h5.8v-57.2H573.3z M589.7,471.4v57.2h5.8v-57.2H589.7z M581.5,471.4v57.2h5.8
		v-57.2H581.5z"/>
</g>
</svg>
