<?xml version="1.0" encoding="utf-8"?>
<!-- Generator: Adobe Illustrator 17.1.0, SVG Export Plug-In . SVG Version: 6.00 Build 0)  -->
<!DOCTYPE svg PUBLIC "-//W3C//DTD SVG 1.1//EN" "http://www.w3.org/Graphics/SVG/1.1/DTD/svg11.dtd">
<svg version="1.1" id="Layer_1" xmlns="http://www.w3.org/2000/svg" xmlns:xlink="http://www.w3.org/1999/xlink" x="0px" y="0px"
	 width="1000px" height="1000px" viewBox="0 0 1000 1000" enable-background="new 0 0 1000 1000" xml:space="preserve">
<rect fill="#5E4A1D" width="1000" height="1000"/>
<path fill="#FFF9CD" d="M490.6,338.2L305,341l185.8,2.9h1.3v-5.8L490.6,338.2z M508.2,338.2h-1.3v5.8h1.2l188.5-2.9L508.2,338.2z
	 M499.4,271.6c-2.6,0-4.9,2.3-4.9,5c0,2.8,2.3,5.1,4.9,5.1c2.7,0,4.9-2.3,4.9-5.1C504.3,273.9,502.1,271.6,499.4,271.6z
	 M499.4,271.6c-2.6,0-4.9,2.3-4.9,5c0,2.8,2.3,5.1,4.9,5.1c2.7,0,4.9-2.3,4.9-5.1C504.3,273.9,502.1,271.6,499.4,271.6z
	 M499.4,271.6c-2.6,0-4.9,2.3-4.9,5c0,2.8,2.3,5.1,4.9,5.1c2.7,0,4.9-2.3,4.9-5.1C504.3,273.9,502.1,271.6,499.4,271.6z
	 M499.4,271.6c-2.6,0-4.9,2.3-4.9,5c0,2.8,2.3,5.1,4.9,5.1c2.7,0,4.9-2.3,4.9-5.1C504.3,273.9,502.1,271.6,499.4,271.6z
	 M704.7,318.4c-3.5,0-5.2,1.5-6.5,3.8c-41,0-29,0-70.5,0c-20.6,0-36.2-1.6-50.5-6.5c-0.2-0.2-0.5-0.3-0.6-0.4c-1-0.7-2-1.4-3-2.1
	c-1.1-0.9-2.1-1.7-3.1-2.7c5.7-3.5,10.5-8.4,13.8-14.2c1-1.9,1.9-4,2.6-6.1c0.7-2.1,1.3-4.3,1.6-6.6v-0.1c0.8-5,0.4-10-1.6-14.3
	c-0.4-0.9-0.9-1.7-1.4-2.5c-0.4-0.6-0.9-1.3-1.4-1.9c-0.6-0.8-1.3-1.5-2.1-2c-2.6-2.2-5.8-3.2-8.9-3c-3.1,0.1-6.2,1.4-8.7,3.8
	c-0.6,0.5-1,1.1-1.6,1.7c-5,6.5-5.9,16.7-4.5,25.6c0.3,1.7,0.7,3.4,1.1,5c0.5,1.6,1,3.1,1.6,4.5l0.1,0.2c0.9,2.2,2.1,4.2,3.4,6.2
	c-12.4,8.8-27.5,9.6-41,4.9l0,0c3.8-2.6,7.3-5.6,10.4-8.9v-0.1h0.1c2.3-2.5,4.3-5.3,6-8.4c1.6-3.2,3-6.8,3.9-10.9
	c1.3-6.1,1-12.7-1-18.7c-0.4-1.2-0.8-2.3-1.3-3.4s-1.1-2.1-1.7-3.1c0,0,0,0-0.1,0v-0.1c-2.3-3.6-5.4-6.5-9.3-8.4
	c-0.7-0.4-1.5-0.7-2.3-1c-0.8-0.2-1.6-0.5-2.5-0.7h-0.1c-1.5-0.3-3-0.6-4.4-0.6c-0.1-5.6-0.9-11-3.1-15.5
	c-4-8.5-11.2-12.7-18.5-12.7c-7.2,0-14.5,4.2-18.4,12.7c-2.2,4.5-3,9.9-3.1,15.5c-1.5,0-3,0.2-4.4,0.6h-0.1
	c-9.5,2.4-16.3,10.9-18.3,20.3c-1.7,7.9-0.5,16.3,2.8,23.6c3.6,7.9,9.3,13,15.7,18.5c0.6,0.5,1.2,0.9,1.8,1.4
	c-13.5,4.7-28.6,3.8-41-4.9c1.3-1.9,2.5-4,3.4-6.2l0.1-0.2c5.1-9.9,5-26-1.9-35c-0.5-0.6-1-1.3-1.6-1.7c-2.5-2.4-5.6-3.7-8.7-3.8
	c-15.3-0.4-17.9,19.5-13.8,30.4c0.7,2.1,1.6,4.1,2.6,6.1c3.3,5.9,8,10.7,13.7,14.2c-0.9,0.9-1.9,1.8-3,2.7c-5.3,4.1-12,5.9-18.7,6.9
	c-10.6,1.6-21.3,2.1-32,2.1h-72.6c-1.4-2.3-3.1-3.8-6.6-3.8s-7.7,3.5-7.7,7.7s4.2,7.6,7.7,7.6s5.3-1.5,6.6-3.8h56.5
	c12.5,0,25-0.8,37.2-3c11-2,22-5.3,30.9-12.2c1.3-1,2.5-2.1,3.6-3.3c3.2,1.7,6.5,3.1,10.1,4.1v0.1c12.3,3.2,25.7,2.2,37.5-2.6
	c1.7,1.3,3.4,2.4,5.2,3.6c1.2,0.8,1.7,1.1,2.2,1.4c4.2,2.7,8.7,5.7,12.5,9.1c-2.3,2.3-4.8,5.3-6.3,8.6c-0.4,0.8-0.6,1.6-0.8,2.4
	c-0.5,1.9-0.5,3.8,0.2,5.7c0.4,1.2,1.1,2.3,2.2,3.5c0.8,0.9,1.8,1.6,3.1,2c3.2,1.1,7.2,0.8,9.7-2c1.1-1.1,1.8-2.3,2.2-3.5
	c0.7-1.9,0.7-3.8,0.2-5.7c-0.2-0.8-0.5-1.6-0.8-2.4c-1.5-3.3-4.1-6.2-6.3-8.6c3.8-3.4,8.4-6.3,12.6-9.1c0.5-0.3,0.9-0.6,2.1-1.4
	c1.8-1.2,3.6-2.3,5.3-3.6c7,2.9,14.9,4.4,22.8,4.4c2.4,0,4.8-0.2,7.3-0.5c2.4-0.3,4.9-0.8,7.3-1.4v-0.1h0.1c3.5-1,6.9-2.3,10.1-4.1
	c1.1,1.2,2.3,2.3,3.7,3.3c0.9,0.8,2,1.5,3.1,2.2s2.3,1.4,3.4,2c9,4.8,20.7,7.9,34.3,9.4c8.4,1,34.4,1.5,44.1,1.5c0.1,0,0.2,0,0.2,0
	h40.8c1.3,2.3,3.1,3.8,6.6,3.8s7.7-3.4,7.7-7.6C712.4,321.9,708.2,318.4,704.7,318.4z M419.3,287.1c-2.7-6.6-2.9-13.5-0.7-18.4
	c3.4-7.8,9.4-7,13.9-3c2.6,2.3,4.7,5.7,5.5,9.1c1.4,5.8,1.3,12.5-0.1,18.2c-0.5,2.1-2,4.1-2,6.4v0.1c-0.9,2-2,4-3.2,5.8
	C426.6,300.3,422,293.8,419.3,287.1z M485,241.2c3-6.3,8.7-9.4,14.4-9.4c5.7,0,11.5,3.1,14.4,9.4c0.9,2,1.6,4.1,2,6.5
	c-4.3,1-8.4,3.4-11.8,7.2c-1.2,1.3-2.2,2.7-3.2,4.4c-0.5,0.9-1,1.9-1.5,2.9c-0.5-1-0.9-2-1.5-2.9c-1-1.6-2-3.1-3.1-4.4
	c-3.4-3.8-7.6-6.2-11.9-7.2C483.4,245.4,484.1,243.2,485,241.2z M482.6,250c3.8,0.9,7.5,3,10.5,6.4c1,1.2,2,2.6,2.9,4.1
	s1.6,3.1,2.3,5c0.1,0,0.1,0,0.1,0.1l1.1,2.8l1-2.8c0-0.1,0-0.1,0-0.1c0.6-1.9,1.4-3.5,2.3-5s1.8-2.9,2.9-4.1c3-3.4,6.6-5.5,10.5-6.4
	c1,8.1-0.6,17.9-3.8,26.6c-2.8,6.3-6.6,12-11.3,17.2c-0.6,0.6-1.1,1.2-1.6,1.7c-0.5-0.6-1.1-1.1-1.6-1.7
	c-4.7-5.1-8.4-10.9-11.3-17.2C483.2,267.9,481.7,258.1,482.6,250z M471.5,300.1c-10.1-12.1-18.3-43.8,2.5-50.2
	c1.3-0.3,2.7-0.5,4-0.5c0,1.6,0.2,3.3,0.3,4.9c0,0.5,0.1,1,0.1,1.6c2,15.4,8,28.6,17.8,39.3c0.6,0.6,1.1,1.2,1.6,1.8
	c-0.9,0.9-1.8,1.7-2.7,2.5c-2.1,1.9-4.4,3.7-6.7,5.3h-0.1l0,0c-2.4,1.6-5,3.1-7.7,4.4C477.1,306.1,474,303.1,471.5,300.1z
	 M505.4,336.7c0.6,1.3,0.9,2.7,0.9,4c0,1.7-0.6,3.5-2.1,5c-0.5,0.6-1.3,1.1-2.2,1.4c-0.8,0.3-1.7,0.4-2.7,0.4
	c-1.8,0-3.6-0.5-4.8-1.8c-2.7-2.7-2.5-6-1.1-9.1c1.3-3,3.8-5.9,5.9-8C501.6,330.8,504,333.7,505.4,336.7z M503.6,322.3
	c-1.5,1.1-2.9,2.2-4.2,3.4c-1.3-1.3-2.7-2.3-4.2-3.4c-4.3-4-8.7-7.7-12.6-11.3c2.5-1.2,4.8-2.6,7-4.1v-0.1c0,0,0,0,0.1,0
	c2.4-1.7,4.8-3.6,6.9-5.5c1-0.9,1.9-1.8,2.9-2.7c1,0.9,1.9,1.8,2.9,2.7c2.2,1.9,4.4,3.8,6.9,5.5h0.1l0.1,0.1
	c2.2,1.5,4.5,2.9,6.9,4.1C512.3,314.5,508,318.3,503.6,322.3z M518.1,309.4c-2.6-1.3-5.1-2.7-7.6-4.4l0,0c0,0,0,0-0.1,0
	c-2.3-1.6-4.6-3.4-6.7-5.3c-1-0.8-1.8-1.6-2.7-2.5c0.6-0.6,1.2-1.2,1.6-1.8c9.7-10.8,15.8-24,17.8-39.3c0.1-0.6,0.2-1.2,0.2-1.6
	c0.2-1.6,0.2-3.3,0.3-4.9c1.3,0,2.7,0.2,3.9,0.5c13.8,4.2,13.1,18.2,12.3,26.8c-0.7,7.4-3.5,15.9-9.8,23.4
	C524.9,303.1,521.7,306.1,518.1,309.4z M566.1,305.2c-1.3-1.8-2.3-3.7-3.2-5.8l-0.1-0.1c-0.6-1.3-1-2.7-1.5-4.2
	c-0.4-1.6-0.8-3.1-1-4.8c-1.3-8.4-0.5-17.8,4.1-23.8c0.5-0.6,0.9-1.1,1.4-1.5c5.3-5.2,11.4-3,14.4,3.6c2.3,4.9,2,11.8-0.7,18.4
	C576.8,293.8,572.2,300.3,566.1,305.2z M499.4,281.7c2.7,0,4.9-2.3,4.9-5.1c0-2.7-2.2-5-4.9-5c-2.6,0-4.9,2.3-4.9,5
	C494.5,279.4,496.8,281.7,499.4,281.7z M499.4,271.6c-2.6,0-4.9,2.3-4.9,5c0,2.8,2.3,5.1,4.9,5.1c2.7,0,4.9-2.3,4.9-5.1
	C504.3,273.9,502.1,271.6,499.4,271.6z M499.4,271.6c-2.6,0-4.9,2.3-4.9,5c0,2.8,2.3,5.1,4.9,5.1c2.7,0,4.9-2.3,4.9-5.1
	C504.3,273.9,502.1,271.6,499.4,271.6z M499.4,271.6c-2.6,0-4.9,2.3-4.9,5c0,2.8,2.3,5.1,4.9,5.1c2.7,0,4.9-2.3,4.9-5.1
	C504.3,273.9,502.1,271.6,499.4,271.6z M499.4,271.6c-2.6,0-4.9,2.3-4.9,5c0,2.8,2.3,5.1,4.9,5.1c2.7,0,4.9-2.3,4.9-5.1
	C504.3,273.9,502.1,271.6,499.4,271.6z M670.5,669.5c0.9-2.8,1.3-4.1,2.2-6.9c-1.1-2-2.8-3.8-4.9-5.4c-2.2-1.6-4.7-2.9-7.7-3.8
	c-5.1-1.5-9.7-1-13.7,1.4s-6.7,6.3-8.1,11.5c-0.1,0.5-0.2,0.7-0.3,1.2c-1.3,5-0.8,9.5,1.3,13.5c2.2,4,5.6,6.6,10.4,8
	c3.4,1,6.3,1.4,8.8,1.2s4.5-0.7,6-1.4c1.7-5.3,2.6-7.9,4.3-13.2c-5-1.6-7.5-2.4-12.5-3.9c-0.6,1.9-0.9,2.9-1.4,4.8c2,0.8,3,1.2,5,2
	c-0.7,2.3-1.1,3.5-1.8,5.8c-0.6,0.2-1.4,0.2-2.3,0.2c-1,0-2.2-0.3-3.6-0.7c-3.2-1-5.4-2.7-6.5-5.3s-1.2-5.6-0.2-9.2
	c0.1-0.5,0.2-0.7,0.3-1.2c1-3.6,2.7-6.3,5.2-8c2.4-1.7,5.3-2.1,8.6-1.2c1.4,0.4,2.7,1,3.7,1.6c1,0.7,1.8,1.4,2.3,2.1
	c-0.2,2-0.2,3-0.4,4.9C667.3,668.4,668.3,668.8,670.5,669.5z M621,643.9c-4.7-1-7.1-1.5-11.8-2.4c-0.3,1.7-0.5,2.6-0.9,4.3
	c1.6,0.6,2.4,0.9,3.9,1.5c-1.5,7.5-2.3,11.2-3.8,18.7h-0.2c-4-10.7-6.1-16.1-10.7-26.7c-3.1-0.5-4.6-0.8-7.7-1.3
	c-1.6-0.3-2.5-0.4-4.1-0.6c-0.3,1.7-0.4,2.6-0.7,4.3c1.6,0.6,2.4,0.8,4,1.4c-1.6,10.2-2.5,15.3-4.1,25.5c-1.6,0-2.4,0.1-4,0.1
	c-0.3,1.7-0.4,2.6-0.7,4.3c6,0.9,9,1.4,15,2.5c0.3-1.7,0.5-2.6,0.8-4.3c-1.5-0.6-2.3-0.9-3.8-1.4c1.3-7.5,2-11.3,3.3-18.9h0.2
	c4.4,10.6,6.5,16,10.4,26.7c2.9,0.6,4.3,0.9,7.2,1.5c2.7-12.1,4-18.1,6.6-30.2c1.7,0.1,2.5,0.1,4.2,0.2c0.4-1.7,0.6-2.5,1-4.2
	C623.4,644.5,622.6,644.3,621,643.9z M566.5,639.1c0.2-1.7,0.3-2.6,0.5-4.3c-6.4-0.8-9.6-1.1-16.1-1.7c-0.2,1.7-0.2,2.6-0.4,4.3
	c1.6,0.5,2.4,0.7,4.1,1.1c-1,10.3-1.5,15.4-2.5,25.7c-1.6,0.1-2.4,0.2-4,0.4c-0.2,1.7-0.2,2.6-0.4,4.3c6,0.6,9,0.9,15.1,1.6
	c0.2-1.7,0.3-2.6,0.5-4.3c-1.5-0.5-2.3-0.7-3.9-1.2c1.2-10.3,1.7-15.4,2.9-25.7C564,639.3,564.8,639.2,566.5,639.1z M526.5,635.7
	c-2.9-3-6.8-4.5-11.6-4.7c-5.4-0.1-8-0.2-13.4-0.2c-1.7,0-2.5,0-4.1,0c0,1.7,0,2.6,0,4.3c1.6,0.3,2.5,0.4,4.1,0.7
	c0,10.3,0,15.5-0.1,25.9c-1.6,0.3-2.4,0.4-3.9,0.8c0,1.7,0,2.6,0,4.3c6.6,0,9.9,0,16.4,0.2c4.5,0.1,8.2-1.1,11.2-3.8
	c3.1-2.6,4.7-6.2,5-10.6c0.1-2.4,0.2-3.6,0.3-6C530.8,642.3,529.4,638.6,526.5,635.7z M522.6,652.3c-0.1,2.8-1,5.1-2.5,6.7
	c-1.6,1.7-3.7,2.5-6.3,2.4c-1.9,0-2.9-0.1-4.9-0.1c0.2-10,0.2-14.9,0.4-24.9c2.1,0,3.1,0.1,5.1,0.1c2.8,0.1,4.9,1,6.4,2.8
	s2.2,4.1,2.1,6.9C522.8,648.7,522.7,649.9,522.6,652.3z M478.3,646.3c-0.2-4.4-1.8-8-5-10.6c-3.2-2.7-7.2-3.8-12-3.5
	c-5.4,0.4-8,0.6-13.4,1.1c-1.6,0.1-2.5,0.2-4.1,0.4c0.2,1.7,0.3,2.6,0.4,4.3c1.7,0.1,2.5,0.2,4.2,0.3c1,10.3,1.4,15.5,2.4,25.8
	c-1.5,0.4-2.3,0.7-3.8,1.1c0.2,1.7,0.3,2.6,0.4,4.3c6.5-0.7,9.8-0.9,16.4-1.4c4.5-0.3,8-1.9,10.8-4.8c2.8-2.9,4.1-6.6,3.9-11
	C478.4,649.9,478.4,648.7,478.3,646.3z M469.1,659.6c-1.4,1.8-3.4,2.8-6.1,3c-1.9,0.1-2.9,0.2-4.9,0.4c-0.8-9.9-1.2-14.9-1.9-24.8
	c2-0.2,3.1-0.2,5.1-0.4c2.8-0.2,5,0.6,6.7,2.2c1.7,1.6,2.6,3.9,2.7,6.6c0.1,2.4,0.2,3.6,0.3,6C471.1,655.4,470.5,657.7,469.1,659.6z
	 M427.4,661.9c-2.3,0.3-3.4,0.5-5.6,0.8c0.1,1.7,0.2,2.6,0.3,4.3c-4.7,0.7-7.1,1.1-11.8,1.9c-0.7-4.1-1.1-6.1-1.7-10.1
	c5-0.9,7.6-1.3,12.6-2c-0.3-2.2-0.5-3.3-0.8-5.5c-5.1,0.8-7.6,1.2-12.7,2c-0.6-3.6-0.9-5.4-1.5-8.9c4.9-0.8,7.3-1.2,12.2-1.9
	c0.4,1.7,0.6,2.5,1,4.2c2.3-0.3,3.5-0.5,5.9-0.8c-0.5-3.9-0.8-5.9-1.3-9.8c-10.6,1.4-15.9,2.3-26.4,4.2c-1.6,0.3-2.5,0.5-4.1,0.8
	c0.3,1.7,0.5,2.6,0.8,4.3c1.7,0,2.5,0,4.2,0c1.9,10.2,2.8,15.2,4.7,25.4c-1.5,0.6-2.2,0.9-3.7,1.4c0.3,1.7,0.5,2.6,0.8,4.2
	c11.4-2.2,17.1-3.1,28.6-4.7C428.2,667.8,427.9,665.8,427.4,661.9z M376.4,649c-0.4-1.7-0.6-2.5-1-4.2c-5.6,1.3-8.4,1.9-14,3.4
	c0.4,1.7,0.7,2.5,1.1,4.2c1.4-0.1,2.2-0.2,3.6-0.3c0.2,8.1,0.3,12.1,0.6,20.2c-0.1,0-0.1,0-0.1,0.1c-5.2-8.9-7.9-13.3-13.3-22
	c-2.2,0.6-3.4,0.9-5.6,1.5c-0.2,10.3-0.2,15.4-0.1,25.7c-0.1,0-0.1,0-0.2,0c-3.9-7.1-5.9-10.6-9.9-17.7c1.3-0.6,1.9-0.9,3.3-1.6
	c-0.5-1.7-0.7-2.5-1.2-4.2c-5.6,1.6-8.3,2.5-13.9,4.3c0.5,1.7,0.8,2.5,1.3,4.1c1.3-0.3,1.9-0.4,3.2-0.6c6.8,11,10.2,16.5,16.7,27.6
	c2.6-0.8,3.9-1.2,6.6-1.9c0-9.9,0-14.8,0.2-24.8c0.1,0,0.1,0,0.2,0c5.2,8.4,7.8,12.7,12.8,21.2c2.6-0.7,4-1,6.6-1.7
	c-0.1-12.9-0.1-19.3,0.2-32.2C374.6,649.6,375.2,649.4,376.4,649z M693.2,387.9c0.1,22.9,0.2,45.7,0.3,68.6
	c-17.9-2.5-27-3.7-45.1-5.6c-0.2-21.1-0.5-42.2-0.7-63.2c-7.3,0-10.9-0.1-18.2-0.1c0.8,65.2,1.5,130.4,2.3,195.7
	c7.2,2.1,10.9,3.2,18,5.6c-0.5-44.1-0.9-88.2-1.4-132.3c18.1,2.1,27.1,3.4,45,6.1c0.2,47.8,0.4,95.7,0.6,143.5
	c7,3.1,10.4,4.8,17.3,8.2V388.1C704.1,388,700.5,388,693.2,387.9z M605.7,482.1c-0.2-16.2-1.9-30.6-5-42.9
	c-3.2-12.3-7.2-22.5-12-30.6s-10-14.1-15.7-18s-11-5.9-16.2-5.9c-5.1,0-10.5,1.9-16.1,5.8c-5.6,3.8-10.7,9.5-15.4,17.1
	s-8.5,17.1-11.6,28.4c-3,11.4-4.5,24.6-4.5,39.9c0,15.2,1.6,28.5,4.7,39.9c3.1,11.5,7.1,21.1,11.9,29c4.8,7.9,10.1,13.9,15.9,18.3
	c5.8,4.3,11.3,6.9,16.6,7.5c5.3,0.7,10.7-0.5,16.4-3.5s10.8-8,15.5-15.2c4.7-7.1,8.5-16.5,11.4-28.1
	C604.5,512.4,605.9,498.4,605.7,482.1z M582.9,523.7c-1.6,11.4-3.8,20.2-6.5,26.5s-5.7,10.5-8.9,12.7c-3.2,2.1-6.3,3-9.2,2.7
	c-2.9-0.4-6-2-9.3-4.9s-6.3-7.7-9.2-14.5c-2.8-6.8-5.2-15.8-7-27.1s-2.8-25.5-2.9-42.6c-0.1-17.1,0.7-31.3,2.4-42.4
	c1.7-11.2,3.9-20,6.6-26.6c2.7-6.5,5.6-11.1,8.8-13.6c3.2-2.6,6.2-3.8,9.1-3.8c2.9,0,5.9,1.3,9.1,3.9c3.2,2.6,6.2,7.3,9,14.1
	c2.8,6.8,5.1,16,7,27.7s2.9,26.5,3.1,44.3C585.3,497.7,584.6,512.4,582.9,523.7z M465.9,387.4c-15.6,19.1-31.1,38.4-46.1,58
	c0.2-19.3,0.4-38.6,0.6-57.9c-7.3,0-10.9,0-18.2,0.1c-0.7,62.6-1.4,125.1-2.2,187.7c7.3-1.6,11-2.3,18.4-3.6
	c0.4-39.5,0.8-78.9,1.3-118.4c15-19.7,30.5-39,46.1-58.2c-0.3,56.9-0.6,113.9-0.9,170.8c7.5-0.6,11.2-0.8,18.7-1
	c0.1-59.1,0.3-118.3,0.4-177.4h-18.1L465.9,387.4L465.9,387.4z M288.7,388.1v226.5c6.8-3.5,10.3-5.1,17.3-8.2
	c0.3-70.7,0.6-141.4,0.9-212.1c18.1-0.3,27.2-0.5,45.4-0.7c-0.7,65.2-1.4,130.3-2,195.5c7.2-2.4,10.8-3.5,18-5.6
	c0.8-65.2,1.5-130.5,2.3-195.7C343.2,387.7,315.9,387.9,288.7,388.1z M581.1,750.9v2l2.3-0.4v-1.6H581.1z M591.3,760.1
	c-1.2-1-2.9-1.5-5.1-1.5h-5.1v-7.7H576v1.6l2.3,0.4v14.7L576,768v1.6h10.2c2.2,0,3.9-0.5,5.1-1.5c1.2-1,1.8-2.4,1.8-4
	C593.2,762.4,592.6,761.1,591.3,760.1z M589.3,766.7c-0.7,0.7-1.7,1-3.1,1h-5.1v-7.1h5.1c1.4,0,2.4,0.3,3.1,1c0.7,0.7,1,1.5,1,2.5
	C590.4,765.1,590,766,589.3,766.7z M551.4,750.9v4.1h2.4l0.2-2.1h4.6v14.7l-2.3,0.4v1.6h7.4V768l-2.3-0.4V753h4.6l0.2,2.1h2.4V751
	L551.4,750.9L551.4,750.9z M545.4,767.9l-7.1-16.9H536l-7.2,16.9l-1.5,0.2v1.6h5.9v-1.6l-1.6-0.2l1.4-3.5h8.2l1.4,3.5l-1.6,0.2v1.6
	h5.9v-1.6L545.4,767.9z M533.8,762.2l3.3-8h0.1l3.2,8H533.8z M518.3,761.4c-0.7-0.9-1.7-1.4-2.9-1.6c1-0.3,1.7-0.8,2.3-1.5
	s0.9-1.4,0.9-2.2c0-1.7-0.6-3-1.8-3.8s-2.9-1.3-5-1.3h-9v1.6l2.3,0.4v14.7l-2.3,0.4v1.6h9.9c2.1,0,3.8-0.5,5-1.3
	c1.2-0.9,1.8-2.2,1.8-3.9C519.4,763.3,519,762.2,518.3,761.4z M507.7,753h3.9c1.3,0,2.3,0.2,3,0.8c0.7,0.5,1.1,1.3,1.1,2.3
	c0,0.9-0.3,1.6-0.9,2.1c-0.6,0.5-1.4,0.8-2.4,0.8h-4.7L507.7,753L507.7,753z M515.5,766.8c-0.7,0.6-1.7,0.9-3,0.9h-4.8v-6.8h5.2
	c1.2,0,2.1,0.3,2.7,1c0.6,0.6,0.9,1.5,0.9,2.6C516.6,765.5,516.2,766.3,515.5,766.8z M492.2,753.4c-1.7-1.8-3.9-2.7-6.7-2.7
	c-2.7,0-4.8,0.9-6.5,2.7s-2.5,4.1-2.5,6.8v0.3c0,2.7,0.8,5,2.5,6.8c1.6,1.8,3.8,2.7,6.5,2.7s5-0.9,6.7-2.7s2.6-4.1,2.6-6.8v-0.3
	C494.8,757.5,493.9,755.2,492.2,753.4z M492,760.5c0,2.2-0.6,4-1.7,5.4s-2.7,2-4.8,2c-1.9,0-3.5-0.7-4.5-2.1
	c-1.1-1.4-1.6-3.2-1.6-5.4v-0.3c0-2.2,0.5-3.9,1.6-5.3c1.1-1.4,2.6-2.1,4.5-2.1c2,0,3.6,0.7,4.8,2.1c1.1,1.4,1.7,3.2,1.7,5.3V760.5z
	 M466.1,767.7V753l2.3-0.4V751h-17v1.6l2.2,0.3l-0.3,5.6c-0.1,2.5-0.4,4.4-1,5.9c-0.6,1.4-1.3,2.5-2,3.3h-1.8l0.4,6.6h2.4v-4.6h14.8
	v4.6h2.5l0.3-6.6L466.1,767.7L466.1,767.7z M463.4,767.7h-10c0.8-1,1.4-2.2,1.9-3.8c0.5-1.5,0.8-3.4,0.9-5.4l0.3-5.6h6.9
	L463.4,767.7L463.4,767.7z M439.5,767.9l-7.1-16.9H430l-7.2,16.9l-1.5,0.2v1.6h5.9v-1.6l-1.5-0.2l1.4-3.5h8.3l1.3,3.5l-1.5,0.2v1.6
	h5.9v-1.6L439.5,767.9z M427.9,762.2l3.3-8h0.1l3.2,8H427.9z M415.5,752.5c-1.2-1-2.9-1.5-5.1-1.5h-9.5v1.6l2.3,0.4v14.7l-2.3,0.4
	v1.6h7.4v-1.6l-2.3-0.4v-5.5h4.4c2.2,0,3.9-0.5,5.1-1.5s1.8-2.4,1.8-4.1C417.4,754.9,416.8,753.5,415.5,752.5z M413.5,759.2
	c-0.7,0.7-1.7,1-3.1,1H406V753h4.4c1.4,0,2.4,0.3,3.1,1s1,1.6,1,2.6S414.2,758.5,413.5,759.2z M604,714.8c-1.7-1.8-3.9-2.7-6.7-2.7
	c-2.7,0-4.8,0.9-6.5,2.7s-2.5,4.1-2.5,6.8v0.3c0,2.7,0.8,5,2.5,6.8c1.6,1.8,3.8,2.7,6.5,2.7s5-0.9,6.7-2.7s2.6-4.1,2.6-6.8v-0.3
	C606.6,718.9,605.8,716.6,604,714.8z M603.8,721.9c0,2.2-0.6,4-1.7,5.4c-1.1,1.4-2.7,2.1-4.8,2.1c-1.9,0-3.5-0.7-4.5-2.1
	c-1.1-1.4-1.6-3.2-1.6-5.4v-0.3c0-2.2,0.5-3.9,1.6-5.3c1.1-1.4,2.6-2.1,4.5-2.1c2,0,3.6,0.7,4.8,2.1c1.1,1.4,1.7,3.2,1.7,5.3V721.9z
	 M579.1,722.8c-0.7-0.9-1.7-1.4-2.9-1.7c1-0.3,1.7-0.8,2.3-1.4c0.6-0.7,0.9-1.4,0.9-2.2c0-1.7-0.6-3-1.8-3.8c-1.2-0.9-2.9-1.3-5-1.3
	h-9v1.6l2.3,0.4v14.8l-2.3,0.4v1.6h9.9c2.1,0,3.8-0.5,5-1.4s1.8-2.2,1.8-3.9C580.2,724.6,579.9,723.6,579.1,722.8z M568.6,714.3h3.9
	c1.3,0,2.3,0.3,3,0.8s1.1,1.3,1.1,2.3c0,0.9-0.3,1.6-0.9,2.1c-0.6,0.5-1.4,0.8-2.4,0.8h-4.6L568.6,714.3L568.6,714.3z M576.3,728.2
	c-0.7,0.6-1.7,0.9-3,0.9h-4.8v-6.8h5.2c1.2,0,2.1,0.3,2.7,0.9c0.6,0.6,0.9,1.5,0.9,2.6C577.4,726.9,577.1,727.7,576.3,728.2z
	 M539.1,712.3v4.1h2.4l0.2-2.2h4.6V729l-2.3,0.4v1.6h7.4v-1.6l-2.3-0.4v-14.8h4.6l0.2,2.2h2.4v-4.1L539.1,712.3L539.1,712.3z
	 M520,716.2c1.2-1.4,2.8-2.1,4.9-2.1c0.9,0,1.7,0.1,2.3,0.4c0.7,0.3,1.2,0.6,1.7,1l0.5,2.7h2v-3.3c-0.6-0.7-1.5-1.3-2.7-1.9
	c-1.2-0.6-2.6-0.8-4.1-0.8c-2.7,0-4.9,0.9-6.6,2.7c-1.7,1.8-2.5,4.1-2.5,6.8v0.3c0,2.7,0.9,5,2.6,6.8c1.7,1.8,3.9,2.7,6.6,2.7
	c1.6,0,3-0.3,4.1-0.8c1.2-0.5,2.1-1.2,2.7-1.8v-3.3h-2L529,728c-0.4,0.4-1,0.7-1.8,1s-1.6,0.4-2.6,0.4c-2,0-3.6-0.7-4.7-2.1
	c-1.1-1.4-1.7-3.2-1.7-5.4v-0.3C518.3,719.4,518.8,717.6,520,716.2z M495.5,716.2c1.2-1.4,2.8-2.1,4.9-2.1c0.9,0,1.7,0.1,2.4,0.4
	c0.7,0.3,1.2,0.6,1.7,1l0.5,2.7h2v-3.3c-0.6-0.7-1.5-1.3-2.7-1.9c-1.2-0.6-2.6-0.8-4.1-0.8c-2.7,0-4.9,0.9-6.6,2.7s-2.5,4.1-2.5,6.8
	v0.3c0,2.7,0.9,5,2.6,6.8s3.9,2.7,6.6,2.7c1.6,0,3-0.3,4.1-0.8c1.2-0.5,2.1-1.2,2.7-1.8v-3.3h-2l-0.5,2.6c-0.4,0.4-1,0.7-1.8,1
	s-1.6,0.4-2.6,0.4c-2,0-3.6-0.7-4.7-2.1c-1.1-1.4-1.7-3.2-1.7-5.4v-0.3C493.8,719.4,494.4,717.6,495.5,716.2z M477.1,712.3v1.6
	l1.8,0.3l-3.9,9.3l0,0l-1-2.4l-3.1-6.9l1.7-0.3v-1.6h-6.5v1.6l1.7,0.2l6,12.1l-0.6,1.1c-0.4,0.7-0.7,1.2-1,1.5s-0.8,0.5-1.4,0.5
	c-0.2,0-0.4,0-0.7,0c-0.3,0-0.5,0-0.6,0l-0.1,1.9c0.1,0,0.3,0,0.6,0.1c0.3,0,0.6,0,0.8,0c1.4,0,2.5-0.3,3.1-0.8
	c0.7-0.6,1.3-1.4,1.8-2.5l6.4-13.8l1.6-0.2v-1.6L477.1,712.3L477.1,712.3z M456.6,729.1l-6.8-7.7l4.4-5.6c0.4-0.5,0.8-0.9,1.1-1.1
	c0.3-0.2,0.7-0.3,1.1-0.3c0.2,0,0.4,0,0.6,0s0.4,0.1,0.7,0.1l0.4-1.8c-0.3-0.2-0.7-0.3-1-0.4c-0.3-0.1-0.7-0.1-1.1-0.1
	c-0.8,0-1.4,0.2-2,0.5s-1.2,1-2,2l-4.6,6.1h-2.2v-6.4l2.3-0.4v-1.6H440v1.6l2.3,0.4v14.8l-2.3,0.4v1.6h7.4v-1.6l-2.3-0.4V723h2.7
	l5.6,6.4l-1.6,0.2v1.6h6.8v-1.6L456.6,729.1z M420.1,716.2c1.1-1.4,2.8-2.1,4.9-2.1c0.9,0,1.7,0.1,2.4,0.4c0.7,0.3,1.2,0.6,1.7,1
	l0.5,2.7h2v-3.3c-0.6-0.7-1.5-1.3-2.7-1.9c-1.2-0.6-2.6-0.8-4.1-0.8c-2.7,0-4.9,0.9-6.6,2.7s-2.5,4.1-2.5,6.8v0.3
	c0,2.7,0.9,5,2.6,6.8s3.9,2.7,6.6,2.7c1.6,0,2.9-0.3,4.1-0.8s2.1-1.2,2.7-1.8v-3.3h-2L429,728c-0.4,0.4-1,0.7-1.8,1
	s-1.6,0.4-2.5,0.4c-2,0-3.6-0.7-4.7-2.1c-1.1-1.4-1.7-3.2-1.7-5.4v-0.3C418.3,719.4,418.9,717.6,420.1,716.2z M407.7,714v-1.6h-7.4
	v1.6l2.3,0.4v1.2l-9.9,9.6h-0.1v-10.8l2.3-0.4v-1.6h-7.4v1.6l2.3,0.4v14.8l-2.3,0.4v1.6h7.4v-1.6l-2.3-0.4v-0.8l9.9-9.6h0.1v10.4
	l-2.3,0.4v1.6h7.4v-1.6l-2.3-0.4v-14.8L407.7,714z"/>
<path fill="#FFF9CD" d="M506,594.8c51.3,1,99.2,10.4,147.2,28.9c-47.2-20.1-94.5-31.2-145.5-34.1c0.1-2-0.5-4.1-2.3-6
	c-0.4-0.5-0.9-0.9-1.5-1.2c-1.2-0.7-2.5-1-3.9-0.9c-1.3,0-2.7,0.3-3.9,0.9c-0.6,0.3-1.1,0.7-1.5,1.2c-1.8,1.8-2.4,3.9-2.3,5.9
	c-51,3.1-98.2,14.2-145.5,34.2c48.1-18.4,95.9-27.8,147.2-28.9c1.3,2.2,3,4.2,4.6,5.8c-3.2,2.8-7.2,4.6-13.1,9.4
	c1,0.3,2,0.6,2.8,1.1c0.5,0.3,1,0.7,1.5,1.1c0,0,3.4-4.1,5.3-5.8c1.2-1,3.5-3.2,4.9-4.6c1.5,1.4,3.8,3.5,4.9,4.6
	c1.8,1.6,5.3,5.8,5.3,5.8c0.5-0.4,1-0.8,1.5-1.1c0.8-0.5,1.8-0.9,2.9-1.1c-6-4.9-9.9-6.6-13.1-9.4C503,599,504.7,597,506,594.8z
	 M496.7,593.7c-0.4-0.6-0.7-1.1-1-1.7c-0.4-0.8-0.6-1.7-0.7-2.5c-0.1-1.4,0.3-2.8,1.5-4c0.4-0.4,0.9-0.8,1.6-1
	c1.7-0.5,4.1-0.4,5.4,1c1.2,1.2,1.6,2.6,1.5,4.1c-0.1,0.8-0.3,1.6-0.7,2.4c-0.4,1-1,1.9-1.7,2.8c-0.8,1.1-1.7,2.1-2.6,2.9
	C498.9,596.6,497.6,595.2,496.7,593.7z"/>
</svg>
