<?xml version="1.0" encoding="utf-8"?>
<!-- Generator: Adobe Illustrator 17.1.0, SVG Export Plug-In . SVG Version: 6.00 Build 0)  -->
<!DOCTYPE svg PUBLIC "-//W3C//DTD SVG 1.1//EN" "http://www.w3.org/Graphics/SVG/1.1/DTD/svg11.dtd">
<svg version="1.1" id="Layer_1" xmlns="http://www.w3.org/2000/svg" xmlns:xlink="http://www.w3.org/1999/xlink" x="0px" y="0px"
	 width="1000px" height="1000px" viewBox="0 0 1000 1000" enable-background="new 0 0 1000 1000" xml:space="preserve">
<rect x="-16.9" y="-18.6" fill="#F3F3F3" width="1033.8" height="1034.3"/>
<circle fill="#00BD8C" stroke="#00BD8C" stroke-width="1.5499" stroke-miterlimit="10" cx="303.5" cy="500" r="127.6"/>
<path fill="#BDF3E5" d="M299.8,465.4l-0.6,0.6c-7.4,7.4-17.2,11.4-27.6,11.4s-20.2-4.1-27.6-11.4l-14.8-14.8l0,0l-6.8-6.8l-9.9,3.8
	l16.8,16.8l0,0l8,8c9.2,9.2,21.5,14.3,34.5,14.3s25.3-5.1,34.5-14.3l0.6-0.6L299.8,465.4z"/>
<path fill="#BDF3E5" d="M328.6,449.8c7.4-7.4,17.2-11.4,27.6-11.4s20.2,4.1,27.6,11.4l0.6,0.6c7.4,7.4,11.4,17.2,11.4,27.6
	s-4.1,20.2-11.4,27.6l-33.3,36.2l6.9,6.9l33.3-36.2c9.2-9.2,14.3-21.5,14.3-34.5s-5.1-25.3-14.3-34.5l-0.6-0.6
	c-9.2-9.2-21.5-14.3-34.5-14.3s-25.3,5.1-34.5,14.3l-22.9,22.9c2.3,2.3,4.4,4.7,6.5,7.2L328.6,449.8z"/>
<g>
	<g>
		<circle fill="#FFFFFF" cx="357.5" cy="543" r="18"/>
	</g>
	<g>
		<g>
			<path fill="#FFFFFF" d="M314.2,520.4c-2.1,0.5-3.6,2.4-3.6,4.6v0.1c0,3,2.8,5.4,5.8,4.7c10.9-2.6,19.1-12.5,19.1-24.2
				c0-5.8-2-11.2-5.6-15.7c0,0,0-0.1,0.1-0.1l-0.9-0.9c-0.3-0.3-0.6-0.6-0.9-0.9l0,0L283,442.7c-9.2-9.2-21.5-14.3-34.5-14.3
				s-25.3,5.1-34.5,14.3l-0.6,0.6C204.1,452.8,199,465,199,478s5.1,25.3,14.3,34.5l74.2,73.3h0.1c4.5,3.8,10.1,5.9,16.1,5.9
				c11.7,0,21.5-8.1,24.2-19.1c0.7-3-1.7-5.8-4.7-5.8H323c-2.2,0-4.1,1.5-4.6,3.6c-1.6,6.6-7.6,11.5-14.7,11.5
				c-4,0-7.8-1.6-10.7-4.4l0,0l-72.8-71.9c-7.4-7.4-11.4-17.2-11.4-27.6s4.1-20.2,11.4-27.6l0.6-0.6c7.4-7.4,17.2-11.4,27.6-11.4
				s20.2,4.1,27.6,11.4l45.6,45.7c2.6,2.8,4,6.4,4,10.3C325.7,512.8,320.8,518.8,314.2,520.4z"/>
		</g>
	</g>
</g>
<g enable-background="new    ">
	<path fill="#1E1E1E" d="M482.6,438.4c5.7-5.7,13-8.5,22.1-8.5c6.9,0,20.4,2.9,20.4,12.4v5.8h-9.9v-3.1c0-1.9-1.1-3.2-3.5-4.3
		c-2.2-1-4.6-1.6-7.1-1.6c-5.6,0-10.3,1.9-14,5.7c-3.7,3.7-5.5,8.6-5.5,14.6c0,6.2,1.9,11.1,5.8,14.8c3.9,3.6,8.6,5.4,14.2,5.4
		c3.1,0,6.2-0.7,9.1-1.9c3-1.3,5.2-2.7,6.5-3.9l2-2l4.6,7.7c-0.4,0.6-0.8,1.1-3.8,3.4c-3.7,2.9-10.1,6.4-19.2,6.4
		c-8.8,0-16.1-2.8-21.8-8.4c-5.6-5.6-8.4-12.7-8.4-21.3C474.2,451.2,477,444.2,482.6,438.4z"/>
	<path fill="#1E1E1E" d="M567.3,452.7h2.5v-0.8c0-9.5-3.7-13.3-12.5-13.3c-2.1,0-4.1,0.3-6.3,1c-2,0.6-3,1.7-3,3.4v3.2h-10.3v-5.7
		c0-4.1,3.4-7.4,7.8-8.7c4.6-1.3,8.3-1.8,11.5-1.8c17.5,0,23.6,8.2,23.6,22.2v24.1c0,1.7,0.8,2.5,2.5,2.5h4.6v9.3h-10.3
		c-4.6,0-6.9-2.1-6.9-6.5l0.1-3.4h-0.2c0.2,0-4.8,11.2-18.3,11.2c-5.3,0-9.7-1.5-13.4-4.5s-5.6-7.2-5.6-12.3
		C533,459.3,544.4,452.7,567.3,452.7z M554.5,480.7c4.5,0,8.2-1.9,11-5.6c2.8-3.7,4.3-7.8,4.3-12.4v-2.1h-2.9c-15.3,0-23,3.7-23,11
		C543.8,476.4,547.8,480.7,554.5,480.7z"/>
	<path fill="#1E1E1E" d="M598.6,488V443c0-1.7-0.8-2.5-2.5-2.5h-4.6v-9.3H602c4.8,0,7.2,2.2,7.2,6.6v3.6l-0.2,3.9h0.2
		c2.8-8.6,9.5-14.8,17.9-14.8l2.9,0.2v10.8c-1-0.2-2-0.3-3.1-0.3c-7.2,0-13.3,4.9-16,13.3c-0.9,2.9-1.3,6.3-1.3,10.2V488H598.6z"/>
	<path fill="#1E1E1E" d="M641.1,438.1c4.8-5.5,11-8.2,18.5-8.2c10.5,0,15.3,5.6,16.9,7.8l0.6,0.9h0.2c-0.1-1.1-0.1-2.4-0.1-3.8
		v-14.2c0-1.7-0.8-2.5-2.5-2.5h-4.6v-9.3h10.6c5,0,7.3,2.1,7.3,7.2v60.2c0,1.7,0.8,2.5,2.5,2.5h4.6v9.3h-10.4c-4.6,0-6.9-2-6.9-6
		l0.1-2.9h-0.2c-0.3,0.6-0.4,1.2-2.6,3.6c-2.7,3-7.6,6.7-16,6.7c-7.6,0-13.7-2.7-18.3-8.2c-4.5-5.5-6.7-12.7-6.7-21.5
		C634,450.7,636.4,443.5,641.1,438.1z M661.1,479.9c9.3,0,16.2-6.8,16.2-20.4c0-5.5-1.3-10.3-4.1-14.2c-2.8-3.9-6.7-5.9-11.9-5.9
		c-4.6,0-8.5,1.8-11.6,5.5s-4.7,8.6-4.7,14.8C645,471.8,651.6,479.9,661.1,479.9z"/>
	<path fill="#1E1E1E" d="M706.8,443c0-1.7-0.8-2.5-2.5-2.5h-4.6v-9.3h10.6c5,0,7.3,2.1,7.3,7.2v37.7c0,1.7,0.8,2.5,2.5,2.5h4.6v9.3
		H714c-5,0-7.2-2.1-7.2-7.2V443z M707,420.2v-11.3h9.7v11.3H707z"/>
	<path fill="#1E1E1E" d="M783,438.3c5.9,5.6,8.8,12.7,8.8,21.2c0,8.5-3,15.6-9,21.3s-13.1,8.5-21.6,8.5c-8.5,0-15.7-2.8-21.6-8.5
		c-5.9-5.7-8.8-12.8-8.8-21.3c0-8.5,2.9-15.6,8.8-21.2c5.9-5.6,13.1-8.4,21.6-8.4C769.9,429.9,777.1,432.7,783,438.3z M775,474.2
		c3.8-3.9,5.7-8.7,5.7-14.7c0-5.8-1.9-10.6-5.7-14.4c-3.7-3.8-8.3-5.7-13.8-5.7c-5.4,0-10,1.9-13.8,5.7s-5.7,8.6-5.7,14.4
		c0,5.8,1.9,10.6,5.7,14.6c3.8,3.9,8.4,5.8,13.8,5.8C766.8,479.9,771.3,478,775,474.2z"/>
</g>
<g enable-background="new    ">
	<path fill="#1E1E1E" d="M473.6,572.1l5.5-7.3c0.3,0.4,0.8,1,3,2.9c3.1,2.6,7.8,5.5,14.2,5.5c5.5,0,9.7-2.7,9.7-7.3
		c0-3.7-4.9-6.5-10.9-8.7c-8.6-3.2-20.1-8.1-19.9-18.6c0-10.3,8.8-15.9,21.1-15.9c4.4,0,8.6,0.9,12.5,2.7c4,1.7,6,4.5,6,8.3v5.4
		h-9.7v-2.8c0-3-4.5-4.8-8.5-4.8c-6.6,0-10.6,2.4-10.6,6.7c0,3.9,4.8,6.7,11,9c8.8,3,20.1,7.3,20.1,18.4c0,5-2,9.1-5.9,12.1
		c-3.9,3-8.8,4.5-14.9,4.5c-12.1,0-19.3-6.3-21.7-9L473.6,572.1z"/>
	<path fill="#1E1E1E" d="M532.5,530.9c5.4-5.5,12.2-8.2,20.4-8.2c7.7,0,13.7,2.6,17.9,7.6c4.4,5,6.5,11.3,6.5,18.9
		c0,1.2-0.1,2.8-0.3,4.6h-41.3c0.3,5.9,2.4,10.5,6,13.9c3.7,3.2,8.3,4.9,13.6,4.9c7.5,0,12.8-3.9,15.7-5.8l1-0.8l4.6,8
		c-1.2,1-2.8,2.1-4.5,3.1c-1.7,1-4.3,2.1-7.6,3.2c-3.2,1.1-6.6,1.7-9.9,1.7c-8.8,0-16-2.8-21.7-8.4c-5.6-5.7-8.4-12.8-8.4-21.3
		C524.5,543.6,527.1,536.4,532.5,530.9z M566.5,546c-0.3-9.4-6-14.9-13.8-14.9c-8.5,0-15.1,5.6-16.6,14.9H566.5z"/>
	<path fill="#1E1E1E" d="M590.7,580.8v-44.9c0-1.7-0.8-2.5-2.5-2.5h-4.6v-9.3H594c4.8,0,7.2,2.2,7.2,6.6v3.6l-0.2,3.9h0.2
		c2.8-8.6,9.5-14.8,17.9-14.8l2.9,0.2v10.8c-1-0.2-2-0.3-3.1-0.3c-7.2,0-13.3,4.9-16,13.3c-0.9,2.9-1.3,6.3-1.3,10.2v23.2H590.7z"/>
	<path fill="#1E1E1E" d="M646.9,580.8l-17.5-45.1c-0.6-1.5-1.7-2.2-3.5-2.2h-1.1v-9.3h5.6c5,0,6.9,1.2,8.6,5.7l12.2,32.6l2,7.4h0.2
		c0.6-2.8,1.2-5.3,2-7.4l12.1-32.6c1.7-4.5,3.7-5.7,8.6-5.7h5.3v9.3h-1.1c-1.9,0-3,0.8-3.6,2.2l-17.4,45.1H646.9z"/>
	<path fill="#1E1E1E" d="M692.5,535.8c0-1.7-0.8-2.5-2.5-2.5h-4.6v-9.3h10.6c5,0,7.3,2.1,7.3,7.2V569c0,1.7,0.8,2.5,2.5,2.5h4.6v9.3
		h-10.8c-5,0-7.2-2.1-7.2-7.2V535.8z M692.7,513v-11.3h9.7V513H692.7z"/>
	<path fill="#1E1E1E" d="M724.9,531.2c5.7-5.7,13-8.5,22.1-8.5c6.9,0,20.4,2.9,20.4,12.4v5.8h-9.9v-3.1c0-1.9-1.1-3.2-3.5-4.3
		c-2.2-1-4.6-1.6-7.1-1.6c-5.6,0-10.3,1.9-14,5.7c-3.7,3.7-5.5,8.6-5.5,14.6c0,6.2,1.9,11.1,5.8,14.8c3.9,3.6,8.6,5.4,14.2,5.4
		c3.1,0,6.2-0.7,9.1-1.9c3-1.3,5.2-2.7,6.5-3.9l2-2l4.6,7.7c-0.4,0.6-0.8,1.1-3.8,3.4c-3.7,2.9-10.1,6.4-19.2,6.4
		c-8.8,0-16.1-2.8-21.8-8.4c-5.6-5.6-8.4-12.7-8.4-21.3C716.5,544,719.3,537,724.9,531.2z"/>
	<path fill="#1E1E1E" d="M783.3,530.9c5.4-5.5,12.2-8.2,20.4-8.2c7.7,0,13.7,2.6,17.9,7.6c4.4,5,6.5,11.3,6.5,18.9
		c0,1.2-0.1,2.8-0.3,4.6h-41.3c0.3,5.9,2.4,10.5,6,13.9c3.7,3.2,8.3,4.9,13.6,4.9c7.5,0,12.8-3.9,15.7-5.8l1-0.8l4.6,8
		c-1.2,1-2.8,2.1-4.5,3.1c-1.7,1-4.3,2.1-7.6,3.2c-3.2,1.1-6.6,1.7-9.9,1.7c-8.8,0-16-2.8-21.7-8.4c-5.6-5.7-8.4-12.8-8.4-21.3
		C775.3,543.6,778,536.4,783.3,530.9z M817.3,546c-0.3-9.4-6-14.9-13.8-14.9c-8.5,0-15.1,5.6-16.6,14.9H817.3z"/>
</g>
</svg>
