<?xml version="1.0" encoding="utf-8"?>
<!-- Generator: Adobe Illustrator 17.1.0, SVG Export Plug-In . SVG Version: 6.00 Build 0)  -->
<!DOCTYPE svg PUBLIC "-//W3C//DTD SVG 1.1//EN" "http://www.w3.org/Graphics/SVG/1.1/DTD/svg11.dtd">
<svg version="1.1" id="Layer_1" xmlns="http://www.w3.org/2000/svg" xmlns:xlink="http://www.w3.org/1999/xlink" x="0px" y="0px"
	 width="1000px" height="1000px" viewBox="0 0 1000 1000" enable-background="new 0 0 1000 1000" xml:space="preserve">
<rect width="1000" height="1000"/>
<g>
	<rect x="196.8" y="544.8" fill="#A58242" width="73.1" height="12.8"/>
	<polygon fill="#A58242" points="262.2,468 269.9,455.2 269.9,442.4 196.8,442.4 196.8,455.2 216.1,487.2 196.8,519.2 196.8,532 
		269.9,532 269.9,519.2 262.1,506.4 245,506.4 252.7,519.2 213.9,519.2 233.3,487.2 213.9,455.2 252.8,455.2 245,468 	"/>
	<polygon fill="#FFFFFF" points="376.5,464.3 359.2,464.3 344.1,489.1 329.1,464.3 311.8,464.3 332.7,497.9 311.6,531.6 
		328.9,531.6 344.1,506.7 359.4,531.6 376.7,531.6 355.6,497.9 	"/>
	<path fill="#FFFFFF" d="M513.7,462.7c-20.2,0-36,15.5-36,35.3c0,19.7,15.8,35.1,36,35.1s36-15.4,36-35.1S533.9,462.7,513.7,462.7z
		 M513.7,520c-12.2,0-21.3-9.4-21.3-21.9c0-12.6,9.2-22.2,21.3-22.2c12.2,0,21.3,9.5,21.3,22.2C535,510.6,525.8,520,513.7,520z"/>
	<path fill="#FFFFFF" d="M693.7,462.7c-20.2,0-36,15.5-36,35.3c0,19.7,15.8,35.1,36,35.1s36-15.4,36-35.1
		C729.6,478.3,713.8,462.7,693.7,462.7z M693.7,520c-12.2,0-21.3-9.4-21.3-21.9c0-12.6,9.2-22.2,21.3-22.2
		c12.2,0,21.3,9.5,21.3,22.2C715,510.6,705.8,520,693.7,520z"/>
	<polygon fill="#FFFFFF" points="621,508.4 583.7,464.3 571.4,464.3 571.4,531.7 586,531.7 586,489 622.1,531.7 635.7,531.7 
		635.7,464.3 621,464.3 	"/>
	<path fill="#FFFFFF" d="M457.3,485.9c0-12.9-9.6-21.6-23.9-21.6h-34.1v67.3H414v-24h9.1l20.4,24H462c0,0-16.5-19.5-21.2-25
		C449.8,504,457.3,496.8,457.3,485.9z M431.6,495.8H414v-19.4h17.6c6.8,0,11.4,3.9,11.4,9.6C443,491.9,438.4,495.8,431.6,495.8z"/>
	<path fill="#FFFFFF" d="M775.7,533.2c-15.6,0-27-7.5-29.2-19.1l15.6-3c1.9,6.6,6.9,10.1,14.5,10.1c6.9,0,11.4-3.3,11.4-8.3
		c0-4-2.2-6.2-7.3-7.2l-14.5-3.1c-12-2.7-17.8-9-17.8-19c0-12.6,10.4-20.8,26.4-20.8c14.4,0,24.6,6.8,27.4,18.2l-14.7,2.9
		c-1.8-7.1-8.1-9.6-13-9.6c-6.2,0-10.5,3.4-10.5,8.2c0,3.8,2.1,6,6.5,6.9l14.4,3.2c12.1,2.7,18.2,9.2,18.2,19.2
		C803.2,526.6,789.4,533.2,775.7,533.2z"/>
</g>
</svg>
