<?xml version="1.0" encoding="utf-8"?>
<!-- Generator: Adobe Illustrator 17.1.0, SVG Export Plug-In . SVG Version: 6.00 Build 0)  -->
<!DOCTYPE svg PUBLIC "-//W3C//DTD SVG 1.1//EN" "http://www.w3.org/Graphics/SVG/1.1/DTD/svg11.dtd">
<svg version="1.1" id="Layer_1" xmlns="http://www.w3.org/2000/svg" xmlns:xlink="http://www.w3.org/1999/xlink" x="0px" y="0px"
	 width="1000px" height="1000px" viewBox="0 0 1000 1000" enable-background="new 0 0 1000 1000" xml:space="preserve">
<rect x="-21" y="-16.9" fill="#FFFFFF" width="1033.7" height="1033.7"/>
<g>
	
		<linearGradient id="SVGID_1_" gradientUnits="userSpaceOnUse" x1="404.781" y1="575.5416" x2="257.4357" y2="401.2531" gradientTransform="matrix(1 0 0 -1 0 1000)">
		<stop  offset="0" style="stop-color:#FFA119"/>
		<stop  offset="1" style="stop-color:#E10060"/>
	</linearGradient>
	<path fill="url(#SVGID_1_)" d="M439.4,433.9l-101.7-46.7c-7.5-3.4-15.8-3.4-23.3,0l-102.2,46.7c-11.3,5.2-18.6,17.3-18.6,30.7
		v106.9c0,13.4,7.4,25.5,18.7,30.7l19.5,8.9c2.8,1.3,5.9-1,5.9-4.3V469.6c0-3.4,3.1-5.6,5.9-4.3l35.4,16.2c1.6,0.7,2.6,2.4,2.6,4.3
		l0.1,102.7c0,1.9,1,3.6,2.6,4.3l35.5,16.2c2.8,1.3,5.9-1,5.9-4.3V506c0-1.9,1-3.6,2.6-4.3l79.7-36.4c2.8-1.3,5.9,1,5.9,4.3v32.2
		c0,1.9-1,3.6-2.6,4.3l-38.7,17.7c-1.6,0.7-2.6,2.4-2.6,4.3v56.4c0,3.4,3.1,5.6,5.9,4.3l32.1-14.7c2.8-1.3,5.9,1,5.9,4.3l-0.1,28.3
		c0,3.4,3.1,5.6,5.9,4.3l19.5-8.9c11.3-5.2,18.6-17.3,18.6-30.7V464.6C458,451.1,450.7,439,439.4,433.9z"/>
	<g>
		<path d="M532.3,499c-4.3-0.1-7.7-0.5-10.4-1.4s-4.8-2-6.3-3.6c-1.5-1.5-2.6-3.4-3.1-5.6c-0.6-2.2-0.8-4.7-0.8-7.4v-57l14.7-2.4
			V478c0,1.3,0.1,2.5,0.3,3.5c0.2,1.1,0.6,1.9,1.1,2.7c0.6,0.7,1.4,1.3,2.4,1.8s2.5,0.8,4.2,0.9L532.3,499z"/>
		<path d="M591.1,472.1c0,4.1-0.6,7.8-1.8,11.2c-1.2,3.4-2.9,6.3-5.1,8.7c-2.2,2.4-4.9,4.2-8,5.6c-3.1,1.3-6.6,2-10.5,2
			c-3.8,0-7.3-0.7-10.4-2c-3.1-1.3-5.8-3.2-8-5.6s-4-5.3-5.2-8.7c-1.2-3.4-1.9-7.1-1.9-11.2s0.6-7.8,1.9-11.1s3.1-6.2,5.3-8.6
			s5-4.2,8.1-5.5s6.5-2,10.2-2s7.2,0.7,10.3,2s5.8,3.1,8,5.5s4,5.2,5.2,8.6C590.5,464.3,591.1,468,591.1,472.1z M576.2,472.1
			c0-4.5-0.9-8.1-2.7-10.7s-4.4-3.9-7.7-3.9s-5.9,1.3-7.8,3.9c-1.8,2.6-2.8,6.1-2.8,10.7c0,4.5,0.9,8.1,2.8,10.8
			c1.8,2.7,4.4,4,7.8,4c3.3,0,5.9-1.3,7.7-4C575.3,480.2,576.2,476.6,576.2,472.1z"/>
		<path d="M650.6,472.2c0,4.1-0.6,7.9-1.8,11.2c-1.2,3.3-3,6.2-5.3,8.6s-5.1,4.2-8.5,5.5c-3.3,1.3-7.2,1.9-11.4,1.9
			c-1.8,0-3.6-0.1-5.6-0.2c-1.9-0.2-3.8-0.4-5.7-0.6c-1.9-0.3-3.7-0.6-5.4-0.9c-1.7-0.4-3.2-0.7-4.5-1.1v-72.3l14.7-2.4v25.8
			c1.6-0.7,3.3-1.3,5.1-1.7s3.7-0.6,5.7-0.6c3.7,0,6.9,0.6,9.7,1.9s5.2,3.1,7.1,5.5c1.9,2.4,3.3,5.2,4.3,8.5
			C650.1,464.4,650.6,468.1,650.6,472.2z M635.6,471.8c0-9.4-3.5-14.2-10.4-14.2c-1.5,0-3,0.2-4.5,0.6s-2.7,0.9-3.6,1.5v26.7
			c0.7,0.1,1.6,0.2,2.8,0.3c1.1,0.1,2.3,0.1,3.6,0.1c4,0,7-1.4,9.1-4.1C634.6,480,635.6,476.3,635.6,471.8z"/>
		<path d="M710,472.2c0,4.1-0.6,7.9-1.8,11.2c-1.2,3.3-3,6.2-5.3,8.6s-5.1,4.2-8.5,5.5c-3.3,1.3-7.2,1.9-11.4,1.9
			c-1.8,0-3.6-0.1-5.6-0.2c-1.9-0.2-3.8-0.4-5.7-0.6c-1.9-0.3-3.7-0.6-5.4-0.9c-1.7-0.4-3.2-0.7-4.5-1.1v-72.3l14.7-2.4v25.8
			c1.6-0.7,3.3-1.3,5.1-1.7s3.7-0.6,5.7-0.6c3.7,0,6.9,0.6,9.7,1.9s5.2,3.1,7.1,5.5c1.9,2.4,3.3,5.2,4.3,8.5
			C709.5,464.4,710,468.1,710,472.2z M695,471.8c0-9.4-3.5-14.2-10.4-14.2c-1.5,0-3,0.2-4.5,0.6s-2.7,0.9-3.6,1.5v26.7
			c0.7,0.1,1.6,0.2,2.8,0.3c1.1,0.1,2.3,0.1,3.6,0.1c4,0,7-1.4,9.1-4.1C694,480,695,476.3,695,471.8z"/>
		<path d="M766,446.3c-3,10-6,19.3-9.3,28c-3.2,8.7-6.7,17.2-10.6,25.4c-1.4,3-2.8,5.5-4.1,7.5c-1.4,2.1-2.9,3.8-4.5,5.1
			c-1.6,1.3-3.5,2.3-5.6,3c-2.1,0.6-4.5,0.9-7.2,0.9c-2.3,0-4.4-0.2-6.4-0.6c-1.9-0.4-3.5-0.9-4.8-1.4l2.6-11.7
			c1.5,0.5,2.9,0.9,4,1.1c1.2,0.2,2.4,0.3,3.7,0.3c2.6,0,4.6-0.7,6.1-2.1c1.4-1.4,2.6-3.4,3.6-5.9c-3.3-6.6-6.7-13.9-10-22.1
			s-6.5-17.3-9.4-27.5h15.5c0.7,2.6,1.4,5.3,2.3,8.3c0.9,3,1.8,6,2.8,9.1c1,3,2,6,3,8.9s2,5.5,2.9,7.9c0.9-2.4,1.7-5,2.7-7.9
			c0.9-2.9,1.8-5.9,2.7-8.9c0.9-3.1,1.7-6.1,2.6-9.1c0.8-3,1.6-5.8,2.2-8.3H766z"/>
		<path d="M509.2,568.2c0-3.7,0.6-7.3,1.8-10.6c1.2-3.3,3-6.2,5.3-8.7s5.1-4.4,8.4-5.9c3.3-1.4,7-2.2,11.2-2.2
			c2.8,0,5.3,0.2,7.6,0.7s4.5,1.2,6.7,2.1l-3.1,11.7c-1.4-0.5-2.9-1-4.5-1.4s-3.5-0.6-5.5-0.6c-4.3,0-7.6,1.3-9.7,4
			c-2.1,2.7-3.2,6.2-3.2,10.6c0,4.7,1,8.3,3,10.8c2,2.6,5.5,3.8,10.5,3.8c1.8,0,3.7-0.2,5.7-0.5s3.9-0.9,5.6-1.6l2.1,12
			c-1.7,0.7-3.8,1.3-6.4,1.9c-2.6,0.5-5.4,0.8-8.5,0.8c-4.7,0-8.8-0.7-12.2-2.1c-3.4-1.4-6.2-3.3-8.4-5.8c-2.2-2.4-3.8-5.3-4.8-8.6
			C509.7,575.6,509.2,572,509.2,568.2z"/>
		<path d="M555.9,568.6c0-4.6,0.7-8.6,2.1-12.1c1.4-3.4,3.3-6.3,5.6-8.6s4.9-4,7.9-5.2s6.1-1.8,9.2-1.8c7.3,0,13.2,2.2,17.4,6.7
			c4.3,4.5,6.4,11.1,6.4,19.8c0,0.9,0,1.8-0.1,2.8s-0.1,1.9-0.2,2.7H571c0.3,3,1.7,5.4,4.2,7.2s5.8,2.7,10,2.7
			c2.7,0,5.3-0.2,7.9-0.7c2.6-0.5,4.7-1.1,6.3-1.8l2,11.9c-0.8,0.4-1.8,0.8-3.1,1.2s-2.8,0.7-4.4,1c-1.6,0.3-3.3,0.5-5.2,0.7
			c-1.8,0.2-3.7,0.3-5.5,0.3c-4.7,0-8.7-0.7-12.2-2.1c-3.4-1.4-6.3-3.3-8.6-5.7s-3.9-5.2-5-8.5C556.5,575.9,555.9,572.4,555.9,568.6
			z M590.4,563c-0.1-1.2-0.3-2.5-0.6-3.6c-0.4-1.2-0.9-2.2-1.7-3.1c-0.8-0.9-1.7-1.7-2.9-2.3c-1.1-0.6-2.6-0.9-4.3-0.9
			c-1.6,0-3.1,0.3-4.2,0.8c-1.2,0.6-2.2,1.3-3,2.2s-1.4,2-1.8,3.2c-0.4,1.2-0.7,2.4-0.9,3.7L590.4,563L590.4,563z"/>
		<path d="M615.8,544.1c2.5-0.7,5.7-1.4,9.6-2c3.9-0.6,8.1-0.9,12.4-0.9c4.4,0,8.1,0.6,11,1.7c2.9,1.1,5.2,2.8,6.9,4.9
			c1.7,2.1,2.9,4.6,3.6,7.5c0.7,2.9,1.1,6.1,1.1,9.6v29.2h-14.7v-27.5c0-4.7-0.6-8.1-1.9-10c-1.2-2-3.6-3-7-3c-1,0-2.2,0-3.3,0.1
			c-1.2,0.1-2.2,0.2-3.1,0.3v39.9h-14.7v-49.8H615.8z"/>
		<path d="M673.3,529.4L688,527v15.3h17.6v12.2H688v18.2c0,3.1,0.5,5.5,1.6,7.4c1.1,1.8,3.3,2.8,6.5,2.8c1.6,0,3.2-0.1,4.9-0.4
			c1.7-0.3,3.2-0.7,4.6-1.2l2.1,11.4c-1.8,0.7-3.7,1.3-5.9,1.9c-2.2,0.5-4.8,0.8-8,0.8c-4,0-7.3-0.5-9.9-1.6
			c-2.6-1.1-4.7-2.6-6.3-4.5s-2.7-4.3-3.3-7c-0.6-2.8-0.9-5.8-0.9-9.2L673.3,529.4L673.3,529.4z"/>
		<path d="M713,568.6c0-4.6,0.7-8.6,2.1-12.1c1.4-3.4,3.3-6.3,5.6-8.6s4.9-4,7.9-5.2s6.1-1.8,9.2-1.8c7.3,0,13.2,2.2,17.4,6.7
			c4.3,4.5,6.4,11.1,6.4,19.8c0,0.9,0,1.8-0.1,2.8s-0.1,1.9-0.2,2.7H728c0.3,3,1.7,5.4,4.2,7.2s5.8,2.7,10,2.7
			c2.7,0,5.3-0.2,7.9-0.7c2.6-0.5,4.7-1.1,6.3-1.8l2,11.9c-0.8,0.4-1.8,0.8-3.1,1.2s-2.8,0.7-4.4,1c-1.6,0.3-3.3,0.5-5.2,0.7
			c-1.8,0.2-3.7,0.3-5.5,0.3c-4.7,0-8.7-0.7-12.2-2.1c-3.4-1.4-6.3-3.3-8.6-5.7s-3.9-5.2-5-8.5C713.6,575.9,713,572.4,713,568.6z
			 M747.5,563c-0.1-1.2-0.3-2.5-0.6-3.6c-0.4-1.2-0.9-2.2-1.7-3.1c-0.8-0.9-1.7-1.7-2.9-2.3c-1.1-0.6-2.6-0.9-4.3-0.9
			c-1.6,0-3.1,0.3-4.2,0.8c-1.2,0.6-2.2,1.3-3,2.2s-1.4,2-1.8,3.2c-0.4,1.2-0.7,2.4-0.9,3.7L747.5,563L747.5,563z"/>
		<path d="M804.2,555.3c-1.3-0.3-2.9-0.7-4.6-1c-1.8-0.4-3.7-0.5-5.7-0.5c-0.9,0-2,0.1-3.3,0.2c-1.3,0.2-2.2,0.3-2.9,0.5v39.6H773
			v-49c2.6-0.9,5.7-1.8,9.3-2.6s7.6-1.2,12-1.2c0.8,0,1.7,0,2.9,0.1c1.1,0.1,2.2,0.2,3.3,0.4s2.2,0.4,3.3,0.6
			c1.1,0.2,2.1,0.5,2.9,0.8L804.2,555.3z"/>
	</g>
</g>
</svg>
