<?xml version="1.0" encoding="utf-8"?>
<!-- Generator: Adobe Illustrator 17.1.0, SVG Export Plug-In . SVG Version: 6.00 Build 0)  -->
<!DOCTYPE svg PUBLIC "-//W3C//DTD SVG 1.1//EN" "http://www.w3.org/Graphics/SVG/1.1/DTD/svg11.dtd">
<svg version="1.1" id="Layer_1" xmlns="http://www.w3.org/2000/svg" xmlns:xlink="http://www.w3.org/1999/xlink" x="0px" y="0px"
	 width="1000px" height="1000px" viewBox="0 0 1000 1000" enable-background="new 0 0 1000 1000" xml:space="preserve">
<rect fill="#D61A1A" stroke="#2B0000" stroke-miterlimit="10" width="1000" height="1000"/>
<g>
	<rect x="614.2" y="563" fill="#FFFFFF" width="46.8" height="28.9"/>
	<g>
		<path fill="#FFFFFF" d="M378.4,588.2c4.7,20.5,12.3,54.2,14.9,66c-43.2-15.4-82.7-33.5-82.2-40.1
			C311.6,606.9,324.4,594,378.4,588.2z"/>
		<path fill="#FFFFFF" d="M702.5,655.9c-0.2,0-0.5,0-0.7-0.1c-8.5-1.1-16.9-2.7-25.4-4.5c-10.8-2.2-17.8-0.3-28.3,2.7
			c-55,15.8-112.7,32.4-170.8,23.7c-14.7-2.2-34.6-7.4-55.5-14c0.2,0,0.3-0.1,0.5-0.1c0,0,0,0,0.4-1.5c1.2-4.7,2.6-9.3,3.9-13.9
			c2.1-7.5,5.4-19,5.4-19c0.6-2.2,1.3-3.6,1.5-3.1s1,3.4,1.6,5.7l7.2,25.5c0.6,2.2,2.4,6.4,3.2,6.5c0.8,0.2,3.2,0.3,5.3,0.3
			c0,0,6.1,0,11.1,0c3,0,5.2,0,5.2,0c2.1,0,4.3-1.9,4.8-4.1l13.4-58.6c0.5-2.3,0.4-4.3,0.3-4.3s-1.9-0.1-4.1-0.1
			c0,0-10.5,0-17.7-0.1c-1.3,0-1.3,0-1.3,0c-0.3,1-0.9,3.8-1.5,6.1c0,0-2.1,9-3.6,15.5c-1.2,5.1-2.8,11.9-2.8,11.9
			c-0.5,2.3-1.5,2.5-1.6,2.1s-0.7-2.5-1.4-4.8l-6.8-24.3c-0.6-2.2-2.2-6-2.9-6.2c-0.7-0.2-3-0.3-5.1-0.2h-7.7
			c-2.1,0-4.9,0.1-6.2,0.4c0,0,0,0-0.5,1.8c-1.6,6.1-3.9,14.1-3.9,14.1c-0.6,2.2-1.7,5.9-2.3,8.1l-2.2,7.9c-0.4,1.5-0.9,2.8-1.2,3.5
			c-0.1,0.3-0.2,0.6-0.3,0.6c-0.1,0-0.6-1.9-1.1-4.2l-19.2-44.1c3.9-3.1,7.2-8.7,3.5-13.4c-26.3-33-48.2-63.2-78.8-91.4
			c-25.1-23.2-53.7-44.1-78.6-67.7c-8.4-7.9-16.4-16.2-24.3-24.7c-11.6-12.5-17.6-27.8-9.1-27.3c10,0.6,157.1,89.5,215.4,121.9
			c27.8,15.4,57.2,67.1,66.1,67c2.5,0,4.9-3.7,7.2-9.1l102.6,56.8l9.6,5.3c2.3,2.7,4.9,5,7.8,7.1l0,0c1.4,1,2.9,1.9,4.5,2.7
			c0.7,0.4,1.4,0.7,2.1,1h0.1c3.4,1.5,7,2.6,10.9,3.2L702.5,655.9z"/>
		<path fill="#D61A1A" d="M618.3,612.3c-0.2,0-0.3,0-0.5,0c-4.1,0.1-8.3,0-8.3,0c-2.1,0-4.2,0-4.7,0s-1.9,2-1.9,4.3v43.1
			c0,2.3-1.7,4.3-3.9,4.3h-16c-2.1,0-3.9-1.9-3.9-4.3v-43.2c0-2.3-1.7-4.3-3.8-4.3h-10.5c-2.1,0-3.9-1.9-3.9-4.3v-6.6
			c0-2.3,1.7-4.3,3.9-4.3h37.3c1.1,1.9,2.4,3.7,3.8,5.3c2.3,2.7,4.9,5,7.8,7.1l0,0C615.2,610.6,616.7,611.5,618.3,612.3z"/>
		<path fill="#2B0000" d="M599.6,564.1c-1.8,4.3-2.7,9-2.7,14c0,7,1.9,13.5,5.3,19.1c1.1,1.9,2.4,3.7,3.8,5.3l-9.6-5.3l-102.6-56.8
			c5.3-12.1,10.6-33.1,18.2-42.8c16.1-20.6,125.8-81.9,188.4-167.1c7.3-10,17.8-32.5,32.4-32.8c16.9-0.4,10.5,49.6,9.4,58.6
			c-6.6,52.6-18.6,76.7-51.5,117.9C657.1,516.2,612.9,528.9,599.6,564.1L599.6,564.1z"/>
		<path fill="#2B0000" d="M798.1,666.4c-6.1,1.7-12.5,0.7-18.8-0.3c-9.7-1.6-19.4-3.3-29-5.4c-7.9-1.7-15.8-2.4-23.8-2.9
			s-16.1-0.9-24.1-1.9l-71.2-39.4c2.1,0.3,4.3,0.5,6.5,0.5c12.5,0.4,21.6-5.1,33.1-10.1c10.6-4.5,21.8-6.1,33.3-6
			c19.5,0.2,35.2,8.1,46.6,23.7c8.4,11.4,18.9,19.9,31.4,26.3c4.9,2.5,9.5,5.6,14,8.8C798.4,661.1,799.8,663.2,798.1,666.4z"/>
		<path fill="#D61A1A" d="M485.1,601.4L471.7,660c-0.5,2.3-2.7,4.1-4.8,4.1c0,0-2.2,0-5.2,0c-5,0-11.1,0-11.1,0
			c-2.1,0-4.5-0.1-5.3-0.3c-0.8-0.1-2.5-4.3-3.2-6.5l-7.2-25.5c-0.6-2.2-1.5-5.1-1.6-5.7c-0.2-0.5-0.8,0.9-1.5,3.1
			c0,0-3.2,11.5-5.4,19c-1.3,4.6-2.7,9.2-3.9,13.9c-0.4,1.5-0.4,1.5-0.4,1.5c-0.1,0-0.3,0.1-0.5,0.1c-9.4-3-19-6.2-28.5-9.6
			c-2.7-11.8-10.3-45.5-14.9-66c2.9-0.3,6-0.6,9.2-0.9c0.5,0,1-0.2,1.6-0.4c1-0.4,2.1-1,3.1-1.8l19.2,44.1c0.5,2.3,1,4.1,1.1,4.2
			c0,0,0.1-0.2,0.3-0.6c0.3-0.7,0.7-2,1.2-3.5l2.2-7.9c0.6-2.2,1.7-5.9,2.3-8.1c0,0,2.3-8,3.9-14.1c0.5-1.8,0.5-1.8,0.5-1.8
			c1.3-0.2,4.1-0.4,6.2-0.4h7.7c2.1,0,4.4,0.1,5.1,0.2c0.7,0.2,2.3,4,2.9,6.2l6.8,24.3c0.6,2.3,1.3,4.4,1.4,4.8
			c0.1,0.4,1.1,0.2,1.6-2.1c0,0,1.6-6.8,2.8-11.9c1.5-6.5,3.6-15.5,3.6-15.5c0.5-2.3,1.2-5,1.5-6.1c0,0,0,0,1.3,0
			c7.2,0.1,17.7,0.1,17.7,0.1c2.1,0,3.9,0,4.1,0.1C485.6,597.1,485.6,599.1,485.1,601.4z"/>
		<path fill="#D61A1A" d="M493.9,664c-2.1,0-3.9-1.9-3.9-4.3v-58.3c0-2.4,1.7-4.3,3.9-4.3h16c2.1,0,3.9,1.9,3.9,4.3v16.3
			c0,2.4,1.7,4.3,3.9,4.3h10.5c2.1,0,3.9-1.9,3.9-4.3v-16.3c0-2.3,1.7-4.3,3.9-4.3h16.2c2.1,0,3.9,1.9,3.9,4.3v58.3
			c0,2.4-1.7,4.3-3.9,4.3h-16c-2.1,0-3.9-1.9-3.9-4.3V642c0-2.3-1.7-4.3-3.9-4.3h-10.6c-2.1,0-3.9,1.9-3.9,4.3v17.7
			c0,2.4-1.7,4.3-3.9,4.3H493.9z"/>
		<path fill="#2B0000" d="M637.8,548.7c-17,0-30.9,13.2-30.9,29.4c0,1.5,0.1,3,0.3,4.4l0,0c0.3,2.2,0.9,4.3,1.8,6.3l0,0
			c1.3,3.1,3.1,5.9,5.3,8.4c2,2.2,4.3,4.1,7,5.7c4.8,2.9,10.4,4.5,16.5,4.5c17,0,30.8-13.1,30.8-29.4
			C668.6,561.9,654.8,548.7,637.8,548.7z M631.9,572.3h-2.4c-1.9,0-3.3,0.3-4.2,0.9c-1,0.6-1.4,1.6-1.4,3v13.7H617V567h6.5v4
			c0-1.1,0.7-2.2,1.9-3.1c1.3-0.9,2.6-1.4,4-1.4h2.4L631.9,572.3L631.9,572.3z M657.6,589.8h-6.8V587c-0.5,2.2-3,3.2-7.3,3.2
			c-3,0-5.1-0.5-6.2-1.6c-1.1-1.1-1.7-2.7-1.7-4.9V567h6.9v15.8c0,1.3,0.2,2.1,0.6,2.5c0.4,0.4,1.4,0.7,3,0.7c2,0,3.2-0.2,3.8-0.6
			c0.5-0.4,0.8-1.3,0.8-2.6V567h6.9V589.8z"/>
		<g>
			<g>
				<path fill="none" stroke="#FFFFFF" stroke-width="2.0513" stroke-miterlimit="10" d="M640.7,570.3"/>
			</g>
		</g>
	</g>
</g>
</svg>
