<?xml version="1.0" encoding="utf-8"?>
<!-- Generator: Adobe Illustrator 17.1.0, SVG Export Plug-In . SVG Version: 6.00 Build 0)  -->
<!DOCTYPE svg PUBLIC "-//W3C//DTD SVG 1.1//EN" "http://www.w3.org/Graphics/SVG/1.1/DTD/svg11.dtd">
<svg version="1.1" id="Layer_1" xmlns="http://www.w3.org/2000/svg" xmlns:xlink="http://www.w3.org/1999/xlink" x="0px" y="0px"
	 width="1000px" height="1000px" viewBox="0 0 1000 1000" enable-background="new 0 0 1000 1000" xml:space="preserve">
<rect x="-13" y="-11.5" fill="#FFFFFF" width="1025.9" height="1021.4"/>
<g>
	<path d="M410.3,417l-4.1,12.9l-1.1,3.4l-36.9,114.4h-38.5L371.8,417h29.5H410.3z"/>
	<path d="M553.5,456.6l-7.8,34.2c0,0-4-0.7-5.9-0.7c-6.2,0-9.4,4.8-9.4,14.3v43.4h-34.3v-50c0-13.2,3.6-23.7,10.8-31.6
		c7.2-7.9,16.8-11.8,28.9-11.8C538.5,454.4,546.7,455,553.5,456.6z"/>
	<path fill="#FF9E00" d="M634.6,467.4c-8.5-8.7-20.2-13-35-13c-13.3,0-24.5,4.6-33.8,13.8c-9.3,9.2-13.9,20.5-13.9,33.7
		c0,13.6,4.6,25,13.8,34s23,11.6,34.4,11.6c4.4,0,8.9,0,12.8,0h0.2h34.3v-44.9C647.4,487.9,643.2,476.1,634.6,467.4z M609.9,512.6
		c-2.8,3-6.3,4.4-10.3,4.4c-3.9,0-7.4-1.5-10.2-4.4c-2.8-2.9-4.3-6.5-4.3-10.6c0-4.2,1.4-7.8,4.2-10.7c2.8-2.9,6.2-4.4,10.2-4.4
		c4.1,0,7.5,1.5,10.3,4.4s4.2,6.5,4.2,10.7C614.2,506.1,612.8,509.7,609.9,512.6z"/>
	<polygon points="194.2,483.3 179.4,456.3 142,456.3 194.2,551.3 247.1,456.3 209.2,456.3 	"/>
	<path d="M751.2,505.7c-0.8,11.6-5.4,21.6-13.9,30c-9.4,9.3-20.7,13.9-34,13.9s-24.6-4.7-34-14s-14.1-20.6-14.1-33.7
		c0-13.4,4.7-24.7,14.1-33.8c9.4-9.1,21-13.7,34.8-13.7c13,0,24.1,4.7,33.3,14c8.3,8.4,12.9,18.3,13.7,29.7h-35.5
		c-1.7-5.3-6.6-9.1-12.5-9.1c-6.3,0-11.5,4.4-12.8,10.3c-0.2,0.9-0.3,1.8-0.3,2.7c0,7.2,5.8,13.1,13.1,13.1c5.9,0,10.9-3.9,12.5-9.4
		L751.2,505.7L751.2,505.7z"/>
	<path d="M852.4,505.7c-0.8,11.6-5.4,21.6-13.9,30c-9.4,9.3-20.7,13.9-34,13.9s-24.6-4.7-34-14s-14.1-20.6-14.1-33.7
		c0-13.4,4.7-24.7,14.1-33.8c9.4-9.1,21-13.7,34.8-13.7c13,0,24.1,4.7,33.3,14c8.3,8.4,12.9,18.3,13.7,29.7h-60.4
		c-0.1,0.4-0.6,3-0.6,3.9c0,7.2,5.8,13.1,13.1,13.1c5.9,0,10.9-3.9,12.5-9.4L852.4,505.7L852.4,505.7z"/>
	<path d="M334.1,505.7c-0.8,11.6-5.4,21.6-13.9,30c-9.4,9.3-20.7,13.9-34,13.9s-24.6-4.7-34-14s-14.1-20.6-14.1-33.7
		c0-13.4,4.7-24.7,14.1-33.8c9.4-9.1,21-13.7,34.8-13.7c13,0,24.1,4.7,33.3,14c8.3,8.4,12.9,18.3,13.7,29.7h-60.4
		c-0.1,0.4-0.2,0.8-0.3,1.2c-0.2,0.9-0.3,1.8-0.3,2.7c0,7.2,5.8,13.1,13.1,13.1c5.9,0,10.9-3.9,12.5-9.4L334.1,505.7L334.1,505.7z"
		/>
	<path d="M475.2,468.3c-9.3-9.3-20.4-14-33.3-14c-13.8,0-25.4,4.6-34.9,13.7c-9.4,9.1-14.1,20.4-14.1,33.8
		c0,13.1,4.7,24.4,14.1,33.7s20.8,14,34,14c13.3,0,24.6-4.6,34-13.9c9.4-9.3,14.1-20.5,14.1-33.7
		C489.1,488.8,484.5,477.7,475.2,468.3z M451.3,512.6c-2.8,3-6.3,4.4-10.3,4.4c-3.9,0-7.4-1.5-10.2-4.4c-2.8-2.9-4.3-6.5-4.3-10.6
		c0-4.2,1.4-7.8,4.2-10.7c2.8-2.9,6.2-4.4,10.2-4.4c4.1,0,7.5,1.5,10.3,4.4s4.2,6.5,4.2,10.7C455.5,506.1,454.1,509.7,451.3,512.6z"
		/>
</g>
</svg>
