<?xml version="1.0" encoding="utf-8"?>
<!-- Generator: Adobe Illustrator 17.1.0, SVG Export Plug-In . SVG Version: 6.00 Build 0)  -->
<!DOCTYPE svg PUBLIC "-//W3C//DTD SVG 1.1//EN" "http://www.w3.org/Graphics/SVG/1.1/DTD/svg11.dtd">
<svg version="1.1" id="Layer_1" xmlns="http://www.w3.org/2000/svg" xmlns:xlink="http://www.w3.org/1999/xlink" x="0px" y="0px"
	 width="38px" height="38px" viewBox="0 0 38 38" enable-background="new 0 0 38 38" xml:space="preserve">
<g>
	<linearGradient id="SVGID_1_" gradientUnits="userSpaceOnUse" x1="13.7539" y1="38.6355" x2="24.2749" y2="-0.6293">
		<stop  offset="0" style="stop-color:#FCCE5A"/>
		<stop  offset="5.479531e-002" style="stop-color:#F9BB51"/>
		<stop  offset="0.1656" style="stop-color:#F18938"/>
		<stop  offset="0.2406" style="stop-color:#EB6426"/>
		<stop  offset="0.2635" style="stop-color:#E85C2F"/>
		<stop  offset="0.3486" style="stop-color:#DF424C"/>
		<stop  offset="0.4334" style="stop-color:#D82F60"/>
		<stop  offset="0.517" style="stop-color:#D4246D"/>
		<stop  offset="0.5979" style="stop-color:#D32071"/>
		<stop  offset="0.7691" style="stop-color:#A54189"/>
		<stop  offset="0.8717" style="stop-color:#8F5195"/>
		<stop  offset="0.9274" style="stop-color:#80559B"/>
		<stop  offset="1" style="stop-color:#7159A1"/>
	</linearGradient>
	<path fill="url(#SVGID_1_)" d="M13.4,38.1h11.4c7.3,0,13.3-6.2,13.3-13.5V13.2C38.1,5.9,32.2,0,24.9,0H13.3C5.9,0,0,5.9,0,13.3
		v11.2C0,31.9,6,38.1,13.4,38.1z"/>
	<g>
		<path fill="#FFFFFF" d="M24.9,5.3H13.2c-4.3,0-7.9,3.5-7.9,7.9v11.7c0,4.3,3.5,7.9,7.9,7.9h11.7c4.3,0,7.9-3.5,7.9-7.9V13.2
			C32.7,8.8,29.2,5.3,24.9,5.3z M30.4,23.9c0,3.6-2.9,6.5-6.5,6.5h-9.7c-3.6,0-6.5-2.9-6.5-6.5v-9.7c0-3.6,2.9-6.5,6.5-6.5h9.7
			c3.6,0,6.5,2.9,6.5,6.5V23.9z"/>
		<path fill="#FFFFFF" d="M19.1,12.1c-3.9,0-7,3.1-7,7s3.1,7,7,7s7-3.1,7-7S23,12.1,19.1,12.1z M19.1,23.6c-2.5,0-4.5-2-4.5-4.5
			s2-4.5,4.5-4.5s4.5,2,4.5,4.5S21.6,23.6,19.1,23.6z"/>
		<circle fill="#FFFFFF" cx="26.3" cy="11.8" r="1.8"/>
	</g>
</g>
</svg>
